<svg xmlns="http://www.w3.org/2000/svg" width="156.463" height="48" viewBox="0 0 156.463 48">
  <g id="detox-to-zero-by-oeko-tex-vector-logo" transform="translate(-20.8 -229.5)">
    <rect id="Retângulo_5123" data-name="Retângulo 5123" width="4.041" height="13.74" transform="translate(157.421 259.119)" fill="#5b89c7"/>
    <rect id="Retângulo_5124" data-name="Retângulo 5124" width="4.041" height="12.515" transform="translate(161.463 262.378)" fill="#8aa5d6"/>
    <rect id="Retângulo_5125" data-name="Retângulo 5125" width="4.041" height="10.09" transform="translate(165.53 265.559)" fill="#b3c2e5"/>
    <rect id="Retângulo_5126" data-name="Retângulo 5126" width="4.041" height="4.198" transform="translate(169.571 269.339)" fill="#d0d8ef"/>
    <g id="Grupo_15623" data-name="Grupo 15623" transform="translate(20.8 229.5)">
      <path id="Caminho_58872" data-name="Caminho 58872" d="M554.931,324.426l-11.6-.026a11.628,11.628,0,1,0,11.628,11.628c-.026-.13-.026-11.6-.026-11.6m-11.628,19.5a7.9,7.9,0,1,1,7.9-7.9,7.895,7.895,0,0,1-7.9,7.9" transform="translate(-398.494 -299.657)" fill="#1d71b8"/>
      <path id="Caminho_58873" data-name="Caminho 58873" d="M90.785,308.658a.994.994,0,0,1-.156.13.733.733,0,0,1-.287.13c-.13.052-.261.078-.443.13a3.907,3.907,0,0,1-.574.052,2.827,2.827,0,0,1-1.1-.209,1.678,1.678,0,0,1-.756-.574,2.247,2.247,0,0,1-.443-.86,4.254,4.254,0,0,1,.026-2.19,2.628,2.628,0,0,1,.469-.886,2.328,2.328,0,0,1,.756-.574,2.79,2.79,0,0,1,1.069-.209,3.255,3.255,0,0,1,.548.052,2.2,2.2,0,0,1,.443.13,1.734,1.734,0,0,1,.313.156,1.775,1.775,0,0,1,.183.13c.052.052.078.1.13.156a.483.483,0,0,1,.052.183.542.542,0,0,1-.13.313,1.368,1.368,0,0,1-.261.287,1.49,1.49,0,0,0-.209-.183,2.255,2.255,0,0,0-.261-.182c-.1-.052-.209-.078-.339-.13a2.027,2.027,0,0,0-.417-.052,1.372,1.372,0,0,0-.678.156,1.349,1.349,0,0,0-.443.417,2.056,2.056,0,0,0-.235.6,3.006,3.006,0,0,0-.078.678,3.236,3.236,0,0,0,.078.7,2.056,2.056,0,0,0,.235.6,1.138,1.138,0,0,0,.443.417,1.407,1.407,0,0,0,.7.156,1.578,1.578,0,0,0,.391-.052.87.87,0,0,0,.313-.13,2.3,2.3,0,0,0,.261-.156,1.136,1.136,0,0,0,.183-.156.568.568,0,0,1,.1.13c.052.052.078.1.13.156a1.133,1.133,0,0,1,.1.182.331.331,0,0,1,.026.156.387.387,0,0,1-.026.182.692.692,0,0,1-.13.156" transform="translate(-69.666 -284.28)" fill="#878787"/>
      <path id="Caminho_58874" data-name="Caminho 58874" d="M112.871,306.238a4.8,4.8,0,0,1-.13,1.069,2.529,2.529,0,0,1-.417.886,1.937,1.937,0,0,1-.756.6,2.817,2.817,0,0,1-2.19-.026,2.054,2.054,0,0,1-.73-.6,3.091,3.091,0,0,1-.417-.886,4.616,4.616,0,0,1-.13-1.069,4.568,4.568,0,0,1,.13-1.043,2.246,2.246,0,0,1,.443-.86,2.146,2.146,0,0,1,.756-.6,2.35,2.35,0,0,1,1.1-.209,2.693,2.693,0,0,1,1.069.209,1.989,1.989,0,0,1,.73.574,2.21,2.21,0,0,1,.417.86,5.035,5.035,0,0,1,.13,1.1m-1.121,0a5.553,5.553,0,0,0-.052-.7,2.034,2.034,0,0,0-.209-.6,1.207,1.207,0,0,0-.391-.417,1.051,1.051,0,0,0-.574-.156,1.08,1.08,0,0,0-.6.156,1.206,1.206,0,0,0-.391.417,1.493,1.493,0,0,0-.209.6,3.237,3.237,0,0,0-.078.7,3.3,3.3,0,0,0,.078.73,1.8,1.8,0,0,0,.209.6,1.207,1.207,0,0,0,.391.417,1.228,1.228,0,0,0,1.2,0,1.207,1.207,0,0,0,.391-.417,2.335,2.335,0,0,0,.209-.6,6.593,6.593,0,0,0,.026-.73" transform="translate(-85.338 -284.206)" fill="#878787"/>
      <path id="Caminho_58875" data-name="Caminho 58875" d="M137.972,309.119h-.913l-2.242-3.468v3.468H133.8v-5.267c.052,0,.13-.026.209-.026s.183-.026.261-.026a.87.87,0,0,1,.391.078.829.829,0,0,1,.261.261l2.034,3.311v-3.6c.078,0,.13-.026.209-.026h.156a.721.721,0,0,1,.235.026,1.8,1.8,0,0,1,.209.078c.052.052.13.1.156.182a.565.565,0,0,1,.052.313Z" transform="translate(-104.338 -284.428)" fill="#878787"/>
      <path id="Caminho_58876" data-name="Caminho 58876" d="M158.869,306.06h1.695v.834h-1.695v2.347H157.8V304h3.311c0,.052.026.1.026.156v.156a.64.64,0,0,1-.13.391.625.625,0,0,1-.5.156H158.9v1.2Z" transform="translate(-122.08 -284.576)" fill="#878787"/>
      <path id="Caminho_58877" data-name="Caminho 58877" d="M176.9,303.926c.078,0,.156-.026.209-.026h.156a.722.722,0,0,1,.235.026l.235.078a.61.61,0,0,1,.182.183.556.556,0,0,1,.078.313v4.693h-1.069v-5.267Z" transform="translate(-136.2 -284.502)" fill="#878787"/>
      <path id="Caminho_58878" data-name="Caminho 58878" d="M193.172,306.233a3.362,3.362,0,0,1-.156,1.043,2.68,2.68,0,0,1-.443.86,2.178,2.178,0,0,1-.782.574,2.463,2.463,0,0,1-1.121.209H189V303.7a5.814,5.814,0,0,1,.86-.078c.235,0,.443-.026.626-.026a3.687,3.687,0,0,1,1.3.209,2.166,2.166,0,0,1,.834.574,1.988,1.988,0,0,1,.443.834,4.491,4.491,0,0,1,.1,1.017m-1.1.026a3.237,3.237,0,0,0-.078-.7,2.214,2.214,0,0,0-.235-.574.959.959,0,0,0-.469-.365,1.591,1.591,0,0,0-.73-.13,2.835,2.835,0,0,0-.469.026v3.624h.443a1.972,1.972,0,0,0,.756-.13,1,1,0,0,0,.469-.391,1.122,1.122,0,0,0,.235-.6,3.368,3.368,0,0,0,.078-.756" transform="translate(-145.146 -284.28)" fill="#878787"/>
      <path id="Caminho_58879" data-name="Caminho 58879" d="M215.238,308.432a.6.6,0,0,1,.521.183.64.64,0,0,1,.13.391v.287H212.5V304h3.285c0,.052.026.1.026.156v.156a.664.664,0,0,1-.13.417.84.84,0,0,1-.521.13h-1.538v1.3h1.669V307h-1.669v1.46h1.616Z" transform="translate(-162.518 -284.576)" fill="#878787"/>
      <path id="Caminho_58880" data-name="Caminho 58880" d="M236.172,309.119h-.913l-2.242-3.468v3.468H232v-5.267c.052,0,.13-.026.209-.026s.183-.026.261-.026a.87.87,0,0,1,.391.078.829.829,0,0,1,.261.261l2.034,3.311v-3.6c.078,0,.13-.026.209-.026h.156a.721.721,0,0,1,.235.026,1.8,1.8,0,0,1,.209.078.35.35,0,0,1,.156.182.565.565,0,0,1,.052.313v4.693Z" transform="translate(-176.934 -284.428)" fill="#878787"/>
      <path id="Caminho_58881" data-name="Caminho 58881" d="M259.385,308.658a.994.994,0,0,1-.156.13.733.733,0,0,1-.287.13c-.13.052-.261.078-.443.13a3.908,3.908,0,0,1-.574.052,2.827,2.827,0,0,1-1.1-.209,1.678,1.678,0,0,1-.756-.574,2.247,2.247,0,0,1-.443-.86,4.254,4.254,0,0,1,.026-2.19,2.628,2.628,0,0,1,.469-.886,2.328,2.328,0,0,1,.756-.574,2.789,2.789,0,0,1,1.069-.209,3.257,3.257,0,0,1,.548.052,2.2,2.2,0,0,1,.443.13,1.734,1.734,0,0,1,.313.156c.078.052.13.1.182.13.052.052.078.1.13.156a.484.484,0,0,1,.052.183.413.413,0,0,1-.13.313,1.367,1.367,0,0,1-.261.287,1.489,1.489,0,0,0-.209-.183,2.259,2.259,0,0,0-.261-.182c-.1-.052-.209-.078-.339-.13a2.027,2.027,0,0,0-.417-.052,1.372,1.372,0,0,0-.678.156,1.349,1.349,0,0,0-.443.417,2.055,2.055,0,0,0-.235.6,3.005,3.005,0,0,0-.078.678,3.236,3.236,0,0,0,.078.7,2.055,2.055,0,0,0,.235.6,1.138,1.138,0,0,0,.443.417,1.407,1.407,0,0,0,.7.156,1.578,1.578,0,0,0,.391-.052,1.31,1.31,0,0,0,.339-.13.911.911,0,0,0,.235-.156,1.136,1.136,0,0,0,.183-.156.569.569,0,0,1,.1.13c.052.052.078.1.13.156a1.13,1.13,0,0,1,.1.182.37.37,0,0,1,.052.156.376.376,0,0,1-.052.182.691.691,0,0,1-.13.156" transform="translate(-194.307 -284.28)" fill="#878787"/>
      <path id="Caminho_58882" data-name="Caminho 58882" d="M281.138,308.432a.6.6,0,0,1,.521.183.64.64,0,0,1,.13.391v.287H278.4V304h3.285c0,.052.026.1.026.156v.156a.664.664,0,0,1-.13.417.84.84,0,0,1-.521.13h-1.538v1.3h1.669V307h-1.669v1.46h1.616Z" transform="translate(-211.237 -284.576)" fill="#878787"/>
      <path id="Caminho_58883" data-name="Caminho 58883" d="M308.8,303.926c.078,0,.156-.026.209-.026h.156a.722.722,0,0,1,.235.026l.235.078a.351.351,0,0,1,.156.183.556.556,0,0,1,.078.313v4.693H308.8Z" transform="translate(-233.71 -284.502)" fill="#878787"/>
      <path id="Caminho_58884" data-name="Caminho 58884" d="M324.9,309.119h-.913l-2.242-3.468v3.468H320.7v-5.267c.052,0,.13-.026.209-.026s.182-.026.261-.026a.87.87,0,0,1,.391.078.829.829,0,0,1,.261.261l2.034,3.311v-3.6c.078,0,.13-.026.209-.026h.156a.721.721,0,0,1,.235.026,1.8,1.8,0,0,1,.209.078.351.351,0,0,1,.156.182.565.565,0,0,1,.052.313v4.693Z" transform="translate(-242.508 -284.428)" fill="#878787"/>
      <path id="Caminho_58885" data-name="Caminho 58885" d="M355.469,304.786h-1.643c0-.052-.026-.1-.026-.156v-.156a.626.626,0,0,1,.156-.391.6.6,0,0,1,.521-.182h3.7a1.487,1.487,0,0,1,.026.339.623.623,0,0,1-.13.365.664.664,0,0,1-.5.156h-.991v4.38h-1.1v-4.354Z" transform="translate(-266.978 -284.502)" fill="#878787"/>
      <path id="Caminho_58886" data-name="Caminho 58886" d="M379.638,308.432a.6.6,0,0,1,.521.183.512.512,0,0,1,.13.391v.287H376.9V304h3.285c0,.052.026.1.026.156v.156a.664.664,0,0,1-.13.417.84.84,0,0,1-.521.13h-1.59v1.3h1.669V307h-1.669v1.46h1.669Z" transform="translate(-284.055 -284.576)" fill="#878787"/>
      <path id="Caminho_58887" data-name="Caminho 58887" d="M396.99,307.372l-1.017,1.747H394.8l1.564-2.633-1.382-2.5c.1-.052.209-.078.339-.13a1.538,1.538,0,0,1,.365-.052.654.654,0,0,1,.626.391l.756,1.408.782-1.33a1.509,1.509,0,0,1,.313-.365.661.661,0,0,1,.417-.1.978.978,0,0,1,.287.026.9.9,0,0,1,.287.13l-1.46,2.477,1.538,2.633a1.376,1.376,0,0,1-.313.078,1.269,1.269,0,0,1-.313.026.774.774,0,0,1-.469-.13,1.51,1.51,0,0,1-.313-.365Z" transform="translate(-297.288 -284.428)" fill="#878787"/>
      <path id="Caminho_58888" data-name="Caminho 58888" d="M417.869,304.786h-1.643c0-.052-.026-.1-.026-.156v-.156a.626.626,0,0,1,.156-.391.6.6,0,0,1,.521-.182h3.7a1.486,1.486,0,0,1,.026.339.623.623,0,0,1-.13.365.664.664,0,0,1-.5.156h-.991v4.38h-1.1v-4.354Z" transform="translate(-313.108 -284.502)" fill="#878787"/>
      <path id="Caminho_58889" data-name="Caminho 58889" d="M439.1,303.926c.078,0,.156-.026.209-.026h.156a.722.722,0,0,1,.235.026l.235.078a.351.351,0,0,1,.156.183.556.556,0,0,1,.078.313v4.693H439.1Z" transform="translate(-330.038 -284.502)" fill="#878787"/>
      <path id="Caminho_58890" data-name="Caminho 58890" d="M452.369,308.306h1.538a.972.972,0,0,1,.313.052.333.333,0,0,1,.183.13.42.42,0,0,1,.1.182.574.574,0,0,1,.026.209v.313H451.3v-5.267c.078,0,.156-.026.209-.026h.156a.722.722,0,0,1,.235.026l.235.078a.61.61,0,0,1,.183.183.556.556,0,0,1,.078.313v3.807Z" transform="translate(-339.057 -284.502)" fill="#878787"/>
      <path id="Caminho_58891" data-name="Caminho 58891" d="M473.238,308.432a.6.6,0,0,1,.521.183.641.641,0,0,1,.13.391v.287H470.5V304h3.259c0,.052.026.1.026.156v.156a.663.663,0,0,1-.13.417.84.84,0,0,1-.521.13H471.6v1.3h1.669V307H471.6v1.46h1.643Z" transform="translate(-353.251 -284.576)" fill="#878787"/>
      <path id="Caminho_58892" data-name="Caminho 58892" d="M489.139,307.746a5.025,5.025,0,0,0,.548.339,1.7,1.7,0,0,0,.756.156,1.27,1.27,0,0,0,.313-.026.963.963,0,0,0,.287-.13.793.793,0,0,0,.209-.209.773.773,0,0,0,0-.678.511.511,0,0,0-.235-.235,1.349,1.349,0,0,0-.339-.156,2.293,2.293,0,0,0-.391-.13c-.156-.052-.339-.13-.5-.183a2.717,2.717,0,0,1-.469-.261,1.327,1.327,0,0,1-.339-.417,1.611,1.611,0,0,1-.13-.652,1.444,1.444,0,0,1,.156-.678,1.514,1.514,0,0,1,.417-.5,1.6,1.6,0,0,1,.6-.287,3.283,3.283,0,0,1,.7-.1,2.992,2.992,0,0,1,.5.026,1.411,1.411,0,0,1,.391.1,1.721,1.721,0,0,1,.287.1.559.559,0,0,1,.182.1.37.37,0,0,1,.209.365.69.69,0,0,1-.078.261,1.226,1.226,0,0,1-.235.313,1.771,1.771,0,0,0-.5-.287,1.391,1.391,0,0,0-.652-.13,1.07,1.07,0,0,0-.287.026.782.782,0,0,0-.261.1.7.7,0,0,0-.209.182.565.565,0,0,0,0,.574.8.8,0,0,0,.209.209,1.737,1.737,0,0,0,.313.156,2.04,2.04,0,0,0,.365.13c.156.052.339.13.521.209a1.418,1.418,0,0,1,.469.287,1.327,1.327,0,0,1,.339.417,1.61,1.61,0,0,1,.13.652,1.587,1.587,0,0,1-.156.73,1.7,1.7,0,0,1-.417.548,1.821,1.821,0,0,1-.626.339,2.64,2.64,0,0,1-.808.1,3.028,3.028,0,0,1-.913-.1,3.511,3.511,0,0,1-.5-.209.887.887,0,0,1-.156-.156.281.281,0,0,1-.052-.209.555.555,0,0,1,.1-.313,2.577,2.577,0,0,1,.235-.391" transform="translate(-366.779 -284.28)" fill="#878787"/>
      <path id="Caminho_58893" data-name="Caminho 58893" d="M95.171,236.874a10.426,10.426,0,0,1-.365,2.868,6.327,6.327,0,0,1-1.121,2.347,5.361,5.361,0,0,1-1.982,1.59,6.742,6.742,0,0,1-2.946.6,6.388,6.388,0,0,1-2.868-.6,5.389,5.389,0,0,1-1.955-1.617,6.484,6.484,0,0,1-1.1-2.347,11.334,11.334,0,0,1,.026-5.606,6.955,6.955,0,0,1,1.173-2.32,6.038,6.038,0,0,1,2.008-1.59,6.585,6.585,0,0,1,2.894-.6,6.239,6.239,0,0,1,2.816.574,5.2,5.2,0,0,1,1.955,1.538,6.05,6.05,0,0,1,1.1,2.294,10.3,10.3,0,0,1,.365,2.868m-2.946.026a8.9,8.9,0,0,0-.183-1.9,4.45,4.45,0,0,0-.574-1.59,3.334,3.334,0,0,0-1.017-1.069,2.9,2.9,0,0,0-1.564-.391,2.933,2.933,0,0,0-2.686,1.46,5.038,5.038,0,0,0-.6,1.59,10.964,10.964,0,0,0-.183,1.9,11.53,11.53,0,0,0,.183,1.929,6.1,6.1,0,0,0,.574,1.643,3.092,3.092,0,0,0,1.043,1.121,2.839,2.839,0,0,0,1.59.417,3,3,0,0,0,1.59-.417,3.078,3.078,0,0,0,1.043-1.121,5.8,5.8,0,0,0,.574-1.643,7.82,7.82,0,0,0,.209-1.929" transform="translate(-66.413 -229.574)" fill="#878787"/>
      <path id="Caminho_58894" data-name="Caminho 58894" d="M147.879,242.537a1.694,1.694,0,0,1,1.382.443,1.675,1.675,0,0,1,.365,1.017,1.727,1.727,0,0,1-.026.391c0,.1-.026.209-.026.339H140.5V230.7h8.734a2.712,2.712,0,0,1,.052.391c0,.1.026.235.026.391a1.4,1.4,0,0,1-.391,1.1,2.043,2.043,0,0,1-1.382.365h-4.146v3.468h4.458v2.242h-4.458v3.885h4.485Z" transform="translate(-109.291 -230.387)" fill="#878787"/>
      <path id="Caminho_58895" data-name="Caminho 58895" d="M182.7,230.53c.209-.026.391-.052.574-.078a2.878,2.878,0,0,1,.417-.026,5.962,5.962,0,0,1,.652.052,1.694,1.694,0,0,1,.6.235,1.354,1.354,0,0,1,.443.5,1.9,1.9,0,0,1,.156.834V237.1a2.09,2.09,0,0,1,.287-.913,10.311,10.311,0,0,1,.574-.886l2.868-3.781a3.274,3.274,0,0,1,.965-.886,1.951,1.951,0,0,1,1.017-.235,2.4,2.4,0,0,1,.991.182,1.914,1.914,0,0,1,.7.443l-4.615,6.179,5.215,7.04a3.326,3.326,0,0,1-1.643.5,2.663,2.663,0,0,1-2.242-1.1l-3.051-3.963a4.625,4.625,0,0,1-.678-1.069,3.106,3.106,0,0,1-.365-1.147v7.04H182.7Z" transform="translate(-140.488 -230.165)" fill="#878787"/>
      <path id="Caminho_58896" data-name="Caminho 58896" d="M237.071,236.874a11.527,11.527,0,0,1-.365,2.868,6.759,6.759,0,0,1-1.121,2.347,5.16,5.16,0,0,1-1.982,1.59,6.7,6.7,0,0,1-2.92.6,6.5,6.5,0,0,1-2.894-.6,5.181,5.181,0,0,1-1.955-1.617,6.946,6.946,0,0,1-1.1-2.347,10.967,10.967,0,0,1-.339-2.816,9.88,9.88,0,0,1,.391-2.79,6.956,6.956,0,0,1,1.173-2.32,5.787,5.787,0,0,1,2.008-1.59,6.585,6.585,0,0,1,2.894-.6,6.432,6.432,0,0,1,2.842.574,5.11,5.11,0,0,1,1.929,1.538,6.5,6.5,0,0,1,1.121,2.294,14.423,14.423,0,0,1,.313,2.868m-2.972.026a11.028,11.028,0,0,0-.156-1.9,4.45,4.45,0,0,0-.574-1.59,3.079,3.079,0,0,0-1.017-1.069,2.869,2.869,0,0,0-1.538-.391,3.093,3.093,0,0,0-1.617.391,3.223,3.223,0,0,0-1.069,1.069,5.009,5.009,0,0,0-.574,1.59,8.9,8.9,0,0,0-.183,1.9,11.53,11.53,0,0,0,.183,1.929,5.322,5.322,0,0,0,.574,1.643,3.092,3.092,0,0,0,1.043,1.121,2.725,2.725,0,0,0,1.59.417,3.067,3.067,0,0,0,1.59-.417,3.01,3.01,0,0,0,1.017-1.121,5.8,5.8,0,0,0,.574-1.643,11.564,11.564,0,0,0,.156-1.929" transform="translate(-171.316 -229.574)" fill="#878787"/>
      <path id="Caminho_58897" data-name="Caminho 58897" d="M283.686,260.09c-.991,0-1.486-.443-1.486-1.3,0-.313.026-.6.052-.886h5.241a2.311,2.311,0,0,1,1.121.235c.287.156.443.521.443,1.1v.443a2.528,2.528,0,0,0-.026.443h-5.345Z" transform="translate(-214.046 -250.495)" fill="#878787"/>
      <path id="Caminho_58898" data-name="Caminho 58898" d="M310.258,233.147h-4.38v-.026c-.026-.183-.026-.313-.052-.417,0-.1-.026-.235-.026-.391a1.524,1.524,0,0,1,.417-1.043,1.769,1.769,0,0,1,1.382-.469h9.829a5.058,5.058,0,0,1,.052.886,1.549,1.549,0,0,1-.365.991,1.733,1.733,0,0,1-1.33.443h-2.633V244.8h-2.894Z" transform="translate(-231.493 -230.461)" fill="#878787"/>
      <path id="Caminho_58899" data-name="Caminho 58899" d="M364.152,242.537a1.694,1.694,0,0,1,1.382.443A1.675,1.675,0,0,1,365.9,244v.391a1.378,1.378,0,0,0-.026.339H356.8V230.7h8.734a2.714,2.714,0,0,1,.052.391c0,.1.026.235.026.391a1.5,1.5,0,0,1-.365,1.1,2.124,2.124,0,0,1-1.408.365H359.72v3.468h4.432v2.242H359.72v3.885h4.432Z" transform="translate(-269.195 -230.387)" fill="#878787"/>
      <path id="Caminho_58900" data-name="Caminho 58900" d="M400.088,239.817l-2.659,4.615H394.3l4.146-6.988-3.7-6.649a8.932,8.932,0,0,1,.887-.339,3.877,3.877,0,0,1,.939-.13,1.748,1.748,0,0,1,1.669,1.017l2.034,3.781,2.06-3.572a3.14,3.14,0,0,1,.808-.965,1.874,1.874,0,0,1,1.147-.287,2.47,2.47,0,0,1,.782.1,5.583,5.583,0,0,1,.73.313l-3.885,6.6,4.067,7.014a6.818,6.818,0,0,1-.86.235,4.454,4.454,0,0,1-.808.078,2.346,2.346,0,0,1-1.3-.339,3.129,3.129,0,0,1-.782-.939Z" transform="translate(-296.918 -230.091)" fill="#878787"/>
      <path id="Caminho_58901" data-name="Caminho 58901" d="M458.579,231.3a5.606,5.606,0,1,1-5.606,5.606,5.636,5.636,0,0,1,5.606-5.606m0-1.8a7.4,7.4,0,1,0,7.4,7.4,7.394,7.394,0,0,0-7.4-7.4" transform="translate(-338.983 -229.5)" fill="#878787"/>
      <path id="Caminho_58902" data-name="Caminho 58902" d="M475.754,245.264a2.533,2.533,0,0,1-.1.808,1.86,1.86,0,0,1-.313.6,2.378,2.378,0,0,1-.443.443,1.954,1.954,0,0,1-.521.261l1.8,2.972a2.2,2.2,0,0,1-.443.13,2.9,2.9,0,0,1-.443.052,1.149,1.149,0,0,1-.678-.183,1.472,1.472,0,0,1-.5-.548l-1.225-2.112h-.6V250.4H470.8v-7.2l.991-.078c.339-.026.652-.026.913-.026a4.026,4.026,0,0,1,2.294.521,1.884,1.884,0,0,1,.756,1.643m-1.564.13a1.182,1.182,0,0,0-.365-.965,1.566,1.566,0,0,0-.965-.261h-.339a.579.579,0,0,0-.235.026v2.5h.5a1.483,1.483,0,0,0,1.017-.313,1.132,1.132,0,0,0,.391-.991" transform="translate(-353.472 -239.554)" fill="#878787"/>
      <path id="Caminho_58903" data-name="Caminho 58903" d="M30.76,349.953a8.669,8.669,0,0,1-.365,2.5,5.8,5.8,0,0,1-1.1,2.06,5.232,5.232,0,0,1-1.851,1.382,6.45,6.45,0,0,1-2.659.521H20.8V344.009c.808-.1,1.486-.156,2.06-.182s1.069-.026,1.46-.026a8.233,8.233,0,0,1,3.1.5,5.3,5.3,0,0,1,1.982,1.33,5.073,5.073,0,0,1,1.043,1.955,8.835,8.835,0,0,1,.313,2.373m-2.633.026a8.361,8.361,0,0,0-.156-1.643,3.433,3.433,0,0,0-.574-1.33,2.7,2.7,0,0,0-1.121-.886,4.383,4.383,0,0,0-1.773-.339c-.365,0-.73.026-1.121.052v8.63H24.4a4.149,4.149,0,0,0,1.825-.339,2.84,2.84,0,0,0,1.147-.913,3.836,3.836,0,0,0,.6-1.408,9.72,9.72,0,0,0,.156-1.825" transform="translate(-20.8 -313.999)" fill="#1d71b8"/>
      <path id="Caminho_58904" data-name="Caminho 58904" d="M73.5,354.659a1.447,1.447,0,0,1,1.225.417,1.518,1.518,0,0,1,.339.913v.339c0,.1-.026.209-.026.313H66.9V344.1h7.8a2.168,2.168,0,0,1,.052.339v.339a1.308,1.308,0,0,1-.339.991,1.891,1.891,0,0,1-1.251.339H69.481v3.077h3.963v2.008H69.481v3.468Z" transform="translate(-54.88 -314.221)" fill="#1d71b8"/>
      <path id="Caminho_58905" data-name="Caminho 58905" d="M104.063,346.212h-3.911v-.026a2.993,2.993,0,0,1-.052-.365v-.365a1.467,1.467,0,0,1,.365-.939,1.515,1.515,0,0,1,1.225-.417h8.787a7.893,7.893,0,0,1,.052.808,1.306,1.306,0,0,1-.339.886,1.541,1.541,0,0,1-1.2.391h-2.347v10.429h-2.581Z" transform="translate(-79.424 -314.221)" fill="#1d71b8"/>
      <path id="Caminho_58906" data-name="Caminho 58906" d="M151.042,349.84a10.239,10.239,0,0,1-.313,2.555,5.686,5.686,0,0,1-1.017,2.112,5.067,5.067,0,0,1-1.773,1.434,6.116,6.116,0,0,1-2.607.521,5.912,5.912,0,0,1-2.581-.521A4.974,4.974,0,0,1,141,354.507a6.077,6.077,0,0,1-.991-2.112,10.031,10.031,0,0,1-.313-2.529,8.614,8.614,0,0,1,.339-2.477,5.905,5.905,0,0,1,1.043-2.06,4.821,4.821,0,0,1,1.8-1.408,6.077,6.077,0,0,1,2.581-.521,5.76,5.76,0,0,1,2.529.5,4.753,4.753,0,0,1,1.721,1.382,5.612,5.612,0,0,1,.991,2.06,8.306,8.306,0,0,1,.339,2.5m-2.633,0a8.707,8.707,0,0,0-.156-1.695,4.267,4.267,0,0,0-.5-1.408,2.71,2.71,0,0,0-.913-.965,2.532,2.532,0,0,0-1.382-.365,2.688,2.688,0,0,0-2.425,1.33,4.769,4.769,0,0,0-.521,1.408,8.9,8.9,0,0,0-.156,1.695,9.183,9.183,0,0,0,.156,1.721,4.833,4.833,0,0,0,.521,1.46,2.929,2.929,0,0,0,.939,1.017,2.468,2.468,0,0,0,1.408.365,2.721,2.721,0,0,0,1.434-.365,2.463,2.463,0,0,0,.913-1.017,4.816,4.816,0,0,0,.5-1.46,7.41,7.41,0,0,0,.183-1.721" transform="translate(-108.699 -313.703)" fill="#1d71b8"/>
      <path id="Caminho_58907" data-name="Caminho 58907" d="M188.015,352.374l-2.4,4.146H182.8l3.7-6.257-3.285-5.945c.261-.1.521-.209.782-.287a2.938,2.938,0,0,1,.834-.13,1.576,1.576,0,0,1,1.486.913l1.825,3.389L190,345.021a2.746,2.746,0,0,1,.73-.86,1.681,1.681,0,0,1,1.017-.261,2,2,0,0,1,.7.1,2.772,2.772,0,0,1,.652.287l-3.468,5.866,3.65,6.257a6.4,6.4,0,0,1-.756.209,3.669,3.669,0,0,1-.73.078,2.01,2.01,0,0,1-1.147-.287,3.349,3.349,0,0,1-.73-.834Z" transform="translate(-140.562 -314.073)" fill="#1d71b8"/>
      <path id="Caminho_58908" data-name="Caminho 58908" d="M242.563,346.212h-3.911v-.026a2.994,2.994,0,0,1-.052-.365v-.365a1.467,1.467,0,0,1,.365-.939,1.515,1.515,0,0,1,1.225-.417h8.787a7.9,7.9,0,0,1,.052.808,1.306,1.306,0,0,1-.339.886,1.541,1.541,0,0,1-1.2.391h-2.347v10.429h-2.581Z" transform="translate(-181.813 -314.221)" fill="#1d71b8"/>
      <path id="Caminho_58909" data-name="Caminho 58909" d="M289.542,349.84a10.24,10.24,0,0,1-.313,2.555,5.687,5.687,0,0,1-1.017,2.112,5.067,5.067,0,0,1-1.773,1.434,6.116,6.116,0,0,1-2.607.521,5.911,5.911,0,0,1-2.581-.521,5.217,5.217,0,0,1-1.747-1.434,6.077,6.077,0,0,1-.991-2.112,10.033,10.033,0,0,1-.313-2.529,8.615,8.615,0,0,1,.339-2.477,5.905,5.905,0,0,1,1.043-2.06,4.82,4.82,0,0,1,1.8-1.408,6.077,6.077,0,0,1,2.581-.521,5.76,5.76,0,0,1,2.529.5,4.753,4.753,0,0,1,1.721,1.382,5.612,5.612,0,0,1,.991,2.06,8.305,8.305,0,0,1,.339,2.5m-2.633,0a8.709,8.709,0,0,0-.156-1.695,4.268,4.268,0,0,0-.5-1.408,2.709,2.709,0,0,0-.913-.965,2.532,2.532,0,0,0-1.382-.365,2.688,2.688,0,0,0-2.425,1.33,4.769,4.769,0,0,0-.521,1.408,8.9,8.9,0,0,0-.156,1.695,9.181,9.181,0,0,0,.156,1.721,4.834,4.834,0,0,0,.521,1.46,2.929,2.929,0,0,0,.939,1.017,2.468,2.468,0,0,0,1.408.365,2.563,2.563,0,0,0,1.408-.365,2.462,2.462,0,0,0,.913-1.017,4.814,4.814,0,0,0,.5-1.46,6.227,6.227,0,0,0,.209-1.721" transform="translate(-211.089 -313.703)" fill="#1d71b8"/>
      <path id="Caminho_58910" data-name="Caminho 58910" d="M343.2,356.567v-1.721l6.284-8.813h-6.231v-.026c0-.13-.026-.235-.026-.339V345.3a1.35,1.35,0,0,1,.365-.913,1.541,1.541,0,0,1,1.2-.391h6.883a1.082,1.082,0,0,1,.7.182.792.792,0,0,1,.209.6v.939l-6.31,8.839h4.954a2.209,2.209,0,0,1,.756.1,1.77,1.77,0,0,1,.5.287,1.021,1.021,0,0,1,.261.417,1.477,1.477,0,0,1,.078.469v.365c0,.1-.026.209-.026.313H343.2Z" transform="translate(-259.141 -314.147)" fill="#1d71b8"/>
      <path id="Caminho_58911" data-name="Caminho 58911" d="M393.07,354.659a1.447,1.447,0,0,1,1.225.417,1.518,1.518,0,0,1,.339.913v.339c0,.1-.026.209-.026.313H386.5V344.1h7.8a2.169,2.169,0,0,1,.052.339v.339a1.308,1.308,0,0,1-.339.991,1.891,1.891,0,0,1-1.252.339h-3.676v3.077h3.963v2.008h-3.963v3.468Z" transform="translate(-291.152 -314.221)" fill="#1d71b8"/>
      <path id="Caminho_58912" data-name="Caminho 58912" d="M432.726,347.476a4.438,4.438,0,0,1-.182,1.382,3.9,3.9,0,0,1-.521,1.043,4.151,4.151,0,0,1-.756.756,3.232,3.232,0,0,1-.887.469l3.077,5.162a3.641,3.641,0,0,1-.756.235,3.921,3.921,0,0,1-.756.078,2.133,2.133,0,0,1-1.147-.287,2.873,2.873,0,0,1-.86-.965l-2.138-3.624h-1.017v4.719H424.2V343.982c.574-.052,1.147-.1,1.721-.13s1.121-.052,1.59-.052a6.888,6.888,0,0,1,3.963.913,3.2,3.2,0,0,1,1.251,2.764m-2.685.261a1.928,1.928,0,0,0-.626-1.643,2.727,2.727,0,0,0-1.695-.469,3.679,3.679,0,0,0-.574.026c-.156,0-.287.026-.417.026v4.328h.886a2.67,2.67,0,0,0,1.773-.548,2.167,2.167,0,0,0,.652-1.721" transform="translate(-319.022 -313.999)" fill="#1d71b8"/>
      <path id="Caminho_58913" data-name="Caminho 58913" d="M473.142,349.84a10.24,10.24,0,0,1-.313,2.555,5.687,5.687,0,0,1-1.017,2.112,5.067,5.067,0,0,1-1.773,1.434,6.116,6.116,0,0,1-2.607.521,5.911,5.911,0,0,1-2.581-.521,4.973,4.973,0,0,1-1.747-1.434,6.078,6.078,0,0,1-.991-2.112,10.033,10.033,0,0,1-.313-2.529,8.615,8.615,0,0,1,.339-2.477,5.906,5.906,0,0,1,1.043-2.06,4.821,4.821,0,0,1,1.8-1.408,6.077,6.077,0,0,1,2.581-.521,5.76,5.76,0,0,1,2.529.5,4.753,4.753,0,0,1,1.721,1.382,5.612,5.612,0,0,1,.991,2.06,8.305,8.305,0,0,1,.339,2.5m-2.633,0a8.707,8.707,0,0,0-.156-1.695,4.268,4.268,0,0,0-.5-1.408,2.71,2.71,0,0,0-.913-.965,2.532,2.532,0,0,0-1.382-.365,2.688,2.688,0,0,0-2.425,1.33,4.769,4.769,0,0,0-.521,1.408,8.908,8.908,0,0,0-.156,1.695,9.187,9.187,0,0,0,.156,1.721,4.833,4.833,0,0,0,.521,1.46,2.93,2.93,0,0,0,.939,1.017,2.5,2.5,0,0,0,1.434.365,2.626,2.626,0,0,0,1.408-.365,2.463,2.463,0,0,0,.913-1.017,4.818,4.818,0,0,0,.5-1.46,7.409,7.409,0,0,0,.182-1.721" transform="translate(-346.819 -313.703)" fill="#1d71b8"/>
    </g>
  </g>
</svg>
