<svg xmlns="http://www.w3.org/2000/svg" width="254.417" height="48" viewBox="0 0 254.417 48">
  <g id="european-flax-vector-logo" transform="translate(-20 -265)">
    <path id="Caminho_58556" data-name="Caminho 58556" d="M159.1,344.7h4.325a3.068,3.068,0,0,1,2.078.678,2.309,2.309,0,0,1,.763,1.866,2.493,2.493,0,0,1-.721,1.823,2.575,2.575,0,0,1-2.12.806h-3.011v3.774H159.1V344.7m5.088,1.23a2.975,2.975,0,0,0-1.187-.212h-2.587v3.1H163a2.622,2.622,0,0,0,1.4-.339,1.372,1.372,0,0,0,.551-1.23,1.3,1.3,0,0,0-.763-1.314" transform="translate(-80.118 -45.905)" fill="#6a8922" fill-rule="evenodd"/>
    <path id="Caminho_58557" data-name="Caminho 58557" d="M179.6,350.17h1.1v1.1a2.548,2.548,0,0,1,.678-.763,1.873,1.873,0,0,1,1.187-.509l.127.042h.3v1.187l-.212-.042h-.212a1.739,1.739,0,0,0-1.823,1.781V356.7H179.6v-6.53" transform="translate(-91.925 -48.958)" fill="#6a8922" fill-rule="evenodd"/>
    <path id="Caminho_58558" data-name="Caminho 58558" d="M193.807,350.339a2.688,2.688,0,0,1,1.06.848,2.274,2.274,0,0,1,.466,1.145,10.34,10.34,0,0,1,.085,1.442H190.33a2.445,2.445,0,0,0,.509,1.611,1.705,1.705,0,0,0,1.442.594,2.046,2.046,0,0,0,1.484-.594,1.7,1.7,0,0,0,.424-.763h1.187a2.714,2.714,0,0,1-.3.806l-.594.721a2.552,2.552,0,0,1-1.314.636,3.2,3.2,0,0,1-.975.127,2.983,2.983,0,0,1-2.2-.933,3.3,3.3,0,0,1-.89-2.459,3.65,3.65,0,0,1,.89-2.544,3.225,3.225,0,0,1,2.417-.975,4.221,4.221,0,0,1,1.4.339m.466,2.587a4.368,4.368,0,0,0-.339-1.187,1.72,1.72,0,0,0-1.611-.763,1.791,1.791,0,0,0-1.357.551,1.944,1.944,0,0,0-.594,1.4Z" transform="translate(-97.397 -48.958)" fill="#6a8922" fill-rule="evenodd"/>
    <path id="Caminho_58559" data-name="Caminho 58559" d="M207.442,350.17h1.145v.933a5.566,5.566,0,0,1,.763-.721,2.381,2.381,0,0,1,1.314-.382,2.237,2.237,0,0,1,1.357.382,2.076,2.076,0,0,1,.509.636,1.8,1.8,0,0,1,.933-.763,2.582,2.582,0,0,1,1.187-.254,1.906,1.906,0,0,1,1.908.975,3.062,3.062,0,0,1,.3,1.357V356.7h-1.23v-4.537a1.087,1.087,0,0,0-.339-.89,1.433,1.433,0,0,0-.848-.254,2.052,2.052,0,0,0-1.23.424,1.9,1.9,0,0,0-.509,1.484v3.816h-1.187v-4.283a1.909,1.909,0,0,0-.17-.975,1.127,1.127,0,0,0-1.018-.466,1.741,1.741,0,0,0-1.187.466,2.36,2.36,0,0,0-.551,1.739V356.7H207.4v-6.53" transform="translate(-107.937 -48.958)" fill="#6a8922" fill-rule="evenodd"/>
    <path id="Caminho_58560" data-name="Caminho 58560" d="M233.7,347.159h1.187v6.488H233.7Zm0-2.459h1.187v1.23H233.7Z" transform="translate(-123.085 -45.905)" fill="#6a8922" fill-rule="evenodd"/>
    <path id="Caminho_58561" data-name="Caminho 58561" d="M241.73,350.342v4.325a1.614,1.614,0,0,0,.17.806,1.138,1.138,0,0,0,1.145.594,1.61,1.61,0,0,0,1.654-1.018,4.535,4.535,0,0,0,.254-1.527v-3.18H246.1v6.53h-1.1V355.9l-.551.636a2.525,2.525,0,0,1-1.611.509,2.164,2.164,0,0,1-2.035-.933,3.062,3.062,0,0,1-.3-1.357V350.3h1.23" transform="translate(-127.002 -49.13)" fill="#6a8922" fill-rule="evenodd"/>
    <path id="Caminho_58562" data-name="Caminho 58562" d="M258.085,350.17h1.145v.933a3.821,3.821,0,0,1,.721-.721,2.421,2.421,0,0,1,1.357-.382,1.956,1.956,0,0,1,1.866,1.018,1.886,1.886,0,0,1,.89-.763,2.709,2.709,0,0,1,1.187-.254,1.906,1.906,0,0,1,1.908.975,2.593,2.593,0,0,1,.254,1.357V356.7h-1.23v-4.537a.973.973,0,0,0-.339-.89,1.433,1.433,0,0,0-.848-.254,1.928,1.928,0,0,0-1.187.424,1.9,1.9,0,0,0-.509,1.484v3.816h-1.187v-4.283a1.909,1.909,0,0,0-.17-.975,1.05,1.05,0,0,0-.975-.466,1.932,1.932,0,0,0-1.23.466,2.194,2.194,0,0,0-.551,1.739V356.7H258v-6.53" transform="translate(-137.081 -48.958)" fill="#6a8922" fill-rule="evenodd"/>
    <rect id="Ret창ngulo_5083" data-name="Ret창ngulo 5083" width="1.187" height="8.947" transform="translate(135.845 298.795)" fill="#6a8922"/>
    <path id="Caminho_58563" data-name="Caminho 58563" d="M300.1,347.159h1.187v6.488H300.1Zm0-2.459h1.187v1.23H300.1Z" transform="translate(-161.33 -45.905)" fill="#6a8922" fill-rule="evenodd"/>
    <path id="Caminho_58564" data-name="Caminho 58564" d="M307.1,350.227h1.1v.933a2.52,2.52,0,0,1,1.06-.806,3.041,3.041,0,0,1,1.23-.254,2,2,0,0,1,1.993.975,3.051,3.051,0,0,1,.3,1.526v4.2h-1.187v-4.113a2.884,2.884,0,0,0-.17-.975,1.32,1.32,0,0,0-1.145-.636,1.487,1.487,0,0,0-.678.127,1.585,1.585,0,0,0-.848.509l-.382.678a5.955,5.955,0,0,0-.085.975V356.8H307.1v-6.572" transform="translate(-165.361 -49.015)" fill="#6a8922" fill-rule="evenodd"/>
    <path id="Caminho_58565" data-name="Caminho 58565" d="M328.449,350.339a2.688,2.688,0,0,1,1.06.848,3.5,3.5,0,0,1,.509,1.145,10.339,10.339,0,0,1,.085,1.442h-5.131a3.026,3.026,0,0,0,.509,1.611,1.852,1.852,0,0,0,1.484.594,1.949,1.949,0,0,0,1.442-.594,1.7,1.7,0,0,0,.424-.763h1.145a2.714,2.714,0,0,1-.3.806l-.594.721a2.552,2.552,0,0,1-1.314.636,3.613,3.613,0,0,1-.975.127,2.918,2.918,0,0,1-2.2-.933,3.3,3.3,0,0,1-.89-2.459,3.56,3.56,0,0,1,.933-2.544,3.13,3.13,0,0,1,2.375-.975,4.215,4.215,0,0,1,1.442.339m.424,2.587a2.6,2.6,0,0,0-.339-1.187,2.02,2.02,0,0,0-2.968-.212,1.944,1.944,0,0,0-.594,1.4Z" transform="translate(-174.923 -48.958)" fill="#6a8922" fill-rule="evenodd"/>
    <path id="Caminho_58566" data-name="Caminho 58566" d="M342.1,350.227h1.1v.933a2.1,2.1,0,0,1,1.06-.806,3.042,3.042,0,0,1,1.23-.254,2,2,0,0,1,1.993.975,3.051,3.051,0,0,1,.3,1.526v4.2h-1.187v-4.113a2.884,2.884,0,0,0-.17-.975,1.32,1.32,0,0,0-1.145-.636,1.487,1.487,0,0,0-.678.127,1.76,1.76,0,0,0-.848.509l-.382.678a3.335,3.335,0,0,0-.085.975V356.8H342.1v-6.572" transform="translate(-185.521 -49.015)" fill="#6a8922" fill-rule="evenodd"/>
    <path id="Caminho_58567" data-name="Caminho 58567" d="M368.03,344.951a1.9,1.9,0,0,1,1.611-.551h.466v1.018h-.424q-.509,0-.636.254a4.55,4.55,0,0,0-.085,1.314h1.145v.89H368.92v5.64h-1.145v-5.64H366.8v-.89h.975v-1.06a1.575,1.575,0,0,1,.254-.975" transform="translate(-199.747 -45.732)" fill="#6a8922" fill-rule="evenodd"/>
    <path id="Caminho_58568" data-name="Caminho 58568" d="M377.1,347.159h1.187v6.488H377.1Zm0-2.459h1.187v1.23H377.1Z" transform="translate(-205.68 -45.905)" fill="#6a8922" fill-rule="evenodd"/>
    <path id="Caminho_58569" data-name="Caminho 58569" d="M383.9,344.6h1.145v3.265a2.629,2.629,0,0,1,.933-.721,2.525,2.525,0,0,1,1.145-.254,2.841,2.841,0,0,1,2.12.848,3.31,3.31,0,0,1,.806,2.459,4.271,4.271,0,0,1-.806,2.587,2.678,2.678,0,0,1-2.2,1.018,2.345,2.345,0,0,1-2.035-1.06v.848h-1.1V344.6m4.452,7.505a3.367,3.367,0,0,0,.466-1.866,2.969,2.969,0,0,0-.466-1.7,1.57,1.57,0,0,0-1.4-.678,1.856,1.856,0,0,0-1.357.551,2.32,2.32,0,0,0-.636,1.823,4.791,4.791,0,0,0,.212,1.484,1.768,1.768,0,0,0,1.739,1.1,1.539,1.539,0,0,0,1.442-.721" transform="translate(-209.596 -45.847)" fill="#6a8922" fill-rule="evenodd"/>
    <path id="Caminho_58570" data-name="Caminho 58570" d="M405.449,350.339a2.688,2.688,0,0,1,1.06.848,2.274,2.274,0,0,1,.466,1.145,5.719,5.719,0,0,1,.127,1.442h-5.131a2.7,2.7,0,0,0,.509,1.611,1.761,1.761,0,0,0,1.442.594,1.978,1.978,0,0,0,1.484-.594,1.7,1.7,0,0,0,.424-.763h1.145a2.715,2.715,0,0,1-.3.806l-.594.721a2.552,2.552,0,0,1-1.314.636,3.2,3.2,0,0,1-.975.127,2.918,2.918,0,0,1-2.2-.933,3.3,3.3,0,0,1-.89-2.459,3.943,3.943,0,0,1,.89-2.544,3.13,3.13,0,0,1,2.375-.975,4.7,4.7,0,0,1,1.484.339m.424,2.587a3.252,3.252,0,0,0-.339-1.187,1.692,1.692,0,0,0-1.569-.763,1.73,1.73,0,0,0-1.357.551,1.944,1.944,0,0,0-.594,1.4Z" transform="translate(-219.272 -48.958)" fill="#6a8922" fill-rule="evenodd"/>
    <path id="Caminho_58571" data-name="Caminho 58571" d="M419.2,350.17h1.1v1.1a2.057,2.057,0,0,1,.678-.763,1.889,1.889,0,0,1,1.23-.509l.127.042h.254v1.187l-.17-.042h-.212a1.672,1.672,0,0,0-1.357.551,1.847,1.847,0,0,0-.466,1.23V356.7H419.2v-6.53" transform="translate(-229.928 -48.958)" fill="#6a8922" fill-rule="evenodd"/>
    <path id="Caminho_58572" data-name="Caminho 58572" d="M263.7,295.7a7.234,7.234,0,0,1,.975-3.519,6.4,6.4,0,0,1,2.714-2.587,8.949,8.949,0,0,1,3.9-.89,7.822,7.822,0,0,1,5.47,1.993,6.842,6.842,0,0,1,2.12,5.131A6.936,6.936,0,0,1,276.76,301a7.6,7.6,0,0,1-5.385,2.035,9.112,9.112,0,0,1-3.816-.848,5.973,5.973,0,0,1-2.8-2.5,6.9,6.9,0,0,1-1.06-3.986m3.986.212a4.435,4.435,0,0,0,1.018,3.138,3.434,3.434,0,0,0,2.544,1.1,3.368,3.368,0,0,0,2.544-1.1,4.435,4.435,0,0,0,1.018-3.138,4.324,4.324,0,0,0-1.018-3.1,3.33,3.33,0,0,0-2.544-1.06,3.559,3.559,0,0,0-2.544,1.06,4.255,4.255,0,0,0-1.018,3.1" transform="translate(-140.364 -13.651)" fill="#6a8922" fill-rule="evenodd"/>
    <path id="Caminho_58573" data-name="Caminho 58573" d="M303.4,289.2h3.647v1.993a5.54,5.54,0,0,1,4.579-2.29,5.9,5.9,0,0,1,4.367,1.866,8.7,8.7,0,0,1-.042,10.6,5.722,5.722,0,0,1-4.367,1.908,5.4,5.4,0,0,1-2.2-.466,7.608,7.608,0,0,1-2.078-1.569v6.912h-3.9V289.2m3.859,6.657a5.11,5.11,0,0,0,.975,3.435,3.165,3.165,0,0,0,2.417,1.1,2.879,2.879,0,0,0,2.247-1.018,5.031,5.031,0,0,0,.89-3.35,4.719,4.719,0,0,0-.933-3.223,2.813,2.813,0,0,0-2.29-1.06,3.183,3.183,0,0,0-2.375,1.06,4.387,4.387,0,0,0-.933,3.053" transform="translate(-163.23 -13.766)" fill="#6a8922" fill-rule="evenodd"/>
    <path id="Caminho_58574" data-name="Caminho 58574" d="M472.9,296.478V277.1h13.908v3.689h-9.8v4.495h8.438v3.18h-8.438v8.014Z" transform="translate(-260.858 -6.969)" fill="#6a8922" fill-rule="evenodd"/>
    <path id="Caminho_58575" data-name="Caminho 58575" d="M158.9,297.112V278.2h14.968v3.18H163.013v4.2h10.134v3.18H163.013v5.173H174.25v3.18Z" transform="translate(-80.002 -7.603)" fill="#6a8922" fill-rule="evenodd"/>
    <path id="Caminho_58576" data-name="Caminho 58576" d="M210.51,304.254v-2.035a5.717,5.717,0,0,1-2.12,1.739,5.647,5.647,0,0,1-2.756.678,5.342,5.342,0,0,1-2.629-.594,3.471,3.471,0,0,1-1.7-1.7,6.72,6.72,0,0,1-.509-3.053V290.6h3.859v6.318a18.2,18.2,0,0,0,.212,3.562,2.077,2.077,0,0,0,.763,1.06,2.611,2.611,0,0,0,1.442.382,3.135,3.135,0,0,0,1.781-.509,2.345,2.345,0,0,0,1.06-1.272,13.049,13.049,0,0,0,.3-3.731V290.6h3.859v13.739H210.51" transform="translate(-104.136 -14.745)" fill="#6a8922" fill-rule="evenodd"/>
    <path id="Caminho_58577" data-name="Caminho 58577" d="M432.539,303.259h-3.986v-7.208a10.67,10.67,0,0,0-.254-2.968,2.228,2.228,0,0,0-.806-1.06,2.853,2.853,0,0,0-1.4-.382,3.123,3.123,0,0,0-1.866.551,2.651,2.651,0,0,0-1.145,1.4,11.306,11.306,0,0,0-.3,3.223v6.4H418.8V289.1h3.647v2.078a6.305,6.305,0,0,1,5-2.375,7.214,7.214,0,0,1,2.417.424,4.1,4.1,0,0,1,1.654,1.145,3.621,3.621,0,0,1,.763,1.569,9.941,9.941,0,0,1,.212,2.5v8.82" transform="translate(-229.698 -13.708)" fill="#6a8922" fill-rule="evenodd"/>
    <path id="Caminho_58578" data-name="Caminho 58578" d="M518.364,296.236v-2.163l-1.018.042h-.339c-1.145,0-1.7-.721-1.7-2.078V276.9H512.3v15.223c0,2.926,1.315,4.367,3.943,4.367a7.428,7.428,0,0,0,2.12-.254" transform="translate(-283.551 -6.854)" fill="#6a8922" fill-rule="evenodd"/>
    <path id="Caminho_58579" data-name="Caminho 58579" d="M351.468,298.568h3.859c-.509,1.357-1.272,2.968-2.375,3.647a7.382,7.382,0,0,1-4.028,1.06,6.858,6.858,0,0,1-5.682-2.375,7.332,7.332,0,0,1-1.442-4.707,7.223,7.223,0,0,1,1.908-5.343A6.42,6.42,0,0,1,348.5,288.9a6.613,6.613,0,0,1,5.131,2.035c1.272,1.357,1.866,3.435,1.823,6.191h-9.668a3.533,3.533,0,0,0,.933,2.5,3.04,3.04,0,0,0,2.2.89,2.607,2.607,0,0,0,1.526-.466,2.307,2.307,0,0,0,1.018-1.484m.212-3.647a3.3,3.3,0,0,0-.89-2.417,2.691,2.691,0,0,0-1.993-.848,2.92,2.92,0,0,0-2.078.89,3.188,3.188,0,0,0-.806,2.332h5.767Z" transform="translate(-185.348 -13.766)" fill="#6a8922" fill-rule="evenodd"/>
    <path id="Caminho_58580" data-name="Caminho 58580" d="M387.113,301.409a6.826,6.826,0,0,1-2.12,1.4,6.441,6.441,0,0,1-2.417.424,5.286,5.286,0,0,1-3.562-1.145A3.774,3.774,0,0,1,377.7,299.2a3.51,3.51,0,0,1,.594-2.078,3.858,3.858,0,0,1,1.654-1.4,13.383,13.383,0,0,1,3.053-.806,28.1,28.1,0,0,0,3.774-.89v-.382a1.928,1.928,0,0,0-.551-1.526,3.617,3.617,0,0,0-2.078-.424,2.922,2.922,0,0,0-1.611.382,2.644,2.644,0,0,0-.933,1.357h-3.519a4.449,4.449,0,0,1,2.035-3.562,7.8,7.8,0,0,1,4.283-.975,10.778,10.778,0,0,1,3.859.551,3.949,3.949,0,0,1,1.781,1.484,7.278,7.278,0,0,1,.509,3.265l-.042,4.24v.806a1.811,1.811,0,0,0,.466,1.484.753.753,0,0,0,.721.212h1.018v2.29a8.465,8.465,0,0,1-2.671.17,4.127,4.127,0,0,1-1.823-.424,2.4,2.4,0,0,1-1.1-1.569m-.3-5.046c-.509.127-1.272.339-2.332.551a7.5,7.5,0,0,0-2.12.636,1.5,1.5,0,0,0-.763,1.272,1.745,1.745,0,0,0,.594,1.357,2.116,2.116,0,0,0,1.526.551,3.574,3.574,0,0,0,1.993-.636,2.491,2.491,0,0,0,.933-1.187,7.7,7.7,0,0,0,.127-1.739v-.806Z" transform="translate(-206.025 -13.766)" fill="#6a8922" fill-rule="evenodd"/>
    <path id="Caminho_58581" data-name="Caminho 58581" d="M538.113,301.409a7.974,7.974,0,0,1-2.12,1.4,6.594,6.594,0,0,1-2.417.424,5.327,5.327,0,0,1-3.6-1.145A3.734,3.734,0,0,1,528.7,299.2a3.84,3.84,0,0,1,.594-2.078,4.123,4.123,0,0,1,1.654-1.4,13.851,13.851,0,0,1,3.1-.806,27.037,27.037,0,0,0,3.731-.89v-.382a1.928,1.928,0,0,0-.551-1.526,3.528,3.528,0,0,0-2.078-.424,2.735,2.735,0,0,0-1.611.382,2.645,2.645,0,0,0-.933,1.357h-3.477a4.449,4.449,0,0,1,2.035-3.562,7.7,7.7,0,0,1,4.283-.975,11.045,11.045,0,0,1,3.9.551,3.734,3.734,0,0,1,1.781,1.484,6.719,6.719,0,0,1,.509,3.265l-.042,4.24v.806c0,.806.127,1.23.424,1.484.3.3.509.212.763.212h.975v2.29a8.465,8.465,0,0,1-2.671.17,4.127,4.127,0,0,1-1.823-.424,2.311,2.311,0,0,1-1.145-1.569m-.339-5.046c-.509.127-1.272.339-2.332.551a7.5,7.5,0,0,0-2.12.636,1.5,1.5,0,0,0-.763,1.272,1.745,1.745,0,0,0,.594,1.357,2.116,2.116,0,0,0,1.526.551,3.474,3.474,0,0,0,1.993-.636,2.069,2.069,0,0,0,.933-1.187,7.7,7.7,0,0,0,.127-1.739v-.806Z" transform="translate(-292.997 -13.766)" fill="#6a8922" fill-rule="evenodd"/>
    <path id="Caminho_58582" data-name="Caminho 58582" d="M242.859,304.2H239V290.5h3.562v1.951a4.937,4.937,0,0,1,1.823-1.442,3.254,3.254,0,0,1,1.7-.424,4.188,4.188,0,0,1,2.375.339v2.756a7.383,7.383,0,0,0-2.8-.424,3.4,3.4,0,0,0-1.611.636,4.5,4.5,0,0,0-1.187,1.781,25.294,25.294,0,0,0-.042,4.325v4.2" transform="translate(-126.138 -14.687)" fill="#6a8922" fill-rule="evenodd"/>
    <path id="Caminho_58583" data-name="Caminho 58583" d="M566.7,303.275l5.512-7.42-5.3-6.954h4.961l2.714,3.986,2.883-3.986h4.749L577,295.727l5.682,7.548h-4.961l-3.138-4.41-3.138,4.41Z" transform="translate(-314.884 -13.766)" fill="#6a8922" fill-rule="evenodd"/>
    <path id="Caminho_58584" data-name="Caminho 58584" d="M609.89,314.89a1.687,1.687,0,0,0-.594,1.357,1.745,1.745,0,0,0,.594,1.357,1.917,1.917,0,0,0,1.442.551,2.26,2.26,0,0,0,1.442-.551,1.829,1.829,0,0,0,.594-1.357,1.9,1.9,0,0,0-.594-1.357,2.161,2.161,0,0,0-2.883,0m3.138,2.883a2.377,2.377,0,0,1-1.654.636,2.407,2.407,0,0,1-1.7-.636A2,2,0,0,1,609,316.2a2.123,2.123,0,0,1,.678-1.569,2.523,2.523,0,0,1,3.35,0,2.079,2.079,0,0,1,.636,1.569,2.11,2.11,0,0,1-.636,1.569m-1.23-2.417-.551-.085h-.382v.89h.424l.466-.042.254-.382-.212-.382m-.509-.339a2.4,2.4,0,0,1,.678.085.616.616,0,0,1,.424.636l-.254.466-.382.127.466.254.127.382v.466h-.382v-.3c0-.3-.085-.466-.254-.551l-.509-.085h-.382v.975H610.4V315.06h.891Z" transform="translate(-339.247 -28.223)" fill="#6a8922" fill-rule="evenodd"/>
    <rect id="Ret창ngulo_5084" data-name="Ret창ngulo 5084" width="51.943" height="48" transform="translate(20 265)" fill="#6a8922"/>
    <path id="Caminho_58585" data-name="Caminho 58585" d="M34.808,286.658s-1.1,18.276.509,30.4h1.018a206.159,206.159,0,0,1-.551-30.572s1.23-.127,1.314-2.2c0,0-.042-.551.3-.763,0,0-.678-.466-1.145,0,0,0,.085-.551-.636-.975,0,0-.509-.085-.509-1.145a4.672,4.672,0,0,1-.339,1.145c-.212.382-.763.466-.721,1.484a1.009,1.009,0,0,0-1.145.127.68.68,0,0,1,.594.594,1.954,1.954,0,0,0,1.314,1.908" transform="translate(-7.43 -9.446)" fill="#fff" fill-rule="evenodd"/>
    <path id="Caminho_58586" data-name="Caminho 58586" d="M47.6,331.23c.042-.339.042-19.76.042-20.1,0,0,1.23-.127,1.314-2.2,0,0-.042-.551.3-.763,0,0-.678-.466-1.145-.042,0,0,.085-.551-.636-.975,0,0-.509-.085-.509-1.145a3.271,3.271,0,0,1-.339,1.145c-.212.382-.806.509-.721,1.484a.891.891,0,0,0-1.1.085.693.693,0,0,1,.594.636s.042,1.569,1.357,1.908c0,0,.042,19.463,0,19.972H47.6" transform="translate(-14.284 -23.615)" fill="#fff" fill-rule="evenodd"/>
    <path id="Caminho_58587" data-name="Caminho 58587" d="M58.687,279.116s1.314,20.057.127,33.625H57.8a324.184,324.184,0,0,0-.085-33.753s-1.23-.127-1.314-2.2c0,0,.085-.551-.3-.763,0,0,.678-.466,1.145,0,0,0-.085-.551.636-.975,0,0,.509-.085.509-1.145a3.423,3.423,0,0,0,.382,1.145c.17.382.763.509.721,1.442a1,1,0,0,1,1.145.127.68.68,0,0,0-.594.594c-.042,0-.042,1.569-1.357,1.908" transform="translate(-20.793 -5.126)" fill="#fff" fill-rule="evenodd"/>
    <path id="Caminho_58588" data-name="Caminho 58588" d="M70.151,301.058a178.919,178.919,0,0,0,.424,24.3h1.018a185.824,185.824,0,0,1-.509-24.466s1.23-.127,1.272-2.2c0,0-.042-.551.3-.763,0,0-.636-.466-1.1,0,0,0,.085-.551-.636-.975,0,0-.509-.085-.509-1.145a3.423,3.423,0,0,1-.382,1.145c-.17.382-.763.509-.721,1.442a.935.935,0,0,0-1.1.127.635.635,0,0,1,.551.636c.042,0,.042,1.569,1.4,1.908" transform="translate(-27.762 -17.74)" fill="#fff" fill-rule="evenodd"/>
    <path id="Caminho_58589" data-name="Caminho 58589" d="M83.544,286.658s1.1,18.276-.509,30.4H82.018a206.158,206.158,0,0,0,.551-30.572s-1.23-.127-1.272-2.2c0,0,.042-.551-.3-.763,0,0,.678-.466,1.145,0,0,0-.085-.551.678-.975,0,0,.509-.085.509-1.145a4.672,4.672,0,0,0,.339,1.145c.212.382.763.466.721,1.484a.935.935,0,0,1,1.1.127.575.575,0,0,0-.551.594c-.042-.042-.042,1.569-1.4,1.908" transform="translate(-35.134 -9.446)" fill="#fff" fill-rule="evenodd"/>
    <path id="Caminho_58590" data-name="Caminho 58590" d="M96.083,327.371c0-.339.042-22.643.042-22.982,0,0,1.23-.127,1.314-2.2,0,0-.042-.594.254-.763a.88.88,0,0,0-1.145,0s.085-.551-.636-.975c0,0-.509-.085-.509-1.145a3.745,3.745,0,0,1-.382,1.145c-.212.382-.763.466-.721,1.484a.891.891,0,0,0-1.1.085.635.635,0,0,1,.551.636,1.988,1.988,0,0,0,1.357,1.908v22.813h.975" transform="translate(-42.161 -19.756)" fill="#fff" fill-rule="evenodd"/>
    <path id="Caminho_58591" data-name="Caminho 58591" d="M108.051,283.016s-.763,18.4.382,31.972h1.018a221,221,0,0,1-.424-32.141s1.23-.127,1.314-2.2c0,0-.042-.551.254-.763,0,0-.678-.466-1.145,0,0,0,.085-.551-.636-.975,0,0-.509-.085-.509-1.1a3.3,3.3,0,0,1-.382,1.1c-.17.382-.763.509-.721,1.484a.863.863,0,0,0-1.1.127.627.627,0,0,1,.594.594c0-.042.042,1.569,1.357,1.908" transform="translate(-49.591 -7.372)" fill="#fff" fill-rule="evenodd"/>
    <path id="Caminho_58592" data-name="Caminho 58592" d="M120.6,301.373a169.66,169.66,0,0,1-.424,24.212H119.16a183.6,183.6,0,0,0,.509-24.339s-1.23-.127-1.314-2.2c0,0,.042-.551-.254-.763,0,0,.678-.466,1.145,0,0,0-.085-.551.636-.975,0,0,.509-.085.509-1.1a4.061,4.061,0,0,0,.339,1.1c.17.382.763.509.721,1.484a.891.891,0,0,1,1.1.085.68.68,0,0,0-.594.594s-.042,1.569-1.357,1.908" transform="translate(-56.503 -17.97)" fill="#fff" fill-rule="evenodd"/>
  </g>
</svg>
