<svg id="Grupo_15395" data-name="Grupo 15395" xmlns="http://www.w3.org/2000/svg" xmlns:xlink="http://www.w3.org/1999/xlink" width="106.692" height="68" viewBox="0 0 106.692 68">
  <defs>
    <clipPath id="clip-path">
      <rect id="Retângulo_5085" data-name="Retângulo 5085" width="106.692" height="68" fill="none"/>
    </clipPath>
  </defs>
  <g id="Grupo_15394" data-name="Grupo 15394" clip-path="url(#clip-path)">
    <path id="Caminho_58593" data-name="Caminho 58593" d="M186.367,650.647a.292.292,0,0,1,.49-.2c.107.086.1.232.1.356q0,1.91,0,3.821a2.9,2.9,0,0,1-.06.843c-.131.019-.279.1-.4.012-.154-.067-.12-.269-.138-.4a1.268,1.268,0,0,1-1.893.056,2.188,2.188,0,0,1-.429-2.075,1.5,1.5,0,0,1,1.214-1.127,1.24,1.24,0,0,1,1.122.442c-.017-.573-.017-1.148,0-1.72m-1.193,1.841a1,1,0,0,0-.573.718,1.768,1.768,0,0,0,.236,1.5.847.847,0,0,0,1.293-.017,1.785,1.785,0,0,0,.095-1.806.856.856,0,0,0-1.05-.394" transform="translate(-168.683 -596.402)" fill="#2d2b30"/>
    <path id="Caminho_58594" data-name="Caminho 58594" d="M535.773,650.7c-.034-.318.486-.387.563-.091.032.86-.014,1.722.022,2.581.442-.378.883-.761,1.334-1.128.141-.159.473-.13.48.118.047.2-.136.3-.261.412-.391.308-.776.623-1.172.925.491.5.995,1,1.491,1.5a.358.358,0,0,1,.086.487.362.362,0,0,1-.5-.077q-.738-.774-1.47-1.552c-.012.49.01.982-.011,1.474-.017.3-.558.3-.563-.013-.011-1.543-.008-3.088,0-4.631" transform="translate(-491.311 -596.451)" fill="#2d2b30"/>
    <path id="Caminho_58595" data-name="Caminho 58595" d="M954.645,650.625a.3.3,0,0,1,.574.072c.012,1.523,0,3.047,0,4.57a.3.3,0,0,1-.483.257c-.123-.08-.1-.236-.123-.359a1.3,1.3,0,0,1-1.884.025,2.173,2.173,0,0,1-.447-2.023,1.508,1.508,0,0,1,1.2-1.177,1.263,1.263,0,0,1,1.139.413c.007-.593-.03-1.189.017-1.78m-1.292,1.964a1.289,1.289,0,0,0-.551,1.106,1.468,1.468,0,0,0,.416,1.176.838.838,0,0,0,1.129-.062,1.676,1.676,0,0,0-.043-2.1.862.862,0,0,0-.951-.116" transform="translate(-873.201 -596.464)" fill="#2d2b30"/>
    <path id="Caminho_58596" data-name="Caminho 58596" d="M1069.219,650.607c.072-.316.607-.224.576.1.014,1.512.011,3.025,0,4.537a.3.3,0,0,1-.456.28c-.168-.068-.125-.282-.133-.425a1.273,1.273,0,0,1-1.968,0,2.175,2.175,0,0,1-.033-2.642,1.3,1.3,0,0,1,2.009-.046c-.012-.6-.026-1.2,0-1.8m-1.271,1.95a1.555,1.555,0,0,0-.453,1.874.866.866,0,0,0,1.08.568,1.148,1.148,0,0,0,.679-1.093,1.612,1.612,0,0,0-.324-1.167.857.857,0,0,0-.982-.182" transform="translate(-978.259 -596.444)" fill="#2d2b30"/>
    <path id="Caminho_58597" data-name="Caminho 58597" d="M229.929,654.693a.368.368,0,1,1-.074.584.382.382,0,0,1,.074-.584" transform="translate(-210.687 -600.322)" fill="#2d2b30"/>
    <path id="Caminho_58598" data-name="Caminho 58598" d="M438.066,654.724a1.942,1.942,0,0,1,1.808.522,2.692,2.692,0,0,1,.664,2,2.509,2.509,0,0,1-.8,1.787,1.945,1.945,0,0,1-3.073-.835,2.994,2.994,0,0,1,.1-2.459,1.907,1.907,0,0,1,1.3-1.011m.1.516a1.382,1.382,0,0,0-.958,1.007,2.6,2.6,0,0,0,.277,2.21,1.293,1.293,0,0,0,1.943.1,2.345,2.345,0,0,0,.474-1.719,1.985,1.985,0,0,0-.548-1.317,1.282,1.282,0,0,0-1.188-.283" transform="translate(-400.235 -600.354)" fill="#2d2b30"/>
    <path id="Caminho_58599" data-name="Caminho 58599" d="M746.41,654.549a1.534,1.534,0,0,1,1.383.29,1.568,1.568,0,0,1,.481,1.728,1.542,1.542,0,0,1-2.985-.312,1.564,1.564,0,0,1,1.12-1.707m.085.338a1.23,1.23,0,0,0-.819,1.431,1.21,1.21,0,0,0,1.188.946,1.223,1.223,0,0,0,1.112-1.427,1.19,1.19,0,0,0-1.481-.95" transform="translate(-683.434 -600.184)" fill="#2d2b30"/>
    <path id="Caminho_58600" data-name="Caminho 58600" d="M803.535,654.743a1.784,1.784,0,0,1,1.357.209c.168.09.272.348.109.491-.145.179-.363.016-.513-.065a.909.909,0,0,0-1.147.073.6.6,0,0,0,.09.895c.574.378,1.395.387,1.8,1.011a1.461,1.461,0,0,1-.566,1.918,2.084,2.084,0,0,1-2-.093c-.239-.125-.221-.579.086-.584.4.136.782.466,1.241.349a.908.908,0,0,0,.691-1.23c-.253-.4-.759-.468-1.162-.635a1.276,1.276,0,0,1-.948-.9,1.252,1.252,0,0,1,.962-1.436" transform="translate(-735.913 -600.367)" fill="#2d2b30"/>
    <path id="Caminho_58601" data-name="Caminho 58601" d="M1156.481,654.725a1.192,1.192,0,0,1,1.148.278,2.125,2.125,0,0,1,.6,1.076,4.179,4.179,0,0,1-.05,2.165,1.784,1.784,0,0,1-.871,1.115,1.234,1.234,0,0,1-1.344-.218,2.577,2.577,0,0,1-.695-1.732,3.5,3.5,0,0,1,.388-2.021,1.381,1.381,0,0,1,.822-.663m.163.5a.981.981,0,0,0-.584.662,4.374,4.374,0,0,0-.143,1.708,1.757,1.757,0,0,0,.525,1.239.63.63,0,0,0,.865-.129,2.451,2.451,0,0,0,.4-1.449,3.117,3.117,0,0,0-.326-1.7.677.677,0,0,0-.74-.332" transform="translate(-1059.402 -600.353)" fill="#2d2b30"/>
    <path id="Caminho_58602" data-name="Caminho 58602" d="M1202.08,654.733a1.258,1.258,0,0,1,1.368.436,2.925,2.925,0,0,1,.542,1.825,2.958,2.958,0,0,1-.587,2.029,1.25,1.25,0,0,1-1.188.419,1.486,1.486,0,0,1-1.006-.865,4,4,0,0,1-.237-2.249,1.926,1.926,0,0,1,1.109-1.595m.169.5a1.032,1.032,0,0,0-.564.723,4.494,4.494,0,0,0-.088,1.855,1.475,1.475,0,0,0,.556,1.055.653.653,0,0,0,.863-.244,2.678,2.678,0,0,0,.348-1.367,3.355,3.355,0,0,0-.285-1.633.688.688,0,0,0-.831-.388" transform="translate(-1101.266 -600.349)" fill="#2d2b30"/>
    <path id="Caminho_58603" data-name="Caminho 58603" d="M633.865,655.727c-.227-.1-.184-.529.085-.533.8-.018,1.6-.01,2.407,0,.3-.03.348.479.075.541-.323.024-.646,0-.968.008-.008,1.294,0,2.589-.005,3.883a.291.291,0,0,1-.4.3c-.168-.034-.205-.232-.2-.376q0-1.9,0-3.8c-.333,0-.666.019-1-.012" transform="translate(-581.135 -600.819)" fill="#2d2b30"/>
    <path id="Caminho_58604" data-name="Caminho 58604" d="M1128.419,655.665a.259.259,0,0,1,0-.5,8.926,8.926,0,0,1,1.246.017c-.008,1.5.006,3-.007,4.5-.028.3-.552.295-.572-.008-.011-1.333,0-2.667,0-4-.223-.006-.447,0-.668-.012" transform="translate(-1034.617 -600.792)" fill="#2d2b30"/>
    <path id="Caminho_58605" data-name="Caminho 58605" d="M351.247,656.785a.3.3,0,0,1,.552-.006c.023.293,0,.588.007.883.187.021.466-.037.535.2.063.139-.065.237-.144.331-.132,0-.263,0-.394,0,.006.943.014,1.885,0,2.827-.014.3-.559.292-.559-.015-.017-.935-.01-1.871,0-2.805-.2-.007-.547.033-.53-.263-.036-.3.328-.263.526-.275a8.35,8.35,0,0,1,.012-.877" transform="translate(-321.606 -602.123)" fill="#2d2b30"/>
    <path id="Caminho_58606" data-name="Caminho 58606" d="M840.8,656.755a.3.3,0,0,1,.556,0,7.093,7.093,0,0,1,.018.881c.161.022.372-.033.485.119a.343.343,0,0,1,0,.316c-.125.134-.325.077-.485.1,0,.939.017,1.879-.008,2.816-.025.251-.326.24-.508.19a.975.975,0,0,1-.082-.353q0-1.329,0-2.657c-.167-.013-.367.039-.493-.1a.473.473,0,0,1,0-.306c.121-.147.327-.1.494-.117a6.1,6.1,0,0,1,.024-.88" transform="translate(-770.537 -602.091)" fill="#2d2b30"/>
    <path id="Caminho_58607" data-name="Caminho 58607" d="M756.284,662.617a2.82,2.82,0,0,1,1.091.081.539.539,0,0,1-.21.957,2.524,2.524,0,0,1,.414.731l-.284-.007c-.2-.209-.3-.491-.476-.713a2.146,2.146,0,0,0-.248-.04c-.008.249-.007.5-.01.748l-.278.008c-.006-.589-.01-1.178,0-1.767m.28.279c0,.162,0,.325,0,.489a1.849,1.849,0,0,0,.616-.061.227.227,0,0,0-.028-.4,2.615,2.615,0,0,0-.592-.029" transform="translate(-693.524 -607.624)" fill="#2d2b30"/>
    <path id="Caminho_58608" data-name="Caminho 58608" d="M230.544,669.112c.181-.074.48-.071.509.178.027,1.022.008,2.046.01,3.068.056.362-.558.427-.589.071-.019-.853,0-1.708-.008-2.561a1.733,1.733,0,0,1,.079-.756" transform="translate(-211.339 -613.553)" fill="#2d2b30"/>
    <path id="Caminho_58609" data-name="Caminho 58609" d="M866.589,668.988a.273.273,0,0,1,.42.254c0,1.026.007,2.054-.005,3.08-.013.227-.328.294-.481.159a1.033,1.033,0,0,1-.079-.4,1.459,1.459,0,0,1-.6.423,1.394,1.394,0,0,1-1.409-.426,2.162,2.162,0,0,1-.391-1.9,1.536,1.536,0,0,1,1.228-1.212,1.287,1.287,0,0,1,1.162.393c.038-.125.017-.3.158-.37m-1.385.532a1.038,1.038,0,0,0-.592.8,1.68,1.68,0,0,0,.29,1.45.843.843,0,0,0,1.3-.1,1.8,1.8,0,0,0,.057-1.752.854.854,0,0,0-1.05-.4" transform="translate(-792.288 -613.434)" fill="#2d2b30"/>
    <path id="Caminho_58610" data-name="Caminho 58610" d="M1.38,669.644A1.423,1.423,0,0,1,3,669.04a1.521,1.521,0,0,1,.553.389c.015-.142-.031-.35.139-.414a.277.277,0,0,1,.416.264q.007,1.5,0,2.994a.281.281,0,0,1-.433.266c-.158-.087-.1-.3-.12-.446a1.388,1.388,0,0,1-.67.456,1.4,1.4,0,0,1-1.4-.494,2.167,2.167,0,0,1-.1-2.41m.907-.087a1.046,1.046,0,0,0-.578.792,1.711,1.711,0,0,0,.278,1.445.846.846,0,0,0,1.3-.075,1.8,1.8,0,0,0,.066-1.775.858.858,0,0,0-1.063-.387" transform="translate(-0.976 -613.466)" fill="#2d2b30"/>
    <path id="Caminho_58611" data-name="Caminho 58611" d="M47.045,669.061a1.711,1.711,0,0,1,1.279.1c.193.1.254.424.022.517-.264.048-.481-.174-.743-.167a.865.865,0,0,0-.816.443,1.732,1.732,0,0,0-.032,1.606.911.911,0,0,0,.69.505,1.5,1.5,0,0,0,.756-.188.217.217,0,0,1,.275.232c.009.216-.209.341-.387.4a1.624,1.624,0,0,1-1.573-.31,2.021,2.021,0,0,1-.522-1.661,1.624,1.624,0,0,1,1.05-1.482" transform="translate(-42.168 -613.474)" fill="#2d2b30"/>
    <path id="Caminho_58612" data-name="Caminho 58612" d="M81.405,669.058a1.592,1.592,0,0,1,1.307.166.265.265,0,0,1-.068.465c-.24.031-.441-.154-.677-.166a.882.882,0,0,0-.88.47,1.734,1.734,0,0,0,.03,1.658.875.875,0,0,0,1.021.389,2.126,2.126,0,0,1,.493-.167.292.292,0,0,1,.029.516,1.59,1.59,0,0,1-1.458.072,1.794,1.794,0,0,1-.905-1.748,1.677,1.677,0,0,1,1.109-1.654" transform="translate(-73.632 -613.484)" fill="#2d2b30"/>
    <path id="Caminho_58613" data-name="Caminho 58613" d="M115.8,669.065a1.455,1.455,0,0,1,1.564.434,2.148,2.148,0,0,1,.032,2.566,1.468,1.468,0,0,1-2.119.154,2.1,2.1,0,0,1-.5-1.927,1.6,1.6,0,0,1,1.019-1.227m.1.528a1.131,1.131,0,0,0-.554.879,1.718,1.718,0,0,0,.28,1.314.832.832,0,0,0,1.211.065,1.608,1.608,0,0,0,.348-1.321,1.2,1.2,0,0,0-.491-.9.9.9,0,0,0-.795-.037" transform="translate(-105.211 -613.484)" fill="#2d2b30"/>
    <path id="Caminho_58614" data-name="Caminho 58614" d="M160.017,669.249c-.056-.313.432-.421.555-.156a1.87,1.87,0,0,1,.009.415c.206-.224.4-.509.725-.557a.322.322,0,0,1,.406.372c-.049.222-.315.229-.489.3a.9.9,0,0,0-.622.859c-.028.557,0,1.118-.01,1.677,0,.124.009.3-.128.357a.29.29,0,0,1-.447-.267c0-1,0-2,0-3" transform="translate(-146.735 -613.435)" fill="#2d2b30"/>
    <path id="Caminho_58615" data-name="Caminho 58615" d="M247.5,669.247a.3.3,0,0,1,.414-.272c.177.039.162.261.2.4a1.253,1.253,0,0,1,1.856-.016,2.015,2.015,0,0,1,.305,1.391c-.013.526.024,1.055-.017,1.579-.026.31-.567.308-.573-.01-.025-.686.008-1.374-.013-2.06a.787.787,0,0,0-1.569-.08c-.026.714.019,1.432-.02,2.146-.023.307-.557.315-.579,0-.013-1.026,0-2.052-.006-3.078" transform="translate(-226.967 -613.442)" fill="#2d2b30"/>
    <path id="Caminho_58616" data-name="Caminho 58616" d="M289.262,669.824a1.456,1.456,0,0,1,1.1-.873,1.243,1.243,0,0,1,1.127.381c.007-.15.017-.355.2-.385a.291.291,0,0,1,.4.276c.008.972,0,1.946,0,2.918a1.645,1.645,0,0,1-2.789,1.367c-.23-.136-.159-.55.134-.529.316.094.564.355.9.4a.943.943,0,0,0,.858-.224,1.5,1.5,0,0,0,.306-1.1,1.187,1.187,0,0,1-.612.443,1.412,1.412,0,0,1-1.479-.588,2.215,2.215,0,0,1-.154-2.086m1.028-.314a1.548,1.548,0,0,0-.431,2.042.845.845,0,0,0,1.4.163,1.775,1.775,0,0,0,.1-1.817.861.861,0,0,0-1.067-.388" transform="translate(-265.087 -613.418)" fill="#2d2b30"/>
    <path id="Caminho_58617" data-name="Caminho 58617" d="M375.415,669.043a1.452,1.452,0,0,1,1.6.526,2.165,2.165,0,0,1-.065,2.509,1.467,1.467,0,0,1-1.891.284,1.849,1.849,0,0,1-.75-1.506,1.747,1.747,0,0,1,1.105-1.813m.164.5a1.107,1.107,0,0,0-.659.971,1.588,1.588,0,0,0,.386,1.357.845.845,0,0,0,1.25-.193,1.805,1.805,0,0,0,.024-1.75.851.851,0,0,0-1-.384" transform="translate(-343.249 -613.469)" fill="#2d2b30"/>
    <path id="Caminho_58618" data-name="Caminho 58618" d="M491.771,669.392a1.479,1.479,0,0,1,1.742-.213,1.7,1.7,0,0,1,.776,1.272.791.791,0,0,1-.046.5.97.97,0,0,1-.5.088c-.639,0-1.278,0-1.916,0a1.158,1.158,0,0,0,.2.641,1.083,1.083,0,0,0,1.23.334c.283-.068.48-.3.736-.421.287-.008.3.406.1.535a1.874,1.874,0,0,1-2.156.22,1.773,1.773,0,0,1-.7-1.479,1.966,1.966,0,0,1,.536-1.476m.55.217a1.072,1.072,0,0,0-.485.978c.63-.014,1.26.006,1.89-.012a1.388,1.388,0,0,0-.3-.792.94.94,0,0,0-1.1-.175" transform="translate(-450.472 -613.477)" fill="#2d2b30"/>
    <path id="Caminho_58619" data-name="Caminho 58619" d="M572.481,669.047a1.461,1.461,0,0,1,1.611.527,2.158,2.158,0,0,1-.071,2.509,1.466,1.466,0,0,1-1.977.22,2.037,2.037,0,0,1-.588-2.093,1.545,1.545,0,0,1,1.024-1.163m.1.526a1.351,1.351,0,0,0-.6,1.383,1.2,1.2,0,0,0,.59,1.04.845.845,0,0,0,1.082-.361,1.8,1.8,0,0,0,0-1.7.849.849,0,0,0-1.07-.36" transform="translate(-523.972 -613.472)" fill="#2d2b30"/>
    <path id="Caminho_58620" data-name="Caminho 58620" d="M664.4,670.037a1.523,1.523,0,0,1,1.626-1.061,1.63,1.63,0,0,1,1.307,1.85c-.032.172-.242.167-.377.184-.7.006-1.393,0-2.09,0a1.128,1.128,0,0,0,.358.808,1.2,1.2,0,0,0,1.29.084c.23-.114.4-.371.687-.33a.386.386,0,0,1-.034.5,1.842,1.842,0,0,1-2.238.212,2.044,2.044,0,0,1-.53-2.245m.738-.266a1.292,1.292,0,0,0-.26.793c.631-.012,1.263,0,1.894-.006a1.44,1.44,0,0,0-.262-.758.924.924,0,0,0-1.372-.03" transform="translate(-609.161 -613.453)" fill="#2d2b30"/>
    <path id="Caminho_58621" data-name="Caminho 58621" d="M704.876,669.145a.26.26,0,0,1,.46-.135c.314.364.571.773.872,1.149.3-.353.548-.74.833-1.1a.276.276,0,0,1,.393-.1.3.3,0,0,1,.037.444c-.3.411-.615.8-.907,1.217.319.42.637.842.958,1.262.1.135.235.3.156.48a.3.3,0,0,1-.5.034c-.334-.436-.639-.894-.964-1.338-.313.429-.617.865-.927,1.3a.317.317,0,0,1-.48.091.341.341,0,0,1,.016-.447c.334-.476.715-.916,1.037-1.4-.278-.344-.531-.707-.8-1.053-.085-.12-.207-.242-.179-.4" transform="translate(-646.253 -613.405)" fill="#2d2b30"/>
    <path id="Caminho_58622" data-name="Caminho 58622" d="M910.5,669.25a.294.294,0,0,1,.4-.285c.187.036.186.254.207.4a1.279,1.279,0,0,1,1.684-.186,1.332,1.332,0,0,1,.48,1.146c-.008.662.015,1.326-.011,1.987-.018.328-.586.309-.579-.02-.028-.708.013-1.418-.017-2.126a.786.786,0,0,0-1.568.079c-.016.69.015,1.381-.012,2.07-.024.317-.56.3-.583-.007-.015-1.02-.006-2.041,0-3.062" transform="translate(-834.945 -613.437)" fill="#2d2b30"/>
    <path id="Caminho_58623" data-name="Caminho 58623" d="M997.68,669.232a1.339,1.339,0,0,1,1.812.178c.016-.142-.041-.353.132-.418a.283.283,0,0,1,.42.275q.011,1.489,0,2.979a.286.286,0,0,1-.422.283c-.174-.086-.112-.3-.13-.454a1.377,1.377,0,0,1-.718.464,1.433,1.433,0,0,1-1.552-.806,2.088,2.088,0,0,1,.46-2.5m.537.305a1.131,1.131,0,0,0-.6.97,1.629,1.629,0,0,0,.317,1.274.832.832,0,0,0,1.169.046,1.7,1.7,0,0,0,0-2.135.867.867,0,0,0-.883-.154" transform="translate(-914.273 -613.446)" fill="#2d2b30"/>
    <path id="Caminho_58624" data-name="Caminho 58624" d="M1043.75,669.251a.289.289,0,0,1,.465-.249c.18.1.082.35.106.52.211-.281.495-.632.89-.563a.3.3,0,0,1-.031.6.937.937,0,0,0-.828.789c-.07.66,0,1.327-.035,1.988-.025.3-.552.3-.563-.011-.016-1.023,0-2.047-.006-3.071" transform="translate(-957.14 -613.438)" fill="#2d2b30"/>
    <path id="Caminho_58625" data-name="Caminho 58625" d="M615.768,687.937c-.172-.129-.223-.419.01-.509.495-.028.992-.015,1.488-.007.274.01.28.489,0,.506-.5.016-1-.007-1.5.01" transform="translate(-564.539 -630.372)" fill="#2d2b30"/>
    <path id="Caminho_58626" data-name="Caminho 58626" d="M3.767,756.411a1.385,1.385,0,0,1,1.3.33,2.839,2.839,0,0,1,.754,1.891,3.76,3.76,0,0,1-.46,2.244,1.457,1.457,0,0,1-1.285.724,1.635,1.635,0,0,1-1.41-1.151,4.447,4.447,0,0,1-.117-2.57,1.925,1.925,0,0,1,1.216-1.469m.089.579a1.381,1.381,0,0,0-.65,1.033,5.024,5.024,0,0,0,.031,2.057,1.227,1.227,0,0,0,.687.926.791.791,0,0,0,.913-.46,3.588,3.588,0,0,0,.3-1.586,3.482,3.482,0,0,0-.319-1.571.766.766,0,0,0-.963-.4" transform="translate(-2.215 -693.605)" fill="#2d2b30"/>
    <path id="Caminho_58627" data-name="Caminho 58627" d="M51.579,756.438a1.388,1.388,0,0,1,1.226.2,2.4,2.4,0,0,1,.822,1.5,4.154,4.154,0,0,1-.3,2.59,1.5,1.5,0,0,1-1.357.88,1.6,1.6,0,0,1-1.4-1.088,4.376,4.376,0,0,1-.164-2.55,2,2,0,0,1,1.181-1.535m.09.588a1.37,1.37,0,0,0-.571.906,4.932,4.932,0,0,0-.013,2.07,1.281,1.281,0,0,0,.719,1.021.8.8,0,0,0,.905-.47A3.8,3.8,0,0,0,53,758.73a2.593,2.593,0,0,0-.442-1.51.7.7,0,0,0-.888-.195" transform="translate(-46.111 -693.616)" fill="#2d2b30"/>
    <path id="Caminho_58628" data-name="Caminho 58628" d="M99.533,756.429a1.38,1.38,0,0,1,1.279.25,2.583,2.583,0,0,1,.8,1.705,4.646,4.646,0,0,1-.158,1.923,2.052,2.052,0,0,1-.821,1.113,1.375,1.375,0,0,1-1.6-.158,2.721,2.721,0,0,1-.777-1.8,3.966,3.966,0,0,1,.391-2.271,1.627,1.627,0,0,1,.882-.759m.094.588a1.138,1.138,0,0,0-.494.632,4.456,4.456,0,0,0-.183,1.732,2.569,2.569,0,0,0,.387,1.324.73.73,0,0,0,.875.279,1.355,1.355,0,0,0,.645-.992,5.031,5.031,0,0,0,.007-1.98,1.638,1.638,0,0,0-.431-.878.675.675,0,0,0-.8-.118" transform="translate(-90.09 -693.608)" fill="#2d2b30"/>
    <path id="Caminho_58629" data-name="Caminho 58629" d="M147.43,756.4a1.4,1.4,0,0,1,1.33.392,3.126,3.126,0,0,1,.709,2.089,3.53,3.53,0,0,1-.536,2.089,1.417,1.417,0,0,1-1.27.625,1.624,1.624,0,0,1-1.348-1.115,4.419,4.419,0,0,1-.131-2.6,1.914,1.914,0,0,1,1.245-1.48m.023.6a1.527,1.527,0,0,0-.638,1.144,4.979,4.979,0,0,0,.079,2.011,1.151,1.151,0,0,0,.7.855.779.779,0,0,0,.858-.431,3.581,3.581,0,0,0,.319-1.789,2.722,2.722,0,0,0-.433-1.576.707.707,0,0,0-.88-.216" transform="translate(-133.932 -693.601)" fill="#2d2b30"/>
    <path id="Caminho_58630" data-name="Caminho 58630" d="M195.394,756.4a1.382,1.382,0,0,1,1.192.285,2.589,2.589,0,0,1,.8,1.7,4.069,4.069,0,0,1-.371,2.388,1.508,1.508,0,0,1-1.215.826,1.365,1.365,0,0,1-1.115-.456,2.892,2.892,0,0,1-.661-1.769,4.016,4.016,0,0,1,.341-2.087,1.639,1.639,0,0,1,1.032-.887m.012.608a1.717,1.717,0,0,0-.672,1.362,4.528,4.528,0,0,0,.206,2.049.948.948,0,0,0,.681.615.813.813,0,0,0,.787-.465,3.466,3.466,0,0,0,.314-1.6,3.2,3.2,0,0,0-.366-1.648.734.734,0,0,0-.95-.31" transform="translate(-177.91 -693.611)" fill="#2d2b30"/>
    <path id="Caminho_58631" data-name="Caminho 58631" d="M243.049,756.454a1.388,1.388,0,0,1,1.334.242,2.619,2.619,0,0,1,.795,1.7,3.977,3.977,0,0,1-.4,2.429,1.471,1.471,0,0,1-1.259.787,1.432,1.432,0,0,1-1.222-.675,3.989,3.989,0,0,1-.018-3.853,1.562,1.562,0,0,1,.766-.632m.162.558a1.427,1.427,0,0,0-.626,1.039,5.016,5.016,0,0,0,.024,2,1.308,1.308,0,0,0,.657.956.757.757,0,0,0,.906-.373,3.568,3.568,0,0,0,.337-1.906,2.735,2.735,0,0,0-.388-1.443.727.727,0,0,0-.91-.274" transform="translate(-221.733 -693.619)" fill="#2d2b30"/>
    <path id="Caminho_58632" data-name="Caminho 58632" d="M291.056,756.414a1.378,1.378,0,0,1,1.26.277,2.648,2.648,0,0,1,.8,1.778,4.047,4.047,0,0,1-.368,2.28,1.444,1.444,0,0,1-2.648-.036,4.226,4.226,0,0,1-.3-2.581,2.067,2.067,0,0,1,1.257-1.719m.088.583a1.35,1.35,0,0,0-.616.957,5.4,5.4,0,0,0-.043,1.845,1.523,1.523,0,0,0,.67,1.178.757.757,0,0,0,.945-.358,3.37,3.37,0,0,0,.344-1.663,3.244,3.244,0,0,0-.355-1.623.746.746,0,0,0-.945-.337" transform="translate(-265.686 -693.604)" fill="#2d2b30"/>
    <path id="Caminho_58633" data-name="Caminho 58633" d="M338.781,756.445a1.4,1.4,0,0,1,1.419.339,3.029,3.029,0,0,1,.725,2.032,3.557,3.557,0,0,1-.52,2.147,1.427,1.427,0,0,1-1.157.647,1.411,1.411,0,0,1-1.191-.618,3.483,3.483,0,0,1-.551-2.016,3.692,3.692,0,0,1,.434-1.8,1.6,1.6,0,0,1,.841-.727m.155.558a1.291,1.291,0,0,0-.6.885,4.893,4.893,0,0,0-.024,2.116,1.36,1.36,0,0,0,.645.992.761.761,0,0,0,.938-.377,3.64,3.64,0,0,0,.33-1.894,2.831,2.831,0,0,0-.376-1.425.733.733,0,0,0-.912-.3" transform="translate(-309.501 -693.616)" fill="#2d2b30"/>
    <path id="Caminho_58634" data-name="Caminho 58634" d="M956.174,756.379c.191-.084.5-.017.487.236.01,1.55,0,3.1,0,4.651.061.371-.575.44-.626.081-.026-1.492,0-2.985-.012-4.478,0-.172-.025-.388.148-.49" transform="translate(-876.699 -693.586)" fill="#2d2b30"/>
    <path id="Caminho_58635" data-name="Caminho 58635" d="M1085.542,756.374a.4.4,0,1,1-.1.624.41.41,0,0,1,.1-.624" transform="translate(-995.283 -693.569)" fill="#2d2b30"/>
    <path id="Caminho_58636" data-name="Caminho 58636" d="M1058.613,758.587a.326.326,0,0,1,.62.086c.027.292.006.586.01.88.179.026.409-.034.538.129.038.129.062.317-.073.4s-.308.042-.455.061c-.024,1,.007,2-.015,3,.038.373-.576.437-.641.086-.032-1.029.009-2.059-.019-3.089-.223,0-.613.019-.573-.31,0-.311.368-.263.583-.278a6.461,6.461,0,0,1,.025-.967" transform="translate(-970.213 -695.467)" fill="#2d2b30"/>
    <path id="Caminho_58637" data-name="Caminho 58637" d="M1101.022,758.6a.362.362,0,0,1,.617-.018,6.655,6.655,0,0,1,.028.992,2.12,2.12,0,0,1,.423.036.31.31,0,0,1,.09.476,1.06,1.06,0,0,1-.511.08c-.009,1.025.009,2.05-.008,3.074-.021.323-.593.323-.629.007-.015-1.026,0-2.055-.006-3.082-.227,0-.626.019-.584-.318.01-.294.369-.274.582-.268,0-.327,0-.653,0-.979" transform="translate(-1009.129 -695.49)" fill="#2d2b30"/>
    <path id="Caminho_58638" data-name="Caminho 58638" d="M1172.835,758.59a.334.334,0,0,1,.606,0,8.942,8.942,0,0,1,.017.964c.214.013.584-.033.587.279.036.329-.356.314-.576.31-.03,1.029.01,2.059-.019,3.088-.057.351-.681.291-.626-.078-.006-1,0-2,0-3.005-.194-.02-.439.034-.57-.149a.58.58,0,0,1,.012-.32c.144-.152.369-.105.557-.123.005-.323-.02-.646.012-.967" transform="translate(-1074.968 -695.469)" fill="#2d2b30"/>
    <path id="Caminho_58639" data-name="Caminho 58639" d="M974.761,772.239a.324.324,0,0,1,.491-.271c.17.077.146.294.154.449a1.41,1.41,0,0,1,2.054-.081,1.884,1.884,0,0,1,.365,1.39c-.014.635.023,1.275-.018,1.909-.044.324-.611.309-.631-.019-.042-.794.023-1.592-.03-2.385a.879.879,0,0,0-1.342-.6,1.135,1.135,0,0,0-.405,1.095c-.006.635.01,1.269,0,1.9-.031.277-.465.321-.589.094a.666.666,0,0,1-.05-.337c.007-1.05,0-2.1,0-3.151" transform="translate(-893.875 -707.873)" fill="#2d2b30"/>
    <path id="Caminho_58640" data-name="Caminho 58640" d="M1086.5,771.917a.34.34,0,0,1,.436.376c0,1.092.02,2.186-.012,3.277,0,.389-.687.353-.643-.036-.007-1.079,0-2.158,0-3.238a.325.325,0,0,1,.221-.378" transform="translate(-996.139 -707.848)" fill="#2d2b30"/>
    <path id="Caminho_58641" data-name="Caminho 58641" d="M1020.7,772.092a1.893,1.893,0,0,1,1.527.154.507.507,0,0,1,.32.467c.019.221-.26.271-.419.213a1.555,1.555,0,0,0-.774-.359c-.287-.028-.687.073-.743.4-.036.222.17.378.345.468a5.023,5.023,0,0,1,1.485.758.971.971,0,0,1,.111,1.058,1.351,1.351,0,0,1-1.2.678,1.981,1.981,0,0,1-1.393-.418.37.37,0,0,1-.083-.536c.234-.209.477.069.685.18a1.063,1.063,0,0,0,1.353-.055.386.386,0,0,0-.072-.559c-.534-.44-1.352-.461-1.772-1.052a1,1,0,0,1,.635-1.4" transform="translate(-935.167 -707.938)" fill="#2d2b30"/>
    <path id="Caminho_58642" data-name="Caminho 58642" d="M1128.9,771.962a.329.329,0,0,1,.5.257c.007.722-.008,1.445.006,2.167a.877.877,0,0,0,.474.841.968.968,0,0,0,1.078-.207,1.271,1.271,0,0,0,.209-.8c.005-.683-.014-1.367.007-2.049a.325.325,0,0,1,.628-.019c.015.773,0,1.546.008,2.32a1.356,1.356,0,0,1-.875,1.287,1.751,1.751,0,0,1-1.855-.381,1.472,1.472,0,0,1-.322-.991c0-.693,0-1.386,0-2.078a.344.344,0,0,1,.139-.347" transform="translate(-1035.104 -707.866)" fill="#2d2b30"/>
    <path id="Caminho_58643" data-name="Caminho 58643" d="M1198.24,772.328a1.635,1.635,0,0,1,2.051.007,2.015,2.015,0,0,1,.647,1.61c0,.169-.183.262-.334.253-.8.014-1.607,0-2.411,0a1.191,1.191,0,0,0,.5.973,1.42,1.42,0,0,0,1.574-.149c.127-.08.246-.234.416-.192.228.056.222.414.047.543a2.111,2.111,0,0,1-2.308.325,1.9,1.9,0,0,1-.881-1.61,2.13,2.13,0,0,1,.7-1.766m.266.51a1.491,1.491,0,0,0-.314.87q1.048,0,2.1,0a1.2,1.2,0,0,0-.606-1.084,1.059,1.059,0,0,0-1.179.213" transform="translate(-1098.172 -707.914)" fill="#2d2b30"/>
    <path id="Caminho_58644" data-name="Caminho 58644" d="M889.672.813a2.568,2.568,0,0,1,2.959-.572,2.527,2.527,0,0,1,1.451,2.224,3.383,3.383,0,0,1-.7,2.061A7.623,7.623,0,0,1,891.812,6.1c.138.186.278.372.422.556a6.209,6.209,0,0,1,2-.038,13.212,13.212,0,0,0,1.881.143,5.911,5.911,0,0,1,.465-3.521,2.547,2.547,0,1,1,4.3,2.717,5.163,5.163,0,0,1-3.623,1.733q.031.347.082.692A5.926,5.926,0,0,1,899.161,9.4a13.692,13.692,0,0,0,1.475,1,5.928,5.928,0,0,1,2.255-2.839,2.545,2.545,0,0,1,3.613,3.118,2.61,2.61,0,0,1-1.977,1.636,5.978,5.978,0,0,1-3.35-.523q-.147.316-.284.636a5.955,5.955,0,0,1,.977,1.564,11.462,11.462,0,0,0,.893,1.839,7.7,7.7,0,0,1,2.073-1.128,3.376,3.376,0,0,1,1.842-.131,2.517,2.517,0,0,1,1.508,1.064,2.545,2.545,0,0,1-1.235,3.786,2.809,2.809,0,0,1-2.165-.136,6.36,6.36,0,0,1-2.271-1.978,6.884,6.884,0,0,0-.573.427c.305,1.283-.143,2.57-.085,3.86a7.618,7.618,0,0,1,2.656.126,2.911,2.911,0,0,1,1.729,1.167,2.545,2.545,0,0,1-3.1,3.753,3.042,3.042,0,0,1-1.462-1.358,7.281,7.281,0,0,1-.789-2.547q-.342.049-.685.082a5.909,5.909,0,0,1-.822,1.574,10.327,10.327,0,0,0-1.184,1.762,5.567,5.567,0,0,1,2.849,2.252,2.549,2.549,0,1,1-4.742,1.757,5.867,5.867,0,0,1,.479-3.52c-.214-.086-.426-.175-.637-.265a5.918,5.918,0,0,1-1.583.984,11.193,11.193,0,0,0-1.823.884,6.948,6.948,0,0,1,1.237,2.423,2.94,2.94,0,0,1-.189,2.059,2.553,2.553,0,0,1-4.516-.017,2.712,2.712,0,0,1-.054-2.3A6.108,6.108,0,0,1,891.264,28c-.119-.193-.249-.378-.382-.559a7.3,7.3,0,0,1-1.722.064,15.948,15.948,0,0,0-2.177-.177,5.693,5.693,0,0,1-.606,3.714,2.548,2.548,0,0,1-4.608-1.864,2.927,2.927,0,0,1,1.608-2.064,6.918,6.918,0,0,1,2.449-.719c-.022-.233-.046-.465-.073-.7a6.315,6.315,0,0,1-1.532-.792,9.941,9.941,0,0,0-1.811-1.207,5.51,5.51,0,0,1-2.262,2.842,2.545,2.545,0,0,1-3.107-3.917,2.742,2.742,0,0,1,1.827-.909,6.487,6.487,0,0,1,3.051.565,6.746,6.746,0,0,0,.257-.639,6.525,6.525,0,0,1-.927-1.475,12.09,12.09,0,0,0-.933-1.923,5.581,5.581,0,0,1-3.434,1.332,2.542,2.542,0,0,1-.87-4.872,2.9,2.9,0,0,1,2.629.266,7.264,7.264,0,0,1,1.915,1.768c.211-.042.373-.255.566-.364a6.937,6.937,0,0,1-.045-1.891,14.84,14.84,0,0,0,.16-2,5.64,5.64,0,0,1-3.73-.606,2.545,2.545,0,0,1,2.267-4.5,3.3,3.3,0,0,1,1.907,1.994,7.069,7.069,0,0,1,.481,1.952,1.793,1.793,0,0,0,.72-.112,6.354,6.354,0,0,1,.911-1.662,10.793,10.793,0,0,0,1.089-1.606,5.854,5.854,0,0,1-2.819-2.208,2.547,2.547,0,0,1,3.866-3.194,2.759,2.759,0,0,1,.935,1.923,6.663,6.663,0,0,1-.57,2.969c.208.083.411.185.626.252a1.034,1.034,0,0,0,.256-.169c.929-.776,2.154-1.016,3.161-1.664a6.475,6.475,0,0,1-1.318-2.881,2.606,2.606,0,0,1,.65-2.159m.338,1.82a5.289,5.289,0,0,0,1.175,2.646,5.483,5.483,0,0,0,1.616-1.76,1.85,1.85,0,0,0,.182-1.482,1.532,1.532,0,0,0-2.974.6m-7.244,1.652a1.749,1.749,0,0,0,.516,1.409,6.694,6.694,0,0,0,2.028,1.336,4.209,4.209,0,0,0,.4-1.075,3.12,3.12,0,0,0-.088-2.191,1.525,1.525,0,0,0-1.617-.782,1.544,1.544,0,0,0-1.243,1.3m15.294-1.137A1.865,1.865,0,0,0,897.23,4.3a5.892,5.892,0,0,0-.094,2.391,5.858,5.858,0,0,0,2.2-.685,1.986,1.986,0,0,0,.923-1.06,1.53,1.53,0,0,0-2.2-1.795m-7.789,3.907A21.039,21.039,0,0,0,887.947,8.2a3.28,3.28,0,0,1,.992,1.031,1.653,1.653,0,0,1-2.016,2.319,1.716,1.716,0,0,1-1.133-1.526,2.623,2.623,0,0,1,.436-1.514l-.382-.17a15.559,15.559,0,0,1-.92,1.415,5.226,5.226,0,0,0-.918,1.456,2.4,2.4,0,0,1,1.636.578,1.664,1.664,0,0,1,.271,2.014,1.642,1.642,0,0,1-1.313.812,1.71,1.71,0,0,1-1.5-.7,2.453,2.453,0,0,1-.431-1.6c-.142.007-.284.015-.423.021a14.668,14.668,0,0,1-.136,2.073,5.529,5.529,0,0,0-.051,1.325,3.068,3.068,0,0,1,1.542-.336,1.656,1.656,0,0,1,.792,2.956,1.772,1.772,0,0,1-1.923.091,2.508,2.508,0,0,1-.977-1.068,4.013,4.013,0,0,0-.348.249,14.026,14.026,0,0,1,1,2.056,3.417,3.417,0,0,0,.57.955,2.475,2.475,0,0,1,1.213-1.093,1.654,1.654,0,0,1,1.976,2.4,1.779,1.779,0,0,1-1.737.834,4.158,4.158,0,0,1-1.211-.411c-.037.131-.074.263-.1.4a11.393,11.393,0,0,1,1.761,1.169,4.675,4.675,0,0,0,1.072.642,2.817,2.817,0,0,1,.452-1.484A1.667,1.667,0,0,1,888,22.524a1.64,1.64,0,0,1,1.1,1.27,1.713,1.713,0,0,1-.671,1.665,2.614,2.614,0,0,1-1.625.449c.018.138.038.277.06.416,1.137-.076,2.253.271,3.388.179a2.873,2.873,0,0,1-.343-1.554,1.644,1.644,0,0,1,1.322-1.393,1.665,1.665,0,0,1,1.7.706,1.746,1.746,0,0,1,.2,1.428,2.3,2.3,0,0,1-1.238,1.372,2.8,2.8,0,0,0,.244.358c.313-.189.634-.366.964-.525a11.43,11.43,0,0,0,2.058-1.028,2.589,2.589,0,0,1-1.1-1.244,1.66,1.66,0,0,1,.567-1.855,1.681,1.681,0,0,1,1.766-.148,1.783,1.783,0,0,1,.9,1.844,3.537,3.537,0,0,1-.408,1.119l.365.151c.206-.324.393-.66.614-.975a10.788,10.788,0,0,0,1.239-1.88,2.606,2.606,0,0,1-1.59-.538,1.651,1.651,0,0,1,.787-2.856,1.723,1.723,0,0,1,1.742.743,2.457,2.457,0,0,1,.376,1.55c.148-.02.3-.038.445-.061-.083-1.133.245-2.244.178-3.375a3.747,3.747,0,0,1-1.243.343,1.641,1.641,0,0,1-1.593-.947,1.667,1.667,0,0,1,.241-1.774,1.713,1.713,0,0,1,1.859-.481,2.417,2.417,0,0,1,1.305,1.225q.168-.124.34-.248a13.606,13.606,0,0,1-.826-1.64,5.782,5.782,0,0,0-.727-1.387,2.705,2.705,0,0,1-1.181,1.076,1.653,1.653,0,0,1-2-2.421,1.765,1.765,0,0,1,1.668-.786,3.252,3.252,0,0,1,1.24.42c.043-.129.088-.256.134-.383-.324-.187-.647-.376-.955-.588a11.786,11.786,0,0,0-1.9-1.255,2.893,2.893,0,0,1-.414,1.441,1.658,1.658,0,0,1-2.992-.671,1.712,1.712,0,0,1,.724-1.681,2.579,2.579,0,0,1,1.582-.406c-.02-.135-.041-.27-.059-.4-.415,0-.831-.017-1.244-.046a9.925,9.925,0,0,0-2.153-.129,2.858,2.858,0,0,1,.354,1.335,1.639,1.639,0,0,1-1.376,1.6,1.66,1.66,0,0,1-1.639-.695,1.752,1.752,0,0,1-.078-1.791,2.815,2.815,0,0,1,1.118-1.063c-.085-.1-.167-.2-.25-.3-.234.119-.462.253-.693.376m1.484.828a1.327,1.327,0,0,0-.84.879.656.656,0,0,0,.485.762.64.64,0,0,0,.773-.587,1.923,1.923,0,0,0-.373-1.066Zm-13.239.45a1.525,1.525,0,0,0-.217,2.83,4.979,4.979,0,0,0,2.864.292,4.885,4.885,0,0,0-1.007-2.639,1.571,1.571,0,0,0-1.64-.484m24.245.593a6.356,6.356,0,0,0-1.187,1.923,4.928,4.928,0,0,0,2.691.479,1.642,1.642,0,0,0,1.179-.788,1.524,1.524,0,0,0-1.433-2.27,1.981,1.981,0,0,0-1.25.656M886.81,10.01a.7.7,0,0,0,.614.62.645.645,0,0,0,.641-.86,2.057,2.057,0,0,0-.9-.82,1.585,1.585,0,0,0-.359,1.06m8.632-.678a.739.739,0,0,0-.454.768.643.643,0,0,0,.988.418,1.6,1.6,0,0,0,.39-1.316,1.964,1.964,0,0,0-.924.13m-11.756,2.885a1.638,1.638,0,0,0,.256,1.111.671.671,0,0,0,.8.223.636.636,0,0,0,.219-.994,1.768,1.768,0,0,0-1.278-.34m14.289.877a.643.643,0,0,0,.871.461,2.078,2.078,0,0,0,.8-.891,1.472,1.472,0,0,0-1.175-.322.652.652,0,0,0-.492.752m-21.344,2.471a1.524,1.524,0,0,0,.333,3,4.81,4.81,0,0,0,2.793-1.172,6.068,6.068,0,0,0-1.444-1.421,2.086,2.086,0,0,0-1.683-.4m26.7,1.112a5.151,5.151,0,0,0,1.884,1.683,1.716,1.716,0,0,0,1.54.039,1.536,1.536,0,0,0,.818-1.592,1.555,1.555,0,0,0-1.569-1.3,5.233,5.233,0,0,0-2.673,1.169m-20.98.085c.175.5.662,1.047,1.247.879a.64.64,0,0,0,.145-1.133c-.458-.274-.973.054-1.392.254m16.708.218a.638.638,0,0,0,.644.693,1.8,1.8,0,0,0,1.048-.413c-.217-.344-.452-.753-.885-.84a.656.656,0,0,0-.807.56M883.44,21.4c.417.335,1.123.577,1.538.111a.645.645,0,0,0-.547-1.042c-.484.079-.744.557-.991.931m14.908-.875a.634.634,0,0,0-.216,1.009,1.767,1.767,0,0,0,1.265.321,1.8,1.8,0,0,0-.206-1.048.691.691,0,0,0-.844-.282m3.609,2.068a4.477,4.477,0,0,0,.309,1.522,2.759,2.759,0,0,0,1.137,1.522,1.528,1.528,0,0,0,2.2-1.684,1.558,1.558,0,0,0-.919-1.089,5.565,5.565,0,0,0-2.729-.271m-23.743.371a1.525,1.525,0,0,0-.737,1.657,1.549,1.549,0,0,0,1.235,1.172,1.711,1.711,0,0,0,1.443-.485,6.369,6.369,0,0,0,1.366-2.064,6.01,6.01,0,0,0-1.6-.495,2.673,2.673,0,0,0-1.707.214m8.949.563c-.44.283-.443.883-.448,1.35.5.047,1.168-.056,1.363-.6a.644.644,0,0,0-.914-.748m7.856.771a1.867,1.867,0,0,0,.924.825,1.814,1.814,0,0,0,.336-1.007.691.691,0,0,0-.639-.664.638.638,0,0,0-.622.846m-4.108.8a2.213,2.213,0,0,0,.35,1.109,1.219,1.219,0,0,0,.917-1.017.636.636,0,0,0-1.267-.091m6.356,3.51a2.422,2.422,0,0,0,.41,2.015,1.531,1.531,0,0,0,2.653-1.118,1.966,1.966,0,0,0-.631-1.238,6.924,6.924,0,0,0-1.935-1.223,5.42,5.42,0,0,0-.5,1.563m-13.306-.651a2.179,2.179,0,0,0-1.117,1.118,1.528,1.528,0,0,0,1.758,2.006,1.582,1.582,0,0,0,1.119-.948,5.329,5.329,0,0,0,.237-2.734,5.928,5.928,0,0,0-2,.558m6.451,2.376a2.079,2.079,0,0,0-.364,1.518,1.528,1.528,0,0,0,2.848.388,1.807,1.807,0,0,0,.134-1.192,6.024,6.024,0,0,0-1.128-2.241,5.657,5.657,0,0,0-1.49,1.527" transform="translate(-801.913 0)" fill="#87888a"/>
    <path id="Caminho_58645" data-name="Caminho 58645" d="M42.415,3.806A53.874,53.874,0,0,1,75.773,8.4a17.931,17.931,0,0,0-2.151,3.5,51.551,51.551,0,0,0-8.015-3.016A49.705,49.705,0,0,0,4.914,41.138,4.286,4.286,0,0,1,4.487,42.2a2.018,2.018,0,0,1-1.778.9,2.027,2.027,0,0,1-1.936-1.64,2.251,2.251,0,0,1,.114-1.2,53.38,53.38,0,0,1,5.73-12.271,53.819,53.819,0,0,1,35.8-24.182" transform="translate(-0.676 -2.694)" fill="#009031"/>
    <path id="Caminho_58646" data-name="Caminho 58646" d="M1167.956,387.255a19.229,19.229,0,0,0,3.589-2.027c.721,1.664,1.4,3.347,1.962,5.072a3.947,3.947,0,0,1,.324,1.44,2.031,2.031,0,0,1-1.463,1.865,2.057,2.057,0,0,1-2.518-1.3,52.744,52.744,0,0,0-1.9-5.052" transform="translate(-1071.044 -353.263)" fill="#009031"/>
    <path id="Caminho_58647" data-name="Caminho 58647" d="M215.012,529.456a.524.524,0,0,1,.786-.022,1,1,0,0,1,.177.7c-.007,1.686.007,3.372-.007,5.058.019.339-.248.722-.62.662a.6.6,0,0,1-.483-.444,1.242,1.242,0,0,1-1.007.491,1.675,1.675,0,0,1-1.431-.928,3.155,3.155,0,0,1-.105-2.649,1.686,1.686,0,0,1,1.293-1.125,1.638,1.638,0,0,1,1.242.359c0-.475,0-.95,0-1.424a1.086,1.086,0,0,1,.158-.675m-1.195,2.892a1.047,1.047,0,0,0-.581.782,1.638,1.638,0,0,0,.288,1.409.674.674,0,0,0,.83.139,1.148,1.148,0,0,0,.48-.825,1.718,1.718,0,0,0-.194-1.186.706.706,0,0,0-.822-.32" transform="translate(-194.484 -485.351)" fill="#009031"/>
    <path id="Caminho_58648" data-name="Caminho 58648" d="M288.961,529.646a1.155,1.155,0,0,1,1.372-.3.61.61,0,0,1,.13.886c-.174.123-.4.078-.593.164a1.945,1.945,0,0,0-.087.851c.251.015.546-.034.751.147a.619.619,0,0,1-.06.858,1.437,1.437,0,0,1-.694.107c.011.882,0,1.765.007,2.648a.926.926,0,0,1-.193.675.522.522,0,0,1-.751-.023,1,1,0,0,1-.177-.656c0-.881,0-1.763,0-2.644-.2-.017-.447.012-.584-.168a.614.614,0,0,1,.079-.835c.133-.131.334-.088.5-.11a2.591,2.591,0,0,1,.295-1.6" transform="translate(-264.064 -485.325)" fill="#009031"/>
    <path id="Caminho_58649" data-name="Caminho 58649" d="M429.927,529.449a.523.523,0,0,1,.782-.049.881.881,0,0,1,.185.628c0,.5-.006,1,0,1.505a1.507,1.507,0,0,1,2.121.134,1.959,1.959,0,0,1,.366,1.265c0,.721,0,1.442,0,2.164a.721.721,0,0,1-.3.669.522.522,0,0,1-.724-.222,1.479,1.479,0,0,1-.092-.618q0-.955,0-1.908a.91.91,0,0,0-.217-.641.687.687,0,0,0-.8-.1.818.818,0,0,0-.358.741c0,.69,0,1.382,0,2.073a.86.86,0,0,1-.2.607.522.522,0,0,1-.619.059.822.822,0,0,1-.3-.751c0-1.6,0-3.206,0-4.809a1.294,1.294,0,0,1,.151-.749" transform="translate(-394.115 -485.333)" fill="#009031"/>
    <path id="Caminho_58650" data-name="Caminho 58650" d="M646.632,529.731a1.066,1.066,0,0,1,1.031-.486c.25.012.564.109.63.385a.8.8,0,0,1-.053.534c-.142.208-.427.132-.631.221-.163.251-.086.577-.106.861a1.983,1.983,0,0,1,.63.056c.3.129.317.538.2.8-.167.294-.548.236-.832.247,0,.968.005,1.936,0,2.9a.566.566,0,0,1-.656.563.63.63,0,0,1-.436-.655q-.006-1.4,0-2.8c-.214-.025-.5.012-.627-.2a.676.676,0,0,1,.082-.789.877.877,0,0,1,.543-.125,2.75,2.75,0,0,1,.225-1.508" transform="translate(-592.115 -485.324)" fill="#009031"/>
    <path id="Caminho_58651" data-name="Caminho 58651" d="M733.792,529.284a.552.552,0,0,1,.816.54c0,1.8,0,3.6,0,5.4a.557.557,0,0,1-.666.553.62.62,0,0,1-.427-.635q0-2.62,0-5.239a.7.7,0,0,1,.28-.62" transform="translate(-672.648 -485.292)" fill="#009031"/>
    <path id="Caminho_58652" data-name="Caminho 58652" d="M876.275,529.929a.631.631,0,0,1,.435-.684.563.563,0,0,1,.662.593c0,.568,0,1.136,0,1.7a1.546,1.546,0,0,1,1.636-.276,1.791,1.791,0,0,1,.864.9,3.43,3.43,0,0,1,.228,1.984,2.164,2.164,0,0,1-1.089,1.567,1.27,1.27,0,0,1-1.618-.359c-.1.184-.2.407-.436.44-.382.119-.713-.284-.68-.645-.005-1.742,0-3.484,0-5.226m1.792,2.365a.916.916,0,0,0-.624.691,1.756,1.756,0,0,0,.224,1.457.668.668,0,0,0,.807.231,1.007,1.007,0,0,0,.51-.665,1.689,1.689,0,0,0-.239-1.47.676.676,0,0,0-.679-.244" transform="translate(-803.565 -485.314)" fill="#009031"/>
    <path id="Caminho_58653" data-name="Caminho 58653" d="M.328,536.343c-.493-.193-.417-1.1.134-1.147q1.446-.016,2.9,0c.579.038.63,1.035.078,1.16-.311.027-.624.006-.935.007-.037,1.445.007,2.893-.022,4.34a.567.567,0,0,1-.753.549.62.62,0,0,1-.392-.634c-.015-1.418.015-2.837-.014-4.254a7.08,7.08,0,0,1-.992-.022" transform="translate(0 -490.78)" fill="#009031"/>
    <path id="Caminho_58654" data-name="Caminho 58654" d="M128.794,536.826a.523.523,0,0,1,.9.085,3.623,3.623,0,0,1,.066,1.09c.283,0,.66-.024.8.286a.648.648,0,0,1-.163.723,1.35,1.35,0,0,1-.637.1c0,.967.006,1.934,0,2.9a.555.555,0,0,1-.664.555.623.623,0,0,1-.43-.643c0-.938,0-1.876,0-2.815-.22-.009-.5.008-.627-.213a.649.649,0,0,1,.126-.806.932.932,0,0,1,.5-.091c.029-.391-.088-.826.133-1.176" transform="translate(-117.335 -492.084)" fill="#009031"/>
    <path id="Caminho_58655" data-name="Caminho 58655" d="M967.556,536.862a.516.516,0,0,1,.858-.047c.241.344.113.793.142,1.185a1.022,1.022,0,0,1,.684.146.633.633,0,0,1-.006.823,1.065,1.065,0,0,1-.679.141c0,.966.014,1.933-.007,2.9a.555.555,0,0,1-.726.54.756.756,0,0,1-.38-.793c0-.88,0-1.761,0-2.64-.216-.018-.487,0-.619-.208a.625.625,0,0,1,.125-.812c.139-.109.328-.079.493-.1a2.621,2.621,0,0,1,.113-1.132" transform="translate(-886.516 -492.082)" fill="#009031"/>
    <path id="Caminho_58656" data-name="Caminho 58656" d="M38.76,552.8a1.728,1.728,0,0,1,1.745-.407,2.316,2.316,0,0,1,1.419,2.193.436.436,0,0,1-.377.488c-.809.014-1.62-.009-2.43.01a1.006,1.006,0,0,0,.842.847c.507.112.9-.29,1.33-.464.4-.1.659.437.483.757a1.451,1.451,0,0,1-.7.573,2.234,2.234,0,0,1-1.941.014,2.116,2.116,0,0,1-1.059-1.478,2.722,2.722,0,0,1,.686-2.534m.864.627a1.042,1.042,0,0,0-.515.818c.572.005,1.143,0,1.716,0a1.5,1.5,0,0,0-.254-.616.763.763,0,0,0-.947-.2" transform="translate(-34.853 -506.477)" fill="#009031"/>
    <path id="Caminho_58657" data-name="Caminho 58657" d="M90.52,552.4a1.814,1.814,0,0,1,1.662.355.607.607,0,0,1-.2,1.021c-.387-.016-.68-.389-1.082-.356-.269,0-.438.39-.183.544.433.3,1,.385,1.382.771a1.341,1.341,0,0,1-.151,2,1.9,1.9,0,0,1-2.382-.217.586.586,0,0,1,.176-.941c.45-.11.742.357,1.165.4.2.036.506-.038.508-.291.028-.212-.2-.316-.359-.4a3,3,0,0,1-1.333-.834,1.4,1.4,0,0,1,.792-2.047" transform="translate(-81.984 -506.504)" fill="#009031"/>
    <path id="Caminho_58658" data-name="Caminho 58658" d="M160.944,552.522a1.721,1.721,0,0,1,1.794.1,2.379,2.379,0,0,1,.976,2.043.4.4,0,0,1-.359.415c-.811.013-1.621,0-2.432.006a.99.99,0,0,0,.855.854c.538.118.925-.363,1.406-.488a.55.55,0,0,1,.29.924,2.277,2.277,0,0,1-2.357.529,2.1,2.1,0,0,1-1.261-1.659,2.569,2.569,0,0,1,1.089-2.724m-.041,1.733c.572,0,1.144,0,1.716,0a.935.935,0,0,0-.846-.905c-.495-.017-.808.466-.87.907" transform="translate(-146.543 -506.488)" fill="#009031"/>
    <path id="Caminho_58659" data-name="Caminho 58659" d="M322.548,552.353a1.742,1.742,0,0,1,1.6.44,2.786,2.786,0,0,1,.531,3.012,1.881,1.881,0,0,1-1.655,1.221,1.829,1.829,0,0,1-1.7-1,2.777,2.777,0,0,1,.382-3.185,1.733,1.733,0,0,1,.844-.488m.19,1.119a.871.871,0,0,0-.516.541,1.651,1.651,0,0,0,.214,1.655.706.706,0,0,0,1.062-.04,1.7,1.7,0,0,0,.122-1.729.742.742,0,0,0-.882-.427" transform="translate(-294.357 -506.48)" fill="#009031"/>
    <path id="Caminho_58660" data-name="Caminho 58660" d="M375.77,553.4a.588.588,0,0,1,.826-.511c.182.049.226.247.291.4a.924.924,0,0,1,.765-.441.621.621,0,0,1,.408.978c-.277.209-.635.283-.906.5a.674.674,0,0,0-.278.572c0,.607.007,1.215,0,1.823a.741.741,0,0,1-.3.673.524.524,0,0,1-.657-.106,1.158,1.158,0,0,1-.162-.737c.011-1.051-.011-2.1.01-3.153" transform="translate(-344.58 -506.965)" fill="#009031"/>
    <path id="Caminho_58661" data-name="Caminho 58661" d="M482.168,552.512a1.328,1.328,0,0,1,1.726.338.7.7,0,0,1,.241-.373.507.507,0,0,1,.777.227,10.825,10.825,0,0,1,.054,1.648c-.018.75.041,1.5-.036,2.251a.516.516,0,0,1-.864.265,1.032,1.032,0,0,1-.163-.347,1.339,1.339,0,0,1-.892.524,1.588,1.588,0,0,1-1.43-.661,2.941,2.941,0,0,1-.468-2.2,2.289,2.289,0,0,1,1.055-1.672m.715.971a.947.947,0,0,0-.646.747,1.72,1.72,0,0,0,.229,1.411.691.691,0,0,0,.88.191,1.082,1.082,0,0,0,.465-.742,1.736,1.736,0,0,0-.226-1.318.668.668,0,0,0-.7-.29" transform="translate(-441.156 -506.504)" fill="#009031"/>
    <path id="Caminho_58662" data-name="Caminho 58662" d="M537.66,553.038c.295-.306.96-.164.939.323a.9.9,0,0,1,.713-.48c.506-.065.778.675.447,1.006-.323.214-.733.295-1,.589a.77.77,0,0,0-.173.539c-.009.638.006,1.276,0,1.914a.555.555,0,0,1-.673.556.623.623,0,0,1-.418-.637c-.011-1.053,0-2.106-.006-3.158a.832.832,0,0,1,.176-.651" transform="translate(-492.886 -507.001)" fill="#009031"/>
    <path id="Caminho_58663" data-name="Caminho 58663" d="M571.379,552.41a.513.513,0,0,1,.724.36,1.35,1.35,0,0,1,2.123.133,1.7,1.7,0,0,1,.915-.565,1.472,1.472,0,0,1,1.291.375,1.676,1.676,0,0,1,.429,1.2q0,1.164,0,2.328a.842.842,0,0,1-.156.562.521.521,0,0,1-.753.035.672.672,0,0,1-.187-.516c0-.69,0-1.382,0-2.072a1.033,1.033,0,0,0-.231-.733.556.556,0,0,0-.757-.047,1.006,1.006,0,0,0-.282.778c-.008.72.007,1.44,0,2.162a.554.554,0,0,1-.675.555.618.618,0,0,1-.415-.631c-.015-.75.007-1.5-.008-2.252.008-.362-.264-.781-.665-.737a.639.639,0,0,0-.57.651c-.022.779.008,1.559-.012,2.339a.6.6,0,0,1-.491.643c-.37.061-.633-.323-.616-.661-.013-1.049,0-2.1-.006-3.147,0-.282.051-.636.342-.763" transform="translate(-523.654 -506.484)" fill="#009031"/>
    <path id="Caminho_58664" data-name="Caminho 58664" d="M680.868,552.933a.52.52,0,0,1,.618.2,1.051,1.051,0,0,1,.13.582c0,.718-.006,1.435,0,2.152a.692.692,0,0,0,.707.67.705.705,0,0,0,.662-.744c0-.692,0-1.384,0-2.076a.985.985,0,0,1,.142-.6.521.521,0,0,1,.821-.021,1.164,1.164,0,0,1,.157.7c0,.607,0,1.216,0,1.825a2.105,2.105,0,0,1-.357,1.338,1.771,1.771,0,0,1-1.505.611,1.716,1.716,0,0,1-1.4-.626,2.126,2.126,0,0,1-.348-1.323c0-.664,0-1.328,0-1.992a.7.7,0,0,1,.37-.693" transform="translate(-624.031 -507.022)" fill="#009031"/>
    <path id="Caminho_58665" data-name="Caminho 58665" d="M780.43,552.4a1.841,1.841,0,0,1,1.6.381.617.617,0,0,1-.194,1.014c-.413,0-.736-.432-1.167-.341a.3.3,0,0,0-.11.534c.439.3,1.008.391,1.4.777a1.362,1.362,0,0,1-.255,2.052,1.9,1.9,0,0,1-1.732.093,1.277,1.277,0,0,1-.692-.563.592.592,0,0,1,.314-.753c.522-.11.873.539,1.406.383a.3.3,0,0,0,.113-.548c-.5-.327-1.182-.423-1.54-.952a1.4,1.4,0,0,1,.865-2.077" transform="translate(-714.576 -506.525)" fill="#009031"/>
    <path id="Caminho_58666" data-name="Caminho 58666" d="M823.671,552.877a.552.552,0,0,1,.7.533c.026.636,0,1.274.01,1.911a1.664,1.664,0,0,0,.1.819.677.677,0,0,0,.953.239.856.856,0,0,0,.334-.721c.012-.748-.006-1.5.006-2.245a.547.547,0,0,1,.6-.558.6.6,0,0,1,.494.634c.012.748,0,1.5.006,2.244a1.761,1.761,0,0,1-.626,1.445,2.207,2.207,0,0,1-1.948.217,1.587,1.587,0,0,1-1.012-1.5c0-.8,0-1.6,0-2.4a.6.6,0,0,1,.382-.62" transform="translate(-754.975 -506.973)" fill="#009031"/>
    <path id="Caminho_58667" data-name="Caminho 58667" d="M929.441,552.391a1.825,1.825,0,0,1,1.586.378c.325.3.218,1-.28,1.023-.369-.091-.687-.43-1.089-.342a.3.3,0,0,0-.1.529c.4.283.918.368,1.3.691a1.344,1.344,0,0,1-.016,2.027,1.782,1.782,0,0,1-1.7.266,1.406,1.406,0,0,1-.872-.625.591.591,0,0,1,.318-.757c.449-.1.741.368,1.168.4.189.022.491-.035.489-.279.036-.212-.187-.324-.341-.407a2.854,2.854,0,0,1-1.372-.876,1.4,1.4,0,0,1,.9-2.03" transform="translate(-851.216 -506.518)" fill="#009031"/>
    <path id="Caminho_58668" data-name="Caminho 58668" d="M1000.81,552.422a1.325,1.325,0,0,1,1.587.392.568.568,0,0,1,.763-.418c.295.127.3.5.308.772q0,1.493,0,2.986a1.164,1.164,0,0,1-.157.682.545.545,0,0,1-.675.062c-.134-.085-.173-.252-.24-.384a1.45,1.45,0,0,1-.756.487,1.589,1.589,0,0,1-1.59-.681,3.04,3.04,0,0,1-.351-2.53,2.073,2.073,0,0,1,1.11-1.368m.535,1.048a1.036,1.036,0,0,0-.635.87,1.526,1.526,0,0,0,.369,1.386.674.674,0,0,0,.965-.079,1.71,1.71,0,0,0,.158-1.706.73.73,0,0,0-.856-.47" transform="translate(-916.632 -506.481)" fill="#009031"/>
    <path id="Caminho_58669" data-name="Caminho 58669" d="M1056.288,552.934a.591.591,0,0,1,.512-.647.522.522,0,0,1,.547.392,1.46,1.46,0,0,1,2.325.3,2.919,2.919,0,0,1,.2,1.445c0,.609,0,1.219,0,1.828a.619.619,0,0,1-.421.637.554.554,0,0,1-.671-.564c-.017-.777.009-1.553-.012-2.33a.69.69,0,1,0-1.377.008c-.023.776.006,1.554-.012,2.331a.564.564,0,0,1-.657.563.614.614,0,0,1-.436-.645c0-1.106,0-2.213,0-3.319" transform="translate(-968.64 -506.408)" fill="#009031"/>
    <path id="Caminho_58670" data-name="Caminho 58670" d="M1108.946,552.41a2.022,2.022,0,0,1,1.52.254.626.626,0,0,1-.125,1.069c-.3.009-.548-.2-.837-.239a.811.811,0,0,0-.784.437,1.65,1.65,0,0,0,.006,1.566.863.863,0,0,0,.609.441c.329.029.606-.187.916-.256a.518.518,0,0,1,.457.528.685.685,0,0,1-.406.631,1.87,1.87,0,0,1-1.887-.041,2.663,2.663,0,0,1-.709-3.3,1.951,1.951,0,0,1,1.24-1.085" transform="translate(-1015.533 -506.53)" fill="#009031"/>
    <path id="Caminho_58671" data-name="Caminho 58671" d="M1152.57,552.389a1.745,1.745,0,0,1,1.453.233,2.382,2.382,0,0,1,.985,2.06.4.4,0,0,1-.379.4c-.806.015-1.613-.007-2.419.01a1,1,0,0,0,.831.842c.508.129.9-.279,1.336-.456.334-.1.6.3.544.6a1.013,1.013,0,0,1-.47.574,2.4,2.4,0,0,1-1.864.314,1.981,1.981,0,0,1-1.27-1.153,2.926,2.926,0,0,1,.1-2.429,1.981,1.981,0,0,1,1.155-1m-.374,1.872c.573,0,1.146,0,1.719,0a.936.936,0,0,0-.876-.906.971.971,0,0,0-.843.907" transform="translate(-1055.585 -506.494)" fill="#009031"/>
    <path id="Caminho_58672" data-name="Caminho 58672" d="M1203.618,552.4a1.787,1.787,0,0,1,1.626.395.6.6,0,0,1-.237,1c-.4-.026-.729-.452-1.155-.33a.288.288,0,0,0-.1.515,13.251,13.251,0,0,1,1.346.73,1.352,1.352,0,0,1-.162,2.08,1.846,1.846,0,0,1-1.653.159,1.335,1.335,0,0,1-.788-.575c-.2-.339.106-.885.521-.79.358.072.619.4,1,.412.153,0,.379-.031.421-.212a.353.353,0,0,0-.228-.426c-.5-.265-1.121-.4-1.453-.9a1.393,1.393,0,0,1,.862-2.052" transform="translate(-1102.658 -506.523)" fill="#009031"/>
    <path id="Caminho_58673" data-name="Caminho 58673" d="M1053.495,136.487a3.582,3.582,0,0,1,.83-.119v2.367c-.67,0-1.338,0-2.008,0a5.547,5.547,0,0,1,1.178-2.247" transform="translate(-965 -125.053)" fill="#f5a100"/>
    <path id="Caminho_58674" data-name="Caminho 58674" d="M1083.757,136.518a2.2,2.2,0,0,1,.859.127,5.506,5.506,0,0,1,1.152,2.227c-.67,0-1.339.011-2.008-.007,0-.782.008-1.564,0-2.347" transform="translate(-993.831 -125.19)" fill="#f5a100"/>
    <path id="Caminho_58675" data-name="Caminho 58675" d="M1024.237,142.994a5.771,5.771,0,0,1,2.522-1.976,11.262,11.262,0,0,0-.815,1.986c-.57-.013-1.139,0-1.708-.011" transform="translate(-939.25 -129.317)" fill="#f5a100"/>
    <path id="Caminho_58676" data-name="Caminho 58676" d="M1105.666,141.128a5.689,5.689,0,0,1,2.536,1.967c-.576.008-1.151.006-1.726,0a9.386,9.386,0,0,0-.81-1.97" transform="translate(-1013.922 -129.418)" fill="#f5a100"/>
    <path id="Caminho_58677" data-name="Caminho 58677" d="M1011.066,174.672a5.824,5.824,0,0,1,.693-2.463c.656,0,1.313,0,1.969,0a15.155,15.155,0,0,0-.287,2.463c-.792,0-1.583,0-2.375,0" transform="translate(-927.172 -157.919)" fill="#f5a100"/>
    <path id="Caminho_58678" data-name="Caminho 58678" d="M1047.334,172.225c.722,0,1.444,0,2.167,0,0,.82,0,1.64,0,2.46h-2.444a11.631,11.631,0,0,1,.278-2.462" transform="translate(-960.176 -157.934)" fill="#f5a100"/>
    <path id="Caminho_58679" data-name="Caminho 58679" d="M1083.776,174.56c.017-.821-.017-1.642.018-2.462.715.021,1.43.008,2.146.007a12.612,12.612,0,0,1,.3,2.464c-.822,0-1.644.014-2.464-.01" transform="translate(-993.849 -157.818)" fill="#f5a100"/>
    <path id="Caminho_58680" data-name="Caminho 58680" d="M1117.217,172.2c.664.007,1.331-.019,2,.013a6.436,6.436,0,0,1,.67,2.438c-.795.022-1.592,0-2.386.01a13.7,13.7,0,0,0-.279-2.461" transform="translate(-1024.515 -157.908)" fill="#f5a100"/>
    <path id="Caminho_58681" data-name="Caminho 58681" d="M1011.166,208.928q1.178.012,2.356,0a18.421,18.421,0,0,0,.3,2.469h-1.961a5.609,5.609,0,0,1-.693-2.469" transform="translate(-927.263 -191.592)" fill="#f5a100"/>
    <path id="Caminho_58682" data-name="Caminho 58682" d="M1047.141,208.9c.81.014,1.62.008,2.43,0,.011.822,0,1.645.005,2.468-.72,0-1.441,0-2.161,0a10.609,10.609,0,0,1-.275-2.472" transform="translate(-960.251 -191.564)" fill="#f5a100"/>
    <path id="Caminho_58683" data-name="Caminho 58683" d="M1083.77,208.941c.819,0,1.638,0,2.457,0a14.064,14.064,0,0,1-.282,2.456c-.726.022-1.453.013-2.179,0,.011-.82,0-1.639,0-2.459" transform="translate(-993.84 -191.601)" fill="#f5a100"/>
    <path id="Caminho_58684" data-name="Caminho 58684" d="M1117.473,208.908c.792.014,1.585,0,2.377.007a5.9,5.9,0,0,1-.6,2.268c-.049.081-.083.22-.207.193-.62.009-1.24,0-1.86,0a14.954,14.954,0,0,0,.287-2.47" transform="translate(-1024.486 -191.574)" fill="#f5a100"/>
    <path id="Caminho_58685" data-name="Caminho 58685" d="M184.532,245.878a3.2,3.2,0,0,1,2.274.459.962.962,0,0,1,.139,1.441.783.783,0,0,1-.88-.025,1.915,1.915,0,0,0-1.892.006,2.459,2.459,0,0,0-.953,1.734,3.529,3.529,0,0,0,.409,2.341,1.644,1.644,0,0,0,1.361.8,2.309,2.309,0,0,0,1.228-.349.683.683,0,0,1,.78-.006.954.954,0,0,1,.061,1.346,2.363,2.363,0,0,1-1.474.644,3.142,3.142,0,0,1-2.668-.8,4.537,4.537,0,0,1-1.314-3.152,5.007,5.007,0,0,1,.881-3.165,3.176,3.176,0,0,1,2.048-1.27" transform="translate(-166.531 -225.442)" fill="#f5a100"/>
    <path id="Caminho_58686" data-name="Caminho 58686" d="M255.039,245.84a3.1,3.1,0,0,1,2.486.555,4.276,4.276,0,0,1,1.552,2.861,5.43,5.43,0,0,1-.5,3.154,3.368,3.368,0,0,1-1.9,1.678,3.157,3.157,0,0,1-2.89-.476,4.193,4.193,0,0,1-1.484-2.7,5.369,5.369,0,0,1,.568-3.457,3.26,3.26,0,0,1,2.172-1.619m.071,1.637a1.816,1.816,0,0,0-.961.921,3.889,3.889,0,0,0-.306,2.194,2.571,2.571,0,0,0,.833,1.71,1.651,1.651,0,0,0,1.431.29,1.763,1.763,0,0,0,1.1-.965,3.961,3.961,0,0,0,.3-2.194,2.765,2.765,0,0,0-.739-1.627,1.62,1.62,0,0,0-1.663-.329" transform="translate(-231.301 -225.383)" fill="#f5a100"/>
    <path id="Caminho_58687" data-name="Caminho 58687" d="M757.607,245.866a3.508,3.508,0,0,1,2.044.248,1.084,1.084,0,0,1,.706.926.778.778,0,0,1-.41.807,1.149,1.149,0,0,1-.848-.177,1.834,1.834,0,0,0-1.865.129,2.608,2.608,0,0,0-.875,1.821,3.185,3.185,0,0,0,.643,2.464,1.7,1.7,0,0,0,1.735.451c.345-.082.626-.331.974-.4.484-.085.8.464.753.886a1.237,1.237,0,0,1-.845.992,3.475,3.475,0,0,1-2.816-.066,3.626,3.626,0,0,1-1.693-1.956,5.6,5.6,0,0,1-.044-3.789,3.442,3.442,0,0,1,2.54-2.337" transform="translate(-692.132 -225.415)" fill="#f5a100"/>
    <path id="Caminho_58688" data-name="Caminho 58688" d="M1024,245.637c.544,0,1.089-.005,1.633,0,.138-.036.132.142.173.222a8.362,8.362,0,0,0,.744,1.761,5.7,5.7,0,0,1-2.55-1.982" transform="translate(-939.029 -225.25)" fill="#f5a100"/>
    <path id="Caminho_58689" data-name="Caminho 58689" d="M1052.266,245.676q1.006,0,2.012,0,0,1.189,0,2.379a3.163,3.163,0,0,1-.841-.13,5.592,5.592,0,0,1-1.172-2.249" transform="translate(-964.953 -225.29)" fill="#f5a100"/>
    <path id="Caminho_58690" data-name="Caminho 58690" d="M1083.766,245.669c.671-.015,1.343,0,2.015-.007a6.079,6.079,0,0,1-1.018,2.092c-.213.329-.661.221-.989.29-.009-.792,0-1.583-.007-2.375" transform="translate(-993.84 -225.276)" fill="#f5a100"/>
    <path id="Caminho_58691" data-name="Caminho 58691" d="M1106.31,245.674c.579,0,1.158,0,1.737,0a5.765,5.765,0,0,1-2.561,1.991,8.288,8.288,0,0,0,.824-1.993" transform="translate(-1013.757 -225.289)" fill="#f5a100"/>
    <path id="Caminho_58692" data-name="Caminho 58692" d="M346.725,246.66a.8.8,0,0,1,.947.368q1.364,2.086,2.725,4.174a4.7,4.7,0,0,0,.419.594q.006-2.091,0-4.183a1.155,1.155,0,0,1,.193-.74.751.751,0,0,1,1.106-.042.978.978,0,0,1,.217.692c0,2.186,0,4.372,0,6.558a.8.8,0,0,1-.511.825.817.817,0,0,1-.909-.4c-1.05-1.578-2.086-3.165-3.139-4.74-.012,1.439,0,2.878,0,4.316a1.007,1.007,0,0,1-.209.618.749.749,0,0,1-1.159-.085,1.909,1.909,0,0,1-.144-1.032c0-2.046,0-4.093,0-6.139a.817.817,0,0,1,.47-.787" transform="translate(-317.52 -226.146)" fill="#f5a100"/>
    <path id="Caminho_58693" data-name="Caminho 58693" d="M493.094,246.549a.775.775,0,0,1,.939.819c.011,2.156,0,4.312.006,6.468a1.122,1.122,0,0,1-.228.8.748.748,0,0,1-1.128-.068,1.466,1.466,0,0,1-.178-.812c0-2.074,0-4.15,0-6.224-.013-.4.139-.9.587-.983" transform="translate(-451.64 -226.066)" fill="#f5a100"/>
    <path id="Caminho_58694" data-name="Caminho 58694" d="M670.989,246.665a.793.793,0,0,1,.938.359c1.048,1.6,2.082,3.2,3.139,4.8.012-1.4,0-2.8.006-4.207a1.288,1.288,0,0,1,.183-.716.744.744,0,0,1,1.182.019,1.192,1.192,0,0,1,.167.7q0,3.2,0,6.392a.9.9,0,0,1-.413.858.79.79,0,0,1-1-.316c-1.06-1.593-2.1-3.2-3.172-4.784,0,1.357,0,2.716,0,4.074a1.355,1.355,0,0,1-.14.787.742.742,0,0,1-1.16.08,1.045,1.045,0,0,1-.214-.7c0-2.157,0-4.312,0-6.469a.859.859,0,0,1,.481-.865" transform="translate(-614.87 -226.151)" fill="#f5a100"/>
    <path id="Caminho_58695" data-name="Caminho 58695" d="M435.048,248.295a.8.8,0,0,1,.778-.852c.886,0,1.774-.011,2.66.006a.839.839,0,0,1,.076,1.574c-.669.034-1.341,0-2.01.013q0,.829,0,1.66c.563.012,1.13-.026,1.693.018.834.122.755,1.572-.1,1.588-.534.027-1.07-.013-1.6.019.015.815,0,1.63.009,2.444a1,1,0,0,1-.191.689.746.746,0,0,1-1.125-.016,1.12,1.12,0,0,1-.193-.762c.006-2.127,0-4.254,0-6.381" transform="translate(-398.945 -226.908)" fill="#f5a100"/>
    <path id="Caminho_58696" data-name="Caminho 58696" d="M527.3,247.426a10.522,10.522,0,0,1,1.562-.046,3.844,3.844,0,0,1,2.253.5,3.726,3.726,0,0,1,1.572,2.678,5.444,5.444,0,0,1-.429,3.295,3.119,3.119,0,0,1-1.869,1.569,6.5,6.5,0,0,1-1.942.147c-.332-.007-.665.017-1-.011a.746.746,0,0,1-.641-.771q0-3.278,0-6.557a.8.8,0,0,1,.491-.8m1.008,1.559c.025,1.666-.014,3.333.019,5a6.865,6.865,0,0,0,1.545-.094,1.724,1.724,0,0,0,1.072-1.026,4.039,4.039,0,0,0,.188-2.075,2.132,2.132,0,0,0-.947-1.573,3.636,3.636,0,0,0-1.878-.231" transform="translate(-483.092 -226.847)" fill="#f5a100"/>
    <path id="Caminho_58697" data-name="Caminho 58697" d="M611.554,247.612a1.08,1.08,0,0,1,.82-.193c.774.015,1.551-.017,2.324.014a.836.836,0,0,1,.076,1.56c-.654.058-1.313,0-1.97.027,0,.551,0,1.1,0,1.653.6.021,1.2-.032,1.8.027a.838.838,0,0,1,.242,1.456,1.089,1.089,0,0,1-.651.135c-.464,0-.928,0-1.391,0-.007.575,0,1.15-.006,1.725.676.03,1.355-.017,2.03.022a.828.828,0,0,1-.057,1.563c-.909.024-1.82.007-2.731.009a.8.8,0,0,1-.767-.869c-.007-2.045,0-4.09,0-6.134a1.383,1.383,0,0,1,.278-.992" transform="translate(-560.555 -226.888)" fill="#f5a100"/>
    <path id="Caminho_58698" data-name="Caminho 58698" d="M832.606,247.586a1.178,1.178,0,0,1,.78-.154c.773.013,1.548-.017,2.322.013a.844.844,0,0,1,.276,1.456.758.758,0,0,1-.529.129c-.547,0-1.094-.006-1.64,0,0,.55,0,1.1,0,1.65.6.028,1.208-.03,1.808.031a.84.84,0,0,1,.289,1.42.889.889,0,0,1-.622.17l-1.469,0c-.008.575,0,1.151-.006,1.726.676.022,1.354-.017,2.031.019a.85.85,0,0,1,.2,1.465.834.834,0,0,1-.506.113c-.8,0-1.6,0-2.4,0a.773.773,0,0,1-.663-.283,1.211,1.211,0,0,1-.187-.753q0-3.027,0-6.053a1.225,1.225,0,0,1,.32-.948" transform="translate(-763.226 -226.9)" fill="#f5a100"/>
    <path id="Caminho_58699" data-name="Caminho 58699" d="M226.033,383.981a.789.789,0,0,1,.738.155.978.978,0,0,1,.256.7q0,3.276,0,6.55a.974.974,0,0,1-.256.7.759.759,0,0,1-1.105-.115,1.937,1.937,0,0,1-.171-1.08c0-2.02,0-4.041,0-6.061a.841.841,0,0,1,.534-.855" transform="translate(-206.783 -352.091)" fill="#f5a100"/>
    <path id="Caminho_58700" data-name="Caminho 58700" d="M259.571,383.988a.812.812,0,0,1,.912.367q1.579,2.411,3.163,4.817c.026-1.28.005-2.561.011-3.843a1.956,1.956,0,0,1,.158-1.078.764.764,0,0,1,1.071-.15,1.106,1.106,0,0,1,.3.907c0,2.1,0,4.2,0,6.3a.9.9,0,0,1-.472.913.819.819,0,0,1-.992-.4c-1.041-1.571-2.078-3.143-3.13-4.706-.01,1.289,0,2.577,0,3.865a1.741,1.741,0,0,1-.167,1,.745.745,0,0,1-1.148.063,1.074,1.074,0,0,1-.218-.733c0-2.155,0-4.311,0-6.465a.831.831,0,0,1,.513-.853" transform="translate(-237.56 -352.088)" fill="#f5a100"/>
    <path id="Caminho_58701" data-name="Caminho 58701" d="M491.126,383.963a.779.779,0,0,1,.894.393q.619.991,1.225,1.988c.47-.654.846-1.37,1.292-2.039a.76.76,0,0,1,.872-.339.867.867,0,0,1,.393,1.269c-.54.863-1.1,1.712-1.652,2.571q.86,1.329,1.729,2.654a1.5,1.5,0,0,1,.4,1.222.746.746,0,0,1-.889.562.866.866,0,0,1-.568-.485c-.514-.828-1.042-1.646-1.552-2.476-.487.709-.919,1.453-1.387,2.174a2.063,2.063,0,0,1-.586.736.772.772,0,0,1-.955-.269,1.039,1.039,0,0,1,.042-1.069c.657-1.02,1.328-2.03,1.985-3.05-.547-.851-1.1-1.7-1.645-2.551a.871.871,0,0,1,.4-1.292" transform="translate(-449.538 -352.071)" fill="#f5a100"/>
    <path id="Caminho_58702" data-name="Caminho 58702" d="M634.022,383.991a.776.776,0,0,1,.783.2,1.24,1.24,0,0,1,.219.824q0,3.154,0,6.308a1.087,1.087,0,0,1-.218.731.763.763,0,0,1-.983.11.992.992,0,0,1-.331-.842c0-2.158,0-4.316,0-6.474a.822.822,0,0,1,.53-.852" transform="translate(-580.925 -352.099)" fill="#f5a100"/>
    <path id="Caminho_58703" data-name="Caminho 58703" d="M668.163,384.045a.759.759,0,0,1,.987.167,1.378,1.378,0,0,1,.19.861c-.007,1.837.007,3.675-.007,5.512.646.037,1.293-.015,1.938.025a.808.808,0,0,1,.508,1.124.682.682,0,0,1-.67.451c-.883-.007-1.767.009-2.649-.007-.432-.021-.66-.49-.648-.875q0-3.242,0-6.483a.883.883,0,0,1,.35-.776" transform="translate(-612.4 -352.077)" fill="#f5a100"/>
    <path id="Caminho_58704" data-name="Caminho 58704" d="M781.214,383.237a3.163,3.163,0,0,1,1.9.214,1.024,1.024,0,0,1,.676.844.864.864,0,0,1-.476.858,1.215,1.215,0,0,1-.842-.149,1.363,1.363,0,0,0-1.076-.085.688.688,0,0,0-.414.843c.14.309.491.423.786.536a4.519,4.519,0,0,1,1.982,1.006,2.649,2.649,0,0,1,.512,2.226,2.5,2.5,0,0,1-1.373,1.852,3.621,3.621,0,0,1-2.427.1,1.528,1.528,0,0,1-1.134-.821.834.834,0,0,1,.533-1.132c.537-.033.985.338,1.5.415a1.088,1.088,0,0,0,1.134-.371.87.87,0,0,0,.036-.974,1.939,1.939,0,0,0-.909-.5,4.029,4.029,0,0,1-1.865-.944,2.385,2.385,0,0,1-.369-2.093,2.438,2.438,0,0,1,1.826-1.824" transform="translate(-714.607 -351.382)" fill="#f5a100"/>
    <path id="Caminho_58705" data-name="Caminho 58705" d="M367.116,384.837a1.077,1.077,0,0,1,.8-.189c1.134.013,2.27-.015,3.4.013.768.059.87,1.335.165,1.567a9.184,9.184,0,0,1-1.309.033c0,1.923,0,3.848,0,5.771a.975.975,0,0,1-.245.686.751.751,0,0,1-1.075-.05,1.085,1.085,0,0,1-.21-.715c0-1.9,0-3.794,0-5.691a9.756,9.756,0,0,1-1.3-.032.876.876,0,0,1-.227-1.393" transform="translate(-336.429 -352.732)" fill="#f5a100"/>
    <path id="Caminho_58706" data-name="Caminho 58706" d="M436.361,384.829a1.327,1.327,0,0,1,.892-.18c.721.012,1.444-.017,2.164.013a.777.777,0,0,1,.636.992.7.7,0,0,1-.645.6c-.6.015-1.208.009-1.811,0-.017.56-.02,1.122,0,1.683.6-.009,1.21-.02,1.813,0,.8.143.719,1.542-.1,1.572-.573.017-1.147,0-1.72.006,0,.578-.008,1.158.008,1.736.66,0,1.321-.019,1.981,0a.818.818,0,0,1,0,1.572c-.939.015-1.88,0-2.82,0a.806.806,0,0,1-.691-.888c-.009-2.045,0-4.09,0-6.135a1.265,1.265,0,0,1,.307-.986" transform="translate(-399.871 -352.732)" fill="#f5a100"/>
    <path id="Caminho_58707" data-name="Caminho 58707" d="M564.495,384.825a.932.932,0,0,1,.669-.167c1.167.009,2.334-.009,3.5.008.765.042.894,1.292.217,1.562a9.864,9.864,0,0,1-1.34.053c.01,1.84,0,3.678,0,5.518a1.289,1.289,0,0,1-.228.9.757.757,0,0,1-1.113-.032,1.055,1.055,0,0,1-.187-.714c.007-1.89-.006-3.781.006-5.671a13.369,13.369,0,0,1-1.341-.051.882.882,0,0,1-.188-1.41" transform="translate(-517.411 -352.741)" fill="#f5a100"/>
    <path id="Caminho_58708" data-name="Caminho 58708" d="M722.7,384.714a2.731,2.731,0,0,1,1-.084c.663.015,1.328-.03,1.99.022a.822.822,0,0,1,0,1.574c-.629.041-1.26.007-1.89.015q0,.836,0,1.672c.6,0,1.2-.017,1.8.007a.83.83,0,0,1,.15,1.513,1.155,1.155,0,0,1-.478.069c-.492,0-.985-.008-1.477,0,.006.577,0,1.153.005,1.73.655,0,1.313-.018,1.968.008.7.09.8,1.173.227,1.5a.942.942,0,0,1-.474.078c-.83-.005-1.66,0-2.488,0a.712.712,0,0,1-.669-.4,1.507,1.507,0,0,1-.1-.743c.005-2.047,0-4.094,0-6.141a.906.906,0,0,1,.433-.826" transform="translate(-662.331 -352.712)" fill="#f5a100"/>
  </g>
</svg>
