<svg id="Grupo_15397" data-name="Grupo 15397" xmlns="http://www.w3.org/2000/svg" xmlns:xlink="http://www.w3.org/1999/xlink" width="149.258" height="48" viewBox="0 0 149.258 48">
  <defs>
    <clipPath id="clip-path">
      <rect id="Retângulo_5088" data-name="Retângulo 5088" width="149.258" height="48" fill="none"/>
    </clipPath>
  </defs>
  <g id="Grupo_15396" data-name="Grupo 15396" clip-path="url(#clip-path)">
    <rect id="Retângulo_5086" data-name="Retângulo 5086" width="11.19" height="46.119" rx="5.207" transform="translate(66.864 0.941)" fill="#95b42c"/>
    <path id="Caminho_58709" data-name="Caminho 58709" d="M31.049,36.476c-.2-7.494-5.648-9.789-5.648-9.789-.446-.223.006-.537.006-.537A12.251,12.251,0,0,0,29.733,15c-1.249-10.438-12.8-9.947-12.8-9.947H.248c-.268,0-.067.569-.067.569L5.11,26.986a2.866,2.866,0,0,1,.156,1.483L.047,50.828c-.145.323.089.346.089.346H15.653c7,.134,9.82-2.141,9.82-2.141,6.066-4.416,5.576-12.557,5.576-12.557M12.844,12.854s4.176-.388,5.626,2.378a4.991,4.991,0,0,1,.613,2.682A4.991,4.991,0,0,1,18.47,20.6c-1.45,2.766-5.626,2.378-5.626,2.378-.293,0-.268-.377-.268-.377V13.231s-.025-.376.268-.376m6.351,27.062c-1.483,3.206-6.318,2.9-6.318,2.9-.329,0-.3-.423-.3-.423V31.645s-.028-.423.3-.423c0,0,4.723-.478,6.4,2.533a7.068,7.068,0,0,1,.611,3.15,5.606,5.606,0,0,1-.689,3.012" transform="translate(0 -4.114)" fill="#95b42c"/>
    <path id="Caminho_58710" data-name="Caminho 58710" d="M210.9,17.348h-9.033a1.153,1.153,0,0,1-1.07-1.2s.669-7.46-4.349-7.193c0,0-3.948-.636-4.081,6.156,0,0-.268,9.769,0,14.921,0,0-.067,5.821,1.238,7.594a3.49,3.49,0,0,0,3.044,1.505s3.312.4,3.78-3.914a39.843,39.843,0,0,0,.234-5.754s-.056-.591.48-.546h9.39s1-.022.959,1.182a39.078,39.078,0,0,1-.268,5.665s-.379,12.8-15.434,12.222c0,0-11.129.089-13.538-9.412a54.343,54.343,0,0,1-1.071-9.925s-.022-5.442.156-12.98c0,0-.022-9.836,5.843-13.226,0,0,3.412-2.587,9.457-2.431,0,0,8.654-.178,12.066,5.509,0,0,2.5,3.122,2.8,10.527v.9a.355.355,0,0,1-.384.4Z" transform="translate(-147.658 0)" fill="#95b42c"/>
    <path id="Caminho_58711" data-name="Caminho 58711" d="M527.31,36.113V26.306h2.763c1.743-.065,2.427.981,2.465,2.432a1.906,1.906,0,0,1-1.446,2.158v.026c1.278.144,1.678,1.1,1.678,2.3.013,1.948-1.033,2.981-2.9,2.89Zm1.071-5.61h.955c1.3.065,2.052-.17,2.052-1.674,0-1.2-.452-1.582-2.065-1.543h-.942Zm1.691,4.629c1.175.013,1.588-.549,1.588-1.844,0-1.948-1.226-1.8-2.324-1.8h-.955v3.648Z" transform="translate(-429.743 -21.436)" fill="#95b42c"/>
    <path id="Caminho_58712" data-name="Caminho 58712" d="M570.8,44.016c.065,1.425-.658,2.616-2.169,2.616-1.343,0-2.324-.916-2.324-3.844,0-1.53.387-3.818,2.3-3.818,2.324,0,2.195,2.223,2.246,3.923H567.37c.013.248.013.536.013.863,0,.955.22,2,1.278,2,.981,0,1.252-.915,1.188-1.739ZM569.8,42.042c-.039-.85.013-2.2-1.175-2.2s-1.213,1.334-1.252,2.2Z" transform="translate(-461.528 -31.759)" fill="#95b42c"/>
    <path id="Caminho_58713" data-name="Caminho 58713" d="M598.311,31.333h1.2v.876h-1.188v4.956c0,.248-.09.562.478.562h.684V38.6h-1.123c-.62,0-1.058-.078-1.058-1.19v-5.2h-.994v-.876h.994V29.359h1.007Z" transform="translate(-485.976 -23.927)" fill="#95b42c"/>
    <path id="Caminho_58714" data-name="Caminho 58714" d="M619.1,31.333h1.2v.876h-1.188v4.956c0,.248-.09.562.478.562h.684V38.6h-1.123c-.62,0-1.059-.078-1.059-1.19v-5.2H617.1v-.876h.994V29.359H619.1Z" transform="translate(-502.92 -23.927)" fill="#95b42c"/>
    <path id="Caminho_58715" data-name="Caminho 58715" d="M644.755,44.016c.065,1.425-.658,2.616-2.169,2.616-1.343,0-2.324-.916-2.324-3.844,0-1.53.387-3.818,2.3-3.818,2.324,0,2.195,2.223,2.246,3.923h-3.485c.013.248.013.536.013.863,0,.955.22,2,1.278,2,.981,0,1.252-.915,1.188-1.739Zm-1.007-1.974c-.039-.85.013-2.2-1.174-2.2s-1.213,1.334-1.252,2.2Z" transform="translate(-521.797 -31.759)" fill="#95b42c"/>
    <path id="Caminho_58716" data-name="Caminho 58716" d="M676.266,40.819h.026a1.86,1.86,0,0,1,2.1-1.268v1.02c-1.3-.248-2.091.614-2.091,1.922V46.9h-1.02v-7.27h.981Z" transform="translate(-550.339 -32.222)" fill="#95b42c"/>
    <path id="Caminho_58717" data-name="Caminho 58717" d="M530.165,103.045c-.039-1.151-.4-2.158-1.743-2.158-1.859,0-1.885,2.668-1.885,3.975-.013.222-.013.484-.013.785,0,1.452.258,3.518,1.9,3.518,1.278,0,1.536-1.059,1.678-2.131.039-.222.026-.445.065-.667h1.071a2.186,2.186,0,0,0-.026.3,2.2,2.2,0,0,1-.026.3,3.66,3.66,0,0,1-.568,2.079,2.4,2.4,0,0,1-2.1,1.1c-2.982,0-3.085-2.916-3.085-5.257,0-2.21.323-4.982,3.072-4.982,1.82,0,2.8,1.386,2.737,3.138Z" transform="translate(-428.209 -81.421)" fill="#95b42c"/>
    <path id="Caminho_58718" data-name="Caminho 58718" d="M570.834,121.28c-1.549,0-2.569-.941-2.569-4.08,0-2.2.813-3.583,2.569-3.583S573.4,115,573.4,117.2c0,3.138-.994,4.08-2.569,4.08m0-6.786c-1.046,0-1.51.837-1.51,3.034,0,1.713.323,2.877,1.51,2.877,1.213,0,1.51-1.164,1.51-2.877,0-2.2-.439-3.034-1.51-3.034" transform="translate(-463.12 -92.595)" fill="#95b42c"/>
    <path id="Caminho_58719" data-name="Caminho 58719" d="M603.615,105.981h1.2v.876h-1.188v4.956c0,.248-.09.562.478.562h.684v.876h-1.123c-.62,0-1.058-.078-1.058-1.19v-5.2h-.994v-.876h.994v-1.974h1.007Z" transform="translate(-490.299 -84.763)" fill="#95b42c"/>
    <path id="Caminho_58720" data-name="Caminho 58720" d="M623.01,105.981h1.2v.876h-1.188v4.956c0,.248-.09.562.478.562h.684v.876h-1.123c-.62,0-1.059-.078-1.059-1.19v-5.2h-.994v-.876H622v-1.974h1.007Z" transform="translate(-506.105 -84.763)" fill="#95b42c"/>
    <path id="Caminho_58721" data-name="Caminho 58721" d="M647.3,121.28c-1.549,0-2.569-.941-2.569-4.08,0-2.2.813-3.583,2.569-3.583s2.569,1.386,2.569,3.583c0,3.138-.994,4.08-2.569,4.08m0-6.786c-1.046,0-1.51.837-1.51,3.034,0,1.713.323,2.877,1.51,2.877,1.213,0,1.51-1.164,1.51-2.877,0-2.2-.439-3.034-1.51-3.034" transform="translate(-525.436 -92.595)" fill="#95b42c"/>
    <path id="Caminho_58722" data-name="Caminho 58722" d="M683.538,114.612a2.25,2.25,0,0,1,1.82-.994,1.619,1.619,0,0,1,1.768,1.857v5.61h-1.02v-5.322c0-.772-.245-1.268-1.071-1.268a1.394,1.394,0,0,0-1.007.405,1.576,1.576,0,0,0-.465,1.321v4.864h-1.02v-7.27h.994Z" transform="translate(-556.255 -92.596)" fill="#95b42c"/>
    <rect id="Retângulo_5087" data-name="Retângulo 5087" width="1.071" height="9.807" transform="translate(97.799 32.494)" fill="#95b42c"/>
    <path id="Caminho_58723" data-name="Caminho 58723" d="M545.817,189.26a2.249,2.249,0,0,1,1.82-.994,1.619,1.619,0,0,1,1.768,1.857v5.61h-1.02v-5.322c0-.772-.245-1.268-1.071-1.268a1.4,1.4,0,0,0-1.007.405,1.576,1.576,0,0,0-.465,1.321v4.864h-1.02v-7.27h.994Z" transform="translate(-444.016 -153.432)" fill="#95b42c"/>
    <path id="Caminho_58724" data-name="Caminho 58724" d="M581.032,175.617h1.02v1.307h-1.02Zm0,2.537h1.02v7.27h-1.02Z" transform="translate(-473.525 -143.123)" fill="#95b42c"/>
    <path id="Caminho_58725" data-name="Caminho 58725" d="M594.126,180.629h1.2v.876h-1.187v4.956c0,.248-.09.562.478.562h.684v.876h-1.123c-.62,0-1.058-.078-1.058-1.19v-5.2h-.994v-.876h.994v-1.974h1.007Z" transform="translate(-482.566 -145.599)" fill="#95b42c"/>
    <path id="Caminho_58726" data-name="Caminho 58726" d="M617.309,175.617h1.02v1.307h-1.02Zm0,2.537h1.02v7.27h-1.02Z" transform="translate(-503.09 -143.123)" fill="#95b42c"/>
    <path id="Caminho_58727" data-name="Caminho 58727" d="M637.71,195.733a.748.748,0,0,0-.232.052c-.865.039-1.188-.039-1.291-1.033h-.026a1.823,1.823,0,0,1-1.588,1.177c-1.446,0-1.846-.824-1.846-2.132a1.875,1.875,0,0,1,1.033-1.765c.581-.275,2.014-.811,2.156-.915.219-.17.194-.458.194-.837,0-.837-.31-1.138-1.136-1.138-.929,0-1.046.431-1.046,1.282h-.916c-.052-1.517.671-2.158,2.13-2.158a1.737,1.737,0,0,1,1.949,1.975v4.171c0,.2-.026.445.181.549a1.1,1.1,0,0,0,.219.026,1.176,1.176,0,0,0,.219-.013Zm-1.678-3.923c-.5.3-1.059.523-1.614.785a1.288,1.288,0,0,0-.632,1.255c0,.732.181,1.2,1.007,1.2a1.329,1.329,0,0,0,1.239-1.477Z" transform="translate(-515.655 -153.432)" fill="#95b42c"/>
    <path id="Caminho_58728" data-name="Caminho 58728" d="M665.565,180.629h1.2v.876h-1.187v4.956c0,.248-.09.562.478.562h.684v.876h-1.123c-.619,0-1.058-.078-1.058-1.19v-5.2h-.994v-.876h.994v-1.974h1.007Z" transform="translate(-540.786 -145.599)" fill="#95b42c"/>
    <path id="Caminho_58729" data-name="Caminho 58729" d="M688.748,175.617h1.02v1.307h-1.02Zm0,2.537h1.02v7.27h-1.02Z" transform="translate(-561.311 -143.123)" fill="#95b42c"/>
    <path id="Caminho_58730" data-name="Caminho 58730" d="M701.515,189.326h1.059l1.626,6.395h.026l1.627-6.395h1.059l-2.156,7.27h-1.11Z" transform="translate(-571.716 -154.296)" fill="#95b42c"/>
    <path id="Caminho_58731" data-name="Caminho 58731" d="M741.867,193.314c.065,1.425-.658,2.615-2.169,2.615-1.343,0-2.324-.916-2.324-3.844,0-1.53.387-3.818,2.3-3.818,2.324,0,2.195,2.223,2.246,3.923h-3.485c.013.248.013.536.013.863,0,.955.22,2,1.278,2,.981,0,1.252-.915,1.188-1.739Zm-1.007-1.975c-.039-.85.013-2.2-1.175-2.2s-1.213,1.334-1.252,2.2Z" transform="translate(-600.94 -153.432)" fill="#95b42c"/>
    <path id="Caminho_58732" data-name="Caminho 58732" d="M517.192,5.824H463.031l5.559,21.1s.3,1.241.3,1.427c.019.152,0,.79,0,.79,0,.186-.3,1.427-.3,1.427l-5.559,21.1h54.161s9.289.13,9.423-8.977V14.8c-.135-9.107-9.423-8.977-9.423-8.977M526.051,29.6V43.708c-.79,7.665-9.04,7.411-9.04,7.411h-53.3l5.309-20.547a6.749,6.749,0,0,0,.371-1.613v-.427a6.748,6.748,0,0,0-.371-1.613L463.71,6.373h53.3s8.251-.255,9.04,7.41Z" transform="translate(-377.358 -4.746)" fill="#95b42c"/>
  </g>
</svg>
