<svg xmlns="http://www.w3.org/2000/svg" width="92.21" height="92" viewBox="0 0 92.21 92">
  <g id="Grupo_15402" data-name="Grupo 15402" transform="translate(12454 4370)">
    <path id="Subtração_4" data-name="Subtração 4" d="M37.72,75.385A37.617,37.617,0,1,1,52.4,72.423,37.519,37.519,0,0,1,37.72,75.385Zm10-62.1h0l-9.245,9.239V62.276h12.94V35.218L59.906,43.7l9.146-9.139L47.725,13.288ZM24.062,35.218V62.276H37V22.527l-9.265-9.258L6.41,34.58l9.146,9.138,8.5-8.5Z" transform="translate(-12445.621 -4361.744)" fill="#12a237"/>
    <path id="Caminho_58734" data-name="Caminho 58734" d="M161.255,486.549a3.092,3.092,0,0,1,.7,4.656,3.2,3.2,0,0,1-4.692.423,6.624,6.624,0,0,1-1.362-1.417l.7-.791a3.881,3.881,0,0,0,1.049,1.27,2.1,2.1,0,0,0,3.165-.368,1.957,1.957,0,0,0-.184-2.981,2.826,2.826,0,0,0-.865-.478l-.828,1.049.644.515-.57.718-1.619-1.27,1.859-2.374a6.147,6.147,0,0,1,2.006,1.049" transform="translate(-12594.056 -4779.39)" fill="#1c1c1b"/>
    <path id="Caminho_58735" data-name="Caminho 58735" d="M140.276,460.636,135.62,464.8l-.92-1.031,3.828-3.423-1.785-2.006.828-.736Z" transform="translate(-12576.756 -4756.625)" fill="#1c1c1b"/>
    <path id="Caminho_58736" data-name="Caminho 58736" d="M110.848,431.449a2.883,2.883,0,0,1-1.086,4.306,2.929,2.929,0,0,1-4.361-.865,3.225,3.225,0,0,1,5.447-3.441m-4.619,2.926c.644,1.03,1.914.7,2.779.147.846-.534,1.693-1.546,1.049-2.576-.662-1.049-1.9-.718-2.779-.166-.9.57-1.73,1.546-1.049,2.595" transform="translate(-12552.39 -4734.062)" fill="#1c1c1b"/>
    <path id="Caminho_58737" data-name="Caminho 58737" d="M91.495,394.591l.846,2.116-5.815,2.319-.938-2.374c-.386-.957-.442-2.043.681-2.484a1.434,1.434,0,0,1,1.822.607,1.5,1.5,0,0,1,.865-1.84c1.362-.552,2.1.515,2.539,1.656m-4.95,2.153.294.718L88.5,396.8l-.239-.626c-.221-.57-.644-1.086-1.325-.81-.607.258-.589.865-.386,1.38m2.484-.791.221.552,1.822-.718-.239-.607c-.239-.589-.681-1.215-1.4-.92-.81.313-.662,1.067-.4,1.693" transform="translate(-12536.478 -4703.737)" fill="#1c1c1b"/>
    <path id="Caminho_58738" data-name="Caminho 58738" d="M79.462,349.417l-1.435.846.534,2.613,1.638.239.276,1.343-6.606-1.1L73.5,351.57,79.168,348Zm-4.895,2.889,3.018.478-.4-2.043Z" transform="translate(-12526.818 -4667.193)" fill="#1c1c1b"/>
    <path id="Caminho_58739" data-name="Caminho 58739" d="M76.093,319.567l-6.257.147-.037-1.38,5.153-.129-.074-2.687,1.1-.018Z" transform="translate(-12523.8 -4640.674)" fill="#1c1c1b"/>
    <path id="Caminho_58740" data-name="Caminho 58740" d="M83.173,249.633a2.889,2.889,0,0,1-3.9,2.135,2.938,2.938,0,0,1-2.337-3.791,2.9,2.9,0,0,1,3.9-2.153,2.929,2.929,0,0,1,2.337,3.809m-5.3-1.4c-.313,1.178.791,1.877,1.767,2.135s2.282.184,2.595-.975c.313-1.2-.754-1.877-1.767-2.153-.994-.258-2.263-.221-2.595.994" transform="translate(-12529.518 -4583.694)" fill="#1c1c1b"/>
    <path id="Caminho_58741" data-name="Caminho 58741" d="M95.9,208.974,94,208.79c-.644-.074-.865-.018-1.178.589l-.221.46,2.337,1.122-.589,1.233L88.7,209.489l1.1-2.3c.46-.957,1.288-1.748,2.411-1.2a1.534,1.534,0,0,1,.736,1.951,1.211,1.211,0,0,1,1.27-.5l2.282.2Zm-5.465-.92-.294.607,1.638.791.276-.57c.276-.57.386-1.251-.276-1.583s-1.049.147-1.343.754" transform="translate(-12539.222 -4551.169)" fill="#1c1c1b"/>
    <path id="Caminho_58742" data-name="Caminho 58742" d="M120.61,170.689a3.114,3.114,0,0,1-4.619.883,3.205,3.205,0,0,1-.589-4.674,6.549,6.549,0,0,1,1.362-1.4l.81.662a3.5,3.5,0,0,0-1.215,1.1,2.105,2.105,0,0,0,.478,3.147,1.974,1.974,0,0,0,2.981-.294,2.656,2.656,0,0,0,.442-.883l-1.086-.791-.478.662-.736-.534,1.215-1.675,2.447,1.767a6.96,6.96,0,0,1-1.012,2.024" transform="translate(-12560.403 -4518.276)" fill="#1c1c1b"/>
    <path id="Caminho_58743" data-name="Caminho 58743" d="M151.693,140.238l-1.472-.773-1.951,1.822.662,1.527-.994.939-2.539-6.2,1.325-1.251,6.017,2.926Zm-5.042-2.65,1.178,2.815,1.527-1.435Z" transform="translate(-12585.487 -4494.449)" fill="#1c1c1b"/>
    <path id="Caminho_58744" data-name="Caminho 58744" d="M181.593,108.185l-4.656-3.11,2.705,4.324-1.049.662-3.294-5.318,1.711-1.067,4.674,3.128-2.705-4.361,1.049-.644,3.294,5.318Z" transform="translate(-12609.886 -4466.298)" fill="#1c1c1b"/>
    <path id="Caminho_58745" data-name="Caminho 58745" d="M221.066,96.912l-2.466-5.76,1.288-.552,2.447,5.76Z" transform="translate(-12645.218 -4457.16)" fill="#1c1c1b"/>
    <path id="Caminho_58746" data-name="Caminho 58746" d="M249.3,84.422a3.093,3.093,0,0,1-4.159-2.208,3.2,3.2,0,0,1,2.447-4.012,6.514,6.514,0,0,1,1.564-.2l.221,1.012a3.492,3.492,0,0,0-1.307.092,2.083,2.083,0,0,0-1.527,2.705,2.019,2.019,0,0,0,2.668,1.564,3.282,3.282,0,0,0,1.215-.607l.313.957a3.609,3.609,0,0,1-1.435.7" transform="translate(-12666.775 -4446.878)" fill="#1c1c1b"/>
    <path id="Caminho_58747" data-name="Caminho 58747" d="M314.168,73.078l-.129,5.152-1.4-.037.129-5.153L310.8,73l.037-1.1,5.318.11-.037,1.123Z" transform="translate(-12720.451 -4441.9)" fill="#1c1c1b"/>
    <path id="Caminho_58748" data-name="Caminho 58748" d="M349.1,80.546l1.122-6.146,4.012.718-.184.957-2.668-.5-.294,1.619,2.558.46-.184.939-2.539-.478-.313,1.73,2.742.5-.166.938Z" transform="translate(-12751.704 -4443.941)" fill="#1c1c1b"/>
    <path id="Caminho_58749" data-name="Caminho 58749" d="M383.5,89.516l-.589-2.926-2.392,1.822-1.417-.534,3.276-2.263-.883-3.515,1.491.552.552,2.631,2.116-1.656,1.38.515-2.981,2.1.994,3.828Z" transform="translate(-12776.184 -4450.223)" fill="#1c1c1b"/>
    <path id="Caminho_58750" data-name="Caminho 58750" d="M427.972,100.513l-2.558,4.472-1.215-.7,2.558-4.453-1.693-.975.534-.957,4.619,2.631-.552.957Z" transform="translate(-12812.984 -4463.116)" fill="#1c1c1b"/>
    <rect id="Retângulo_5089" data-name="Retângulo 5089" width="6.257" height="1.38" transform="matrix(0.605, -0.796, 0.796, 0.605, -12384.364, -4356.002)" fill="#1c1c1b"/>
    <path id="Caminho_58751" data-name="Caminho 58751" d="M466.3,142.916l4.416-4.416.994.975-3.644,3.644,1.914,1.9-.791.791Z" transform="translate(-12847.336 -4496.245)" fill="#1c1c1b"/>
    <path id="Caminho_58752" data-name="Caminho 58752" d="M488.3,169.217l5.024-3.717,2.429,3.276-.773.57-1.619-2.19-1.307.975,1.527,2.079-.754.57-1.546-2.079-1.4,1.03L491.539,172l-.773.57Z" transform="translate(-12865.288 -4518.276)" fill="#1c1c1b"/>
    <path id="Caminho_58753" data-name="Caminho 58753" d="M520.323,229.967a6.738,6.738,0,0,1-.423-1.9l1.012-.331a3.869,3.869,0,0,0,.258,1.767c.2.552.607,1.049,1.233.828.442-.166.46-.883.479-1.362l.037-.7a1.7,1.7,0,0,1,1.067-1.767c1.27-.478,2.171.681,2.558,1.748a6.314,6.314,0,0,1,.368,1.546l-.975.313a3.974,3.974,0,0,0-.258-1.454c-.184-.478-.57-1.1-1.159-.883-.4.147-.423.736-.442,1.178l-.018.718c-.018.883-.2,1.6-1.123,1.951-1.251.478-2.19-.5-2.613-1.656" transform="translate(-12891.072 -4567.967)" fill="#1c1c1b"/>
    <path id="Caminho_58754" data-name="Caminho 58754" d="M537.018,261.615l-5.042,1.03-.276-1.362,5.042-1.03-.386-1.932,1.067-.221,1.067,5.208-1.086.221Z" transform="translate(-12900.701 -4593.837)" fill="#1c1c1b"/>
    <path id="Caminho_58755" data-name="Caminho 58755" d="M536.366,302.734l1.546-.607-.092-2.65-1.582-.515L536.2,297.6l6.33,2.171.055,1.822-6.165,2.595Zm5.3-2.043-2.889-.957.074,2.1Z" transform="translate(-12904.375 -4626.068)" fill="#1c1c1b"/>
    <path id="Caminho_58756" data-name="Caminho 58756" d="M531.931,346.278l5.41-1.454-5.042-.81.184-1.215,6.183.994-.331,2.006-5.41,1.472,5.042.81-.2,1.214L531.6,348.3Z" transform="translate(-12900.62 -4662.95)" fill="#1c1c1b"/>
    <path id="Caminho_58757" data-name="Caminho 58757" d="M522.37,388.269l.736-1.969,5.852,2.227-.828,2.171a2.849,2.849,0,0,1-4.048,1.877c-1.987-.773-2.429-2.392-1.711-4.306m4.95,1.877.258-.681-4.067-1.546-.184.478a1.924,1.924,0,0,0,1.27,2.779,1.876,1.876,0,0,0,2.723-1.03" transform="translate(-12892.824 -4698.445)" fill="#1c1c1b"/>
    <path id="Caminho_58758" data-name="Caminho 58758" d="M497.155,423.716l1.619.331,1.38-2.282-1.049-1.288.7-1.178,4.122,5.281-.938,1.564-6.588-1.2Zm5.557,1.178-1.9-2.392-1.086,1.785Z" transform="translate(-12871.897 -4725.373)" fill="#1c1c1b"/>
    <path id="Caminho_58759" data-name="Caminho 58759" d="M473.712,459.268l1.767.7c.607.239.828.258,1.288-.258l.331-.387-1.951-1.711.9-1.012,4.692,4.14-1.693,1.914c-.7.81-1.711,1.325-2.65.5a1.555,1.555,0,0,1-.184-2.079,1.225,1.225,0,0,1-1.362.129l-2.153-.81Zm5.005,2.374.442-.5-1.362-1.2-.423.478c-.423.478-.718,1.1-.166,1.6.57.46,1.067.11,1.509-.386" transform="translate(-12852.56 -4755.808)" fill="#1c1c1b"/>
    <path id="Caminho_58760" data-name="Caminho 58760" d="M449.638,485.507l1.656-1.307,3.864,4.913-1.822,1.435a2.838,2.838,0,0,1-4.435-.479c-1.306-1.675-.865-3.294.736-4.564m3.275,4.159.57-.442-2.687-3.4-.4.313a1.919,1.919,0,0,0-.35,3.036,1.9,1.9,0,0,0,2.871.5" transform="translate(-12832.515 -4778.33)" fill="#1c1c1b"/>
    <g id="Grupo_15401" data-name="Grupo 15401" transform="translate(-12421.334 -4285.594)">
      <path id="Caminho_58761" data-name="Caminho 58761" d="M249.98,537.012a3.117,3.117,0,0,1-2.539-3.993,3.206,3.206,0,0,1,4.14-2.3,6.574,6.574,0,0,1,1.822.755l-.313,1.012a3.828,3.828,0,0,0-1.472-.736,2.122,2.122,0,0,0-2.76,1.638,1.977,1.977,0,0,0,1.38,2.668,2.578,2.578,0,0,0,.994.092l.331-1.306-.81-.2.221-.883,2.006.5-.736,2.944a6.666,6.666,0,0,1-2.263-.184" transform="translate(-247.314 -530.588)" fill="#1c1c1b"/>
      <path id="Caminho_58762" data-name="Caminho 58762" d="M291.584,543.363c-1.987-.129-2.963-1.454-2.834-3.4a2.91,2.91,0,0,1,3.257-3,2.878,2.878,0,0,1,2.852,3.4,2.924,2.924,0,0,1-3.276,3m.331-5.429c-1.214-.074-1.674,1.141-1.748,2.135-.074,1.012.258,2.263,1.454,2.355,1.233.074,1.693-1.1,1.748-2.135.092-1.049-.2-2.282-1.454-2.355" transform="translate(-281.116 -535.779)" fill="#1c1c1b"/>
    </g>
    <path id="Caminho_58763" data-name="Caminho 58763" d="M331.423,537.588l.515,5.1-1.38.147-.515-5.1-1.932.184-.11-1.1,5.263-.515.11,1.086Z" transform="translate(-12734.485 -4820.842)" fill="#1c1c1b"/>
    <path id="Caminho_58764" data-name="Caminho 58764" d="M369.153,537.122a5.9,5.9,0,0,1-1.877.221l-.221-1.012a3.742,3.742,0,0,0,1.748-.074c.552-.147,1.086-.5.92-1.122-.11-.46-.81-.534-1.288-.607l-.662-.11a1.707,1.707,0,0,1-1.619-1.2c-.331-1.288.883-2.024,1.951-2.319a6.11,6.11,0,0,1,1.527-.2l.2.994a3.789,3.789,0,0,0-1.435.092c-.478.129-1.122.442-.975,1.031.11.4.681.5,1.1.534l.7.074c.865.11,1.546.368,1.785,1.288.35,1.288-.7,2.1-1.859,2.411" transform="translate(-12765.572 -4816.273)" fill="#1c1c1b"/>
    <rect id="Retângulo_5090" data-name="Retângulo 5090" width="1.288" height="1.435" transform="translate(-12427.866 -4284.805) rotate(-64.703)" fill="#1c1c1b"/>
    <path id="Caminho_58765" data-name="Caminho 58765" d="M417.734,530.267l-.534-1.141,1.288-.626.552,1.159Z" transform="translate(-12807.271 -4814.478)" fill="#1c1c1b"/>
  </g>
</svg>
