<svg xmlns="http://www.w3.org/2000/svg" width="46" height="46" viewBox="0 0 46 46">
  <g id="Grupo_19833" data-name="Grupo 19833" transform="translate(-1235.236 -1579.236)">
    <g id="Elipse_510" data-name="Elipse 510" transform="translate(1235.236 1579.236)" fill="none" stroke="#b70070" stroke-width="1">
      <circle cx="23" cy="23" r="23" stroke="none"/>
      <circle cx="23" cy="23" r="22.5" fill="none"/>
    </g>
    <g id="download" transform="translate(1251.436 1594.237)">
      <g id="Grupo_19830" data-name="Grupo 19830" transform="translate(0 0)">
        <g id="Grupo_19829" data-name="Grupo 19829">
          <path id="Caminho_60355" data-name="Caminho 60355" d="M141.654,16.515a.856.856,0,0,0-.781-.5H137.44V9.454a.859.859,0,0,0-.858-.858h-3.433a.859.859,0,0,0-.858.858v6.558h-3.433a.858.858,0,0,0-.645,1.423l6.008,6.867a.856.856,0,0,0,1.291,0l6.008-6.867A.856.856,0,0,0,141.654,16.515Z" transform="translate(-127.998 -8.595)" fill="none" stroke="#b70070" stroke-width="1.5"/>
        </g>
      </g>
    </g>
  </g>
</svg>
