<svg id="handshake" xmlns="http://www.w3.org/2000/svg" width="142.897" height="142.816" viewBox="0 0 142.897 142.816">
  <g id="Grupo_19847" data-name="Grupo 19847" transform="translate(0 0)">
    <g id="Grupo_19846" data-name="Grupo 19846">
      <path id="Caminho_60407" data-name="Caminho 60407" d="M134.9,40.3l8-8-3.4-3.4-8,8L106.055,11.45l7.916-7.916-3.4-3.4-7.916,7.916L99.549,4.943a2.4,2.4,0,0,0-3.4,0L76.92,24.173a2.4,2.4,0,0,0,0,3.4l3.108,3.108-2.4,2.4H67.886A22.922,22.922,0,0,0,44.967,56v.123L40.45,60.643a25.432,25.432,0,0,0-7.483,17.1l-2.423,2.425-3.108-3.108a2.4,2.4,0,0,0-3.4,0L4.807,96.286a2.4,2.4,0,0,0,0,3.4l3.108,3.108L0,110.708l3.4,3.4,7.916-7.916L36.76,131.637l-7.916,7.916,3.4,3.4,7.916-7.916,3.108,3.108a2.4,2.4,0,0,0,3.4,0l19.23-19.23a2.4,2.4,0,0,0,0-3.4l-3.108-3.108,2.4-2.4H76.215a7.211,7.211,0,0,0,7.211-7.211,7.121,7.121,0,0,0-.442-2.4H85.83a7.211,7.211,0,0,0,7.211-7.211,7.121,7.121,0,0,0-.442-2.4h2.846a7.211,7.211,0,0,0,7.211-7.211,7.121,7.121,0,0,0-.442-2.4h2.846a7.185,7.185,0,0,0,4.807-12.548V65.328l2.4-2.4,3.108,3.108a2.4,2.4,0,0,0,3.4,0l19.23-19.23a2.4,2.4,0,0,0,0-3.4ZM44.967,133.046,9.906,97.985,25.737,82.154,60.8,117.215ZM105.06,76.351H85.83v4.807h9.615a2.4,2.4,0,0,1,0,4.807H76.215v4.807H85.83a2.4,2.4,0,0,1,0,4.807H69v4.807h7.211a2.4,2.4,0,1,1,0,4.807H64.2a2.4,2.4,0,0,0-1.7.7l-3.108,3.108L33.943,83.563l3.108-3.108a2.4,2.4,0,0,0,.7-1.7,20.672,20.672,0,0,1,6.093-14.713l1.118-1.118V85.966a2.4,2.4,0,0,0,2.4,2.4A18.172,18.172,0,0,0,64.87,75l.945-3.457H105.06a2.4,2.4,0,0,1,0,4.807Zm.7-13.718a2.4,2.4,0,0,0-.7,1.7v2.4H67.124l1.312-4.807H69A12.033,12.033,0,0,0,81.023,49.91H76.215A7.211,7.211,0,0,1,69,57.121H66.6a2.4,2.4,0,0,0-2.32,1.772L60.233,73.739a13.374,13.374,0,0,1-10.459,9.615V56A18.112,18.112,0,0,1,67.886,37.892H78.619a2.4,2.4,0,0,0,1.7-.7l3.108-3.108,25.446,25.446Zm11.314-1.7L82.018,25.873,97.849,10.042,132.91,45.1Z" transform="translate(0 -0.136)" fill="#b70070"/>
    </g>
  </g>
  <g id="Grupo_19849" data-name="Grupo 19849" transform="translate(43.984 116.081)">
    <g id="Grupo_19848" data-name="Grupo 19848" transform="translate(0 0)">
      <rect id="Ret창ngulo_5226" data-name="Ret창ngulo 5226" width="4.807" height="4.807" transform="translate(0 3.399) rotate(-45)" fill="#b70070"/>
    </g>
  </g>
  <g id="Grupo_19851" data-name="Grupo 19851" transform="translate(92.045 19.926)">
    <g id="Grupo_19850" data-name="Grupo 19850" transform="translate(0 0)">
      <rect id="Ret창ngulo_5227" data-name="Ret창ngulo 5227" width="4.807" height="4.807" transform="translate(0 3.399) rotate(-45)" fill="#b70070"/>
    </g>
  </g>
</svg>
