<svg xmlns="http://www.w3.org/2000/svg" width="134.249" height="48" viewBox="0 0 134.249 48">
  <g id="Grupo_15568" data-name="Grupo 15568" transform="translate(-238 -28)">
    <g id="Grupo_15526" data-name="Grupo 15526" transform="translate(238 46.667)">
      <path id="Caminho_58824" data-name="Caminho 58824" d="M10.089,77.562,8.835,79.136a3.762,3.762,0,0,0-2.77-1.166A3.134,3.134,0,0,0,3.324,79.6a10.451,10.451,0,0,0-.816,4.749c0,3.263,1.255,5.042,3.587,5.042a4.048,4.048,0,0,0,3.119-1.573l1.253,1.457A5.664,5.664,0,0,1,6.036,91.2,5.281,5.281,0,0,1,1.4,89.013,8.618,8.618,0,0,1,0,83.856c0-3.177.932-4.954,2.187-6.177a5.3,5.3,0,0,1,3.936-1.691,5.677,5.677,0,0,1,3.966,1.574" transform="translate(0 -69.666)" fill="#141215"/>
      <path id="Caminho_58825" data-name="Caminho 58825" d="M11.33,70.413l2.274-.437a11.884,11.884,0,0,1,.38,3.352v3.38c0,.553-.029,1.224-.088,1.981a7.876,7.876,0,0,1,1.458-1.137,5.857,5.857,0,0,1,3.384-1.165,3.832,3.832,0,0,1,3.732,2.3,6.442,6.442,0,0,1,.235,2.1v10.4H20.458V81.164a3.152,3.152,0,0,0-.554-2.156,2.416,2.416,0,0,0-1.691-.583,5.857,5.857,0,0,0-4.229,2.448V91.188H11.71V73.3a8.87,8.87,0,0,0-.38-2.885" transform="translate(0.594 -69.976)" fill="#141215"/>
      <path id="Caminho_58826" data-name="Caminho 58826" d="M35.319,87.937l.874,1.455a7.251,7.251,0,0,1-4.9,1.807c-4.023,0-6.444-2.913-6.444-7.721A7.569,7.569,0,0,1,26.6,78a5.444,5.444,0,0,1,4.346-2.04,5.229,5.229,0,0,1,3.937,1.6c1.253,1.281,1.6,2.651,1.662,6.117V84h-9.07v.348a5.785,5.785,0,0,0,.671,3.177,4.107,4.107,0,0,0,3.616,1.777,5,5,0,0,0,3.558-1.368m-7.846-5.654h6.649a6.234,6.234,0,0,0-.67-3.235,3.091,3.091,0,0,0-2.624-1.282c-2.071,0-3.238,1.515-3.355,4.517" transform="translate(1.303 -69.667)" fill="#141215"/>
      <path id="Caminho_58827" data-name="Caminho 58827" d="M38.34,76.542l2.216-.525a5.16,5.16,0,0,1,.525,2.039v.117a6.838,6.838,0,0,1,1.778-1.4,4.618,4.618,0,0,1,2.45-.788A3.66,3.66,0,0,1,48.2,77.446a3.223,3.223,0,0,1,.5.961,6.975,6.975,0,0,1,4.665-2.419A3.634,3.634,0,0,1,57,79.921V90.877H54.67V80.155c0-1.4-.641-2.126-1.866-2.126a3.7,3.7,0,0,0-2.129.787,15.23,15.23,0,0,0-1.457,1.224l-.264.232V90.877h-2.3V80.563c0-1.252-.028-1.456-.408-1.865a1.792,1.792,0,0,0-1.487-.583c-1.108,0-2.186.553-3.7,1.923V90.877H38.865V80.067a7.219,7.219,0,0,0-.525-3.525" transform="translate(2.011 -69.666)" fill="#141215"/>
      <path id="Caminho_58828" data-name="Caminho 58828" d="M60.951,70.391A1.777,1.777,0,1,1,59.172,72.2a1.792,1.792,0,0,1,1.779-1.807m-1.225,6.322,2.421-.378v14.83H59.726Z" transform="translate(3.103 -69.955)" fill="#141215"/>
      <path id="Caminho_58829" data-name="Caminho 58829" d="M72.83,76.153l-.991,2.593H69.33v7.605c0,1.894.349,2.389,1.69,2.389a5.127,5.127,0,0,0,1.4-.291l.5,2.33a8.183,8.183,0,0,1-3.178.671c-1.983,0-3.587-.875-4.025-2.185a5.482,5.482,0,0,1-.263-2.3V78.747H63.964V76.211H65.45a25.989,25.989,0,0,1,.147-3.555l3.966-.991a43.8,43.8,0,0,0-.233,4.487Z" transform="translate(3.354 -69.889)" fill="#141215"/>
      <path id="Caminho_58830" data-name="Caminho 58830" d="M84.3,86.93l1.517,2.33a8.566,8.566,0,0,1-5.627,2.071c-4.288,0-7.059-3.031-7.059-7.722,0-2.682.557-4.459,1.866-5.914a5.873,5.873,0,0,1,4.695-2.012,6.117,6.117,0,0,1,4.319,1.573c1.368,1.4,1.981,3.409,1.981,6.527v.9H77.361V84.8c0,2.3,1.138,3.613,3.151,3.613A5.837,5.837,0,0,0,84.3,86.93m-6.882-5.1h4.52v-.174a3.837,3.837,0,0,0-.467-2.244,1.892,1.892,0,0,0-1.72-.874c-1.486,0-2.333,1.164-2.333,3.235Z" transform="translate(3.835 -69.682)" fill="#141215"/>
      <path id="Caminho_58831" data-name="Caminho 58831" d="M87.3,76.709l4.055-1.137a34.974,34.974,0,0,1,2.011,3.643c.233.466.292.612.466.991A.681.681,0,0,0,93.922,80c.438-1.047.727-1.69,1.225-2.709.234-.494.7-1.282.7-1.282h4.609l-4.432,6.877,5.363,8.012H96.428L94.856,88.16c-.407-.758-.642-1.282-1.08-2.039a.647.647,0,0,0-.088-.145,2.529,2.529,0,0,0-.115.261A24.855,24.855,0,0,1,92.2,88.831L90.948,90.9H85.932l5.513-7.925Z" transform="translate(4.506 -69.688)" fill="#141215"/>
    </g>
    <g id="Grupo_15527" data-name="Grupo 15527" transform="translate(289.713 70.922)">
      <path id="Caminho_58832" data-name="Caminho 58832" d="M49.291,97.9a.54.54,0,0,0,.193.041c.369,0,.491-.6.491-.651a1.535,1.535,0,0,0-.079-.278l-.76-2.459h.454l.6,2.179H50.2l.614-2.179h.418l-.826,2.69c-.154.507-.316,1.09-.86,1.09a1.153,1.153,0,0,1-.282-.037Z" transform="translate(-49.136 -93.257)" fill="#737577"/>
      <path id="Caminho_58833" data-name="Caminho 58833" d="M51.6,94.747a1.271,1.271,0,0,1,.738-.248c.641,0,.9.371.9,1.088v1.091a4.933,4.933,0,0,0,.018.515H52.87v-.341H52.86a.8.8,0,0,1-.694.4.742.742,0,0,1-.821-.822.928.928,0,0,1,1.04-.867c.163,0,.278,0,.44.009,0-.454-.14-.687-.553-.687a.964.964,0,0,0-.65.269Zm1.225,1.191c-.087,0-.176-.011-.263-.011-.224,0-.777.042-.777.506a.421.421,0,0,0,.417.429.617.617,0,0,0,.623-.692Z" transform="translate(-49.02 -93.261)" fill="#737577"/>
      <path id="Caminho_58834" data-name="Caminho 58834" d="M53.77,94.56h.385v.409h.009a.689.689,0,0,1,.583-.47,1,1,0,0,1,.274.037v.433a.524.524,0,0,0-.229-.046c-.369,0-.61.412-.61,1.073v1.2H53.77Z" transform="translate(-48.893 -93.261)" fill="#737577"/>
      <path id="Caminho_58835" data-name="Caminho 58835" d="M55.354,94.56h.4v.419h.008a.791.791,0,0,1,.735-.48c.579,0,.84.424.84,1.132v1.563h-.416V95.83c0-.614-.114-.914-.474-.939-.47,0-.68.444-.68,1.083v1.219h-.412Z" transform="translate(-48.81 -93.261)" fill="#737577"/>
      <path id="Caminho_58836" data-name="Caminho 58836" d="M57.707,96.677a1,1,0,0,0,.514.186.379.379,0,0,0,.422-.379c0-.48-.97-.437-.97-1.176a.74.74,0,0,1,.79-.81,1.488,1.488,0,0,1,.514.1l-.036.424a1.06,1.06,0,0,0-.434-.135c-.21,0-.4.1-.4.32,0,.537.969.383.969,1.224a.756.756,0,0,1-.781.821,1.126,1.126,0,0,1-.615-.145Z" transform="translate(-48.689 -93.261)" fill="#737577"/>
      <path id="Caminho_58837" data-name="Caminho 58837" d="M60.68,94.747a1.268,1.268,0,0,1,.738-.248c.642,0,.9.371.9,1.088v1.091a5.074,5.074,0,0,0,.017.515h-.385v-.341h-.011a.805.805,0,0,1-.694.4.742.742,0,0,1-.821-.822.928.928,0,0,1,1.041-.867c.163,0,.277,0,.44.009,0-.454-.141-.687-.553-.687a.96.96,0,0,0-.65.269ZM61.9,95.939c-.087,0-.177-.011-.265-.011-.222,0-.776.042-.776.506a.42.42,0,0,0,.416.429.618.618,0,0,0,.625-.692Z" transform="translate(-48.544 -93.261)" fill="#737577"/>
      <path id="Caminho_58838" data-name="Caminho 58838" d="M62.848,94.56h.4v.419h.008a.79.79,0,0,1,.734-.48c.579,0,.839.424.839,1.132v1.563h-.414V95.83c0-.614-.114-.914-.473-.939-.471,0-.681.444-.681,1.083v1.219h-.413Z" transform="translate(-48.417 -93.261)" fill="#737577"/>
      <path id="Caminho_58839" data-name="Caminho 58839" d="M66.953,96.879h-.009a.871.871,0,0,1-.765.434c-.676,0-.962-.708-.962-1.426s.317-1.33.966-1.33a.768.768,0,0,1,.742.423h.008v-1.6h.415v3.872h-.395Zm-.678.042c.466,0,.658-.543.658-.982,0-.489-.213-.991-.662-.991s-.625.5-.615.976c-.011.413.175,1,.619,1" transform="translate(-48.293 -93.318)" fill="#737577"/>
      <path id="Caminho_58840" data-name="Caminho 58840" d="M69.269,95.014h-.528v-.393h.528v-.242c0-.64.141-1.058.75-1.058a1.424,1.424,0,0,1,.28.032l-.02.392a.528.528,0,0,0-.2-.033c-.357,0-.4.269-.4.626v.283h.593v.393h-.593v2.24h-.413Z" transform="translate(-48.108 -93.321)" fill="#737577"/>
      <path id="Caminho_58841" data-name="Caminho 58841" d="M70.686,94.747a1.264,1.264,0,0,1,.736-.248c.643,0,.9.371.9,1.088v1.091c0,.3.006.439.015.515h-.385v-.341h-.011a.8.8,0,0,1-.692.4.741.741,0,0,1-.82-.822.928.928,0,0,1,1.04-.867c.161,0,.276,0,.44.009,0-.454-.143-.687-.554-.687a.964.964,0,0,0-.65.269Zm1.225,1.191c-.088,0-.177-.011-.265-.011-.224,0-.777.042-.777.506a.422.422,0,0,0,.417.429.618.618,0,0,0,.625-.692Z" transform="translate(-48.019 -93.261)" fill="#737577"/>
      <path id="Caminho_58842" data-name="Caminho 58842" d="M72.853,93.379h.413v1.6h.009a.769.769,0,0,1,.742-.423c.65,0,.966.624.966,1.33,0,.722-.285,1.426-.962,1.426a.873.873,0,0,1-.766-.434h-.006v.372h-.4Zm1.076,1.569c-.448,0-.663.5-.663.991,0,.44.194.982.659.982.443,0,.628-.584.62-1,.008-.473-.166-.975-.616-.975" transform="translate(-47.892 -93.318)" fill="#737577"/>
      <path id="Caminho_58843" data-name="Caminho 58843" d="M75.364,94.56h.385v.409h.009a.692.692,0,0,1,.584-.47.959.959,0,0,1,.27.037v.433a.506.506,0,0,0-.225-.046c-.37,0-.61.412-.61,1.073v1.2h-.414Z" transform="translate(-47.761 -93.261)" fill="#737577"/>
      <path id="Caminho_58844" data-name="Caminho 58844" d="M77.437,94.025H76.97v-.547h.467ZM77,94.612h.413v2.633H77Z" transform="translate(-47.677 -93.313)" fill="#737577"/>
      <path id="Caminho_58845" data-name="Caminho 58845" d="M79.5,95a1.057,1.057,0,0,0-.449-.114c-.461,0-.72.486-.72.986,0,.47.216.986.748.986a.77.77,0,0,0,.443-.15l.032.433a1.108,1.108,0,0,1-.519.109,1.25,1.25,0,0,1-1.142-1.379c0-.8.456-1.378,1.142-1.378a1.305,1.305,0,0,1,.5.1Z" transform="translate(-47.629 -93.261)" fill="#737577"/>
      <path id="Caminho_58846" data-name="Caminho 58846" d="M79.724,96.677a.992.992,0,0,0,.514.186.38.38,0,0,0,.422-.379c0-.48-.97-.437-.97-1.176a.74.74,0,0,1,.791-.81,1.5,1.5,0,0,1,.513.1l-.036.424a1.065,1.065,0,0,0-.434-.135c-.212,0-.395.1-.395.32,0,.537.97.383.97,1.224a.758.758,0,0,1-.784.821,1.12,1.12,0,0,1-.614-.145Z" transform="translate(-47.534 -93.261)" fill="#737577"/>
      <path id="Caminho_58847" data-name="Caminho 58847" d="M82.427,96.677a.989.989,0,0,0,.514.186.377.377,0,0,0,.42-.379c0-.48-.968-.437-.968-1.176a.739.739,0,0,1,.789-.81,1.478,1.478,0,0,1,.514.1l-.035.424a1.06,1.06,0,0,0-.434-.135c-.212,0-.4.1-.4.32,0,.537.97.383.97,1.224a.757.757,0,0,1-.781.821,1.122,1.122,0,0,1-.615-.145Z" transform="translate(-47.392 -93.261)" fill="#b70070"/>
      <path id="Caminho_58848" data-name="Caminho 58848" d="M84.657,94.025h-.466v-.547h.466Zm-.438.587h.413v2.633h-.413Z" transform="translate(-47.298 -93.313)" fill="#b70070"/>
      <path id="Caminho_58849" data-name="Caminho 58849" d="M85.286,94.56h.4v.419h.006a.793.793,0,0,1,.736-.48c.578,0,.837.424.837,1.132v1.563h-.414V95.83c0-.614-.113-.914-.473-.939-.47,0-.68.444-.68,1.083v1.219h-.414Z" transform="translate(-47.24 -93.261)" fill="#b70070"/>
      <path id="Caminho_58850" data-name="Caminho 58850" d="M89.229,95a1.062,1.062,0,0,0-.45-.114c-.46,0-.719.486-.719.986,0,.47.216.986.748.986a.77.77,0,0,0,.443-.15l.032.433a1.109,1.109,0,0,1-.518.109,1.25,1.25,0,0,1-1.143-1.379c0-.8.457-1.378,1.143-1.378a1.305,1.305,0,0,1,.5.1Z" transform="translate(-47.118 -93.261)" fill="#b70070"/>
      <path id="Caminho_58851" data-name="Caminho 58851" d="M91.334,97.084a1.5,1.5,0,0,1-.707.171c-.8,0-1.16-.569-1.16-1.426,0-.779.418-1.331,1.05-1.331.746,0,.987.639.987,1.487h-1.6a.806.806,0,0,0,.737.878,1.2,1.2,0,0,0,.69-.265Zm-.267-1.461c0-.4-.2-.733-.559-.733-.405,0-.569.392-.6.733Z" transform="translate(-47.021 -93.261)" fill="#b70070"/>
      <path id="Caminho_58852" data-name="Caminho 58852" d="M93.679,94.614l-.406.409-.2-.3.649-.624h.338v3.113h-.38Z" transform="translate(-46.832 -93.281)" fill="#b70070"/>
      <path id="Caminho_58853" data-name="Caminho 58853" d="M95.019,96.775a.914.914,0,0,0,.474.129c.494,0,.734-.534.742-1.133l-.008,0a.723.723,0,0,1-.582.286c-.514,0-.8-.423-.8-.981,0-.641.369-1.03.852-1.03.74,0,.895.785.895,1.494,0,.842-.237,1.725-1.078,1.725a1.6,1.6,0,0,1-.547-.1ZM95.7,95.7c.313,0,.494-.278.494-.624,0-.3-.157-.657-.47-.657s-.471.322-.471.657c0,.288.146.624.448.624" transform="translate(-46.739 -93.284)" fill="#b70070"/>
      <path id="Caminho_58854" data-name="Caminho 58854" d="M98.546,94.467l-.981,2.746h-.417l1.011-2.746H96.865V94.1h1.681Z" transform="translate(-46.633 -93.281)" fill="#b70070"/>
      <path id="Caminho_58855" data-name="Caminho 58855" d="M99.745,94.05c.731,0,.9.928.9,1.61s-.167,1.609-.9,1.609-.9-.926-.9-1.609.167-1.61.9-1.61m0,2.854c.456,0,.5-.856.5-1.244s-.059-1.245-.5-1.245-.5.852-.5,1.245.039,1.244.5,1.244" transform="translate(-46.53 -93.284)" fill="#b70070"/>
    </g>
    <path id="Caminho_58856" data-name="Caminho 58856" d="M115.4,81.427c-10.229,0-11.465-4.1-11.514-4.27l-.008-.062a3.762,3.762,0,0,1,.019-.381c-1.682-1.052-2.77-2.273-2.77-3.6a2.539,2.539,0,0,1,.24-1.094,4.147,4.147,0,0,1-1.644-2.948,2.681,2.681,0,0,1,.919-2.036,2.834,2.834,0,0,1-.732-1.779,3.128,3.128,0,0,1,1.569-2.665,2.582,2.582,0,0,1-.352-1.208c0-1.636,1.432-2.519,2.945-2.993a3,3,0,0,1-.026-.373c0-.115.006-.226.017-.334a2.812,2.812,0,0,1,.9-2.071,4,4,0,0,1,.958-.659,8.287,8.287,0,0,1,2.115-.871c1.728-1.434,5.609-1.573,7.027-1.573.077,0,6.944.1,8.352,3.28,2.562,1.482,2.811,3.2,2.834,3.428a2.012,2.012,0,0,1,.026.285c2.086,1.812,2.165,3.35,2.165,3.556a2.512,2.512,0,0,1-.7,1.8c-.049.055-.1.107-.151.159.008.009.015.018.023.026a3.258,3.258,0,0,1,1.4,2.35,2.086,2.086,0,0,1-.307,1.1,2.565,2.565,0,0,1-1.085,1.194,2.593,2.593,0,0,1,.816,1.745c0,1.439-1.336,2.244-2.817,2.694a3.257,3.257,0,0,1,.314.793,1.879,1.879,0,0,1-.4,1.529,3.961,3.961,0,0,1-2.224,1.269c.007.074.012.148.012.224,0,1.866-2.8,2.427-4.113,2.587l.119.446a17.986,17.986,0,0,1-3.936.456m-11.053-4.37c.123.337,1.65,3.9,11.053,3.9a18.005,18.005,0,0,0,3.753-.425c-.33.039-.555.052-.594.053a33.408,33.408,0,0,1-14.21-3.6c0,.023,0,.047,0,.07m.059-.582a20.57,20.57,0,0,0,3.418,1.571,34.92,34.92,0,0,0,10.722,2.069c.033,0,4.313-.237,4.313-2.178,0-.039,0-.08,0-.119a14.725,14.725,0,0,1-2.847.241,39.473,39.473,0,0,1-12.532-2.667c-.531-.2-1.13-.449-1.753-.73a3.772,3.772,0,0,0-.418.31,2.614,2.614,0,0,0-.9,1.5m1.832-2.1q.671.292,1.407.575a38.962,38.962,0,0,0,12.363,2.635,14.091,14.091,0,0,0,2.746-.231c-.463-1.259-2.377-2.189-4.278-2.788a35.85,35.85,0,0,1-6.126-.991,14.034,14.034,0,0,0-6.111.8m13.858.285c1.469.623,2.742,1.475,3.118,2.588a3.5,3.5,0,0,0,1.945-1.082,1.409,1.409,0,0,0,.319-1.148,3.052,3.052,0,0,0-.339-.766,16.5,16.5,0,0,1-3.447.437q-.813,0-1.6-.029m-18.357-2.329a2.1,2.1,0,0,0-.143.777c0,1.03.839,2.1,2.388,3.1a3.112,3.112,0,0,1,1.013-1.6c.074-.063.15-.124.228-.183a17.847,17.847,0,0,1-3.487-2.1m16.817,1.771c.995.076,2.042.118,3.135.118a16.924,16.924,0,0,0,3.176-.386,9.247,9.247,0,0,0-4.509-3.084A30.408,30.408,0,0,1,112.6,69.44c-.453-.015-.923-.023-1.408-.023a25.478,25.478,0,0,0-6.066.7l.282.167a27.638,27.638,0,0,0,7.005,2.82c1.108.057,1.918.169,2.068.19a18.344,18.344,0,0,1,4.08.81M101.97,71.911a17.2,17.2,0,0,0,3.722,2.223,11.017,11.017,0,0,1,4.909-1.055,26.5,26.5,0,0,1-6.094-2.776,5.749,5.749,0,0,0-2.2,1.214,2.61,2.61,0,0,0-.335.394m19.714-1.152a8.5,8.5,0,0,1,3.7,2.947c1.366-.391,2.591-1.077,2.591-2.278a2.254,2.254,0,0,0-.761-1.526,5.688,5.688,0,0,1-1.988.464,19.866,19.866,0,0,1-3.539.393m-20.736-3.367a2.2,2.2,0,0,0-.754,1.678,3.648,3.648,0,0,0,1.419,2.53,3.251,3.251,0,0,1,.361-.42,5.834,5.834,0,0,1,2.036-1.2,16.062,16.062,0,0,1-3.063-2.588m19.582,2.9c.2,0,.4.006.6.006.017,0,.564.006,1.355-.044a25.875,25.875,0,0,1-12.627-4.644l-.048-.036a33.065,33.065,0,0,0-4.222.217c.624.4,1.307.787,2.039,1.16a31.106,31.106,0,0,0,5.044,2.025,25.739,25.739,0,0,1,7.859,1.316m-5.42-.678a29.692,29.692,0,0,0,3.164.524,25.642,25.642,0,0,0-3.164-.524m-4.465-4.029a25.761,25.761,0,0,0,14.4,4.321l.106,0a9.351,9.351,0,0,0,1.539-.459,18.958,18.958,0,0,0-6.577-2.824,27.663,27.663,0,0,1-4.656-.759c-1.811-.159-3.411-.246-4.817-.276m-9.33,1.515a16.258,16.258,0,0,0,3.271,2.686,24.188,24.188,0,0,1,6.509-.836,30.975,30.975,0,0,1-3.681-1.581,24.73,24.73,0,0,1-2.532-1.478,8.657,8.657,0,0,0-3.567,1.208m20.607-.432a16.208,16.208,0,0,1,5.227,2.568,3.544,3.544,0,0,0,.847-.591,2.216,2.216,0,0,0,.3-.371,1.991,1.991,0,0,0,.124-.714,3.9,3.9,0,0,0-1.126-2.177l-.066-.054c-1.105.846-2.887,1.295-5.308,1.339M101.709,62.97a2.659,2.659,0,0,0-1.327,2.285,2.347,2.347,0,0,0,.624,1.483,8.429,8.429,0,0,1,3.321-1.237,10.693,10.693,0,0,1-2.618-2.531m18.385,3.174c.485.036.964.055,1.43.055,2.866,0,4.444-.564,5.311-1.169a18.735,18.735,0,0,0-4.987-2.281,16.909,16.909,0,0,1-1.953.1,18.183,18.183,0,0,1-7.85-1.774q-.6-.021-1.189-.021a30.086,30.086,0,0,0-4.239.271,24.391,24.391,0,0,0,8.96,4.068l.2.018a25.562,25.562,0,0,1,4.317.73m-18-3.422a11.045,11.045,0,0,0,2.887,2.668,30.046,30.046,0,0,1,4.2-.291,18.461,18.461,0,0,1-3.57-3.6,11.232,11.232,0,0,0-3.515,1.223M109.96,65.1q1.527.013,3.274.119a28.7,28.7,0,0,1-3.082-1.2,18.216,18.216,0,0,1-3.693-2.2,18.817,18.817,0,0,0,3.5,3.279M124.2,62.177a16.32,16.32,0,0,1,3.074,2.485c.036-.036.072-.073.1-.108a2.028,2.028,0,0,0,.595-1.462v-.029a4.652,4.652,0,0,0-1.758-2.967,2.483,2.483,0,0,1-.485.985,3.81,3.81,0,0,1-1.527,1.1m-1.327.406.224.08a21.442,21.442,0,0,1,2.436,1.042,18.757,18.757,0,0,0-1.891-1.323c-.24.076-.5.143-.769.2m-9.6-1.44a17.877,17.877,0,0,0,6.623,1.239q.346,0,.666-.012a38.571,38.571,0,0,0-7.289-1.227m-9.1-2.287c-1.341.428-2.573,1.186-2.573,2.526a2.109,2.109,0,0,0,.273.96,11.474,11.474,0,0,1,3.455-1.253,9.547,9.547,0,0,1-.741-1.3,3.959,3.959,0,0,1-.414-.931m7.914,1.754a38.79,38.79,0,0,1,9.83,1.654,9.992,9.992,0,0,0,1.168-.216,25.291,25.291,0,0,0-3.445-1.633,19.819,19.819,0,0,1-4.528.36l.022-.469a20.88,20.88,0,0,0,3.634-.211,33.173,33.173,0,0,0-9.843-1.765,11.185,11.185,0,0,0,3.162,2.28m8.332-.389a25.131,25.131,0,0,1,2.936,1.442c.116.066.229.134.343.2a3.564,3.564,0,0,0,1.654-1.064,1.972,1.972,0,0,0,.448-1.07,13.582,13.582,0,0,0-2.387-1.569,2.846,2.846,0,0,1-.61.827,5.793,5.793,0,0,1-2.385,1.234m-15.358-.557a6.555,6.555,0,0,0,1.1,1.269,28.66,28.66,0,0,1,4.7-.346h.264a10.555,10.555,0,0,1-2.828-2.275c-.247-.005-.5-.006-.75-.006a14.142,14.142,0,0,0-2.853.4,6.327,6.327,0,0,0,.373.955m3.455-1.815a33.393,33.393,0,0,1,11.157,2.076,6.027,6.027,0,0,0,2.8-1.278,2.336,2.336,0,0,0,.52-.7,40.3,40.3,0,0,0-12.12-3.346,13.483,13.483,0,0,0-2.861.181,1.562,1.562,0,0,0-.354.99,3.545,3.545,0,0,0,.852,2.078m15.067-.145a15.094,15.094,0,0,1,2.156,1.358,4.768,4.768,0,0,0-2.106-2.551,3.284,3.284,0,0,1,.038.5,2.713,2.713,0,0,1-.088.7m-19.049.014v.07a2.9,2.9,0,0,0,.045.457,14.348,14.348,0,0,1,2.958-.409l.393,0a3.7,3.7,0,0,1-.736-2.068,2.023,2.023,0,0,1,.181-.851,6.489,6.489,0,0,0-1.065.367,3.169,3.169,0,0,0-1.777,2.43m6.022-3.6c.21.005.344.014.372.016a41.15,41.15,0,0,1,12.224,3.349A2.154,2.154,0,0,0,123.2,57a2.566,2.566,0,0,0-.139-.848c-1.977-1.121-5.383-2.116-11.252-2.116-.019,0-.521,0-1.253.077m1.253-.547c5.328,0,8.693.8,10.816,1.8-1.846-2.318-7.49-2.4-7.559-2.4a18.512,18.512,0,0,0-5.416.772,15.88,15.88,0,0,1,2.159-.177" transform="translate(243.229 -24.507)" fill="#b70070"/>
  </g>
</svg>
