<svg xmlns="http://www.w3.org/2000/svg" width="178.75" height="64" viewBox="0 0 178.75 64">
  <g id="Grupo_14185" data-name="Grupo 14185" transform="translate(2109 13508.001)">
    <path id="Caminho_4369" data-name="Caminho 4369" d="M440.807,38.008a26.392,26.392,0,0,1-8.344.49c-1.121-.1-12.992-1.649-12.554-6.668.288-3.3,6.689-4.98,13.518-4.38,2.721.239,13.839,1.845,12.449,7.037-.9,3.374-8.522,3.776-16.286,1.693a32.907,32.907,0,0,1-9.689-4.191c-1.6-1.088-4.7-3.587-3.307-6.075,1.7-3.039,9.253-4.446,17.126-3.756,8.968.787,16.738,4.147,16.4,8a3.423,3.423,0,0,1-1.32,2.271c-2.77,2.364-10.341,2.339-18.3.206-5.9-1.583-11.114-4.108-13.912-6.723-2-1.866-3.213-4.218-.945-6.3,2.9-2.663,10.526-3.886,18.565-3.181,10.154.89,18.94,4.658,18.569,8.9-.385,4.4-10.992,5.555-21.051,2.858-7.322-1.963-13.605-5.3-16.083-8.576a4.229,4.229,0,0,1-1.026-3.632l.069-.27A4.519,4.519,0,0,1,416.7,13.4c3.422-2.207,10.423-3.174,18.019-2.509.6.053,19.57,2.643,18.831,9.85-.434,4.227-11.3,4.7-20.518,2.227-7.931-2.126-14.6-5.96-16.332-9.569-1.409-2.93.7-4.837,3.465-5.67,3.9-1.175,10.224-.85,16.712.889,7.5,2.009,19.156,7.629,16.406,12.812-1.991,3.753-11.365,2.682-19.567-1.144-7.384-3.444-13.064-8.589-13.551-12.557a3.622,3.622,0,0,1,1.36-3.412C424.439,2,431.2,1.575,438.346,3.491A29.709,29.709,0,0,1,449.87,9.14c2.158,1.9,3.266,3.947,2.762,5.829-1.117,4.171-9.5,5.1-18.109,2.794-5.553-1.489-10.172-4.022-12.583-6.685a5.583,5.583,0,0,1-1.8-4.244c.341-3.911,7.581-6.042,15.443-5.353,7.661.671,14.275,3.877,14.292,7.659a3.23,3.23,0,0,1-.154,1.015c-1.139,3.492-7.62,4.859-14.31,3.065C422.955,9.882,418.593,0,435.172,0c5.888,0,11.64,3.136,11.351,6.445-.287,3.293-5.773,5.107-11.612,4.594l.074-.836c5.987.525,10.493-1.433,10.7-3.831a2.37,2.37,0,0,0-.411-1.445c-1.268-2.041-5.282-4.087-10.1-4.087-6.234,0-9.432,1.432-9.882,3.111-.728,2.718,3.536,6.638,10.333,8.46,1.228.329,12.929,2.323,13.4-3.044.133-1.514-1.271-3.127-3.745-4.439A26.241,26.241,0,0,0,435.5,2.317c-6.221-.545-11.312.7-13.453,2.657-1.926,1.762-1.046,3.824.511,5.542,2.263,2.5,6.712,4.972,12.178,6.437,8.838,2.37,16.207,1.063,17.081-2.2S446.967,6.671,438.129,4.3c-7.1-1.9-13.5-1.384-16.077.672a2.934,2.934,0,0,0-.892,3.365c.967,3.333,5.782,7.861,12.915,11.188,6.333,2.954,17.478,5.444,18.66,1.032.875-3.266-5.867-8.393-16.072-11.129-6.307-1.691-11.924-1.928-15.5-1.091-2.944.688-5.322,2.338-3.311,5.364,1.969,2.962,7.7,6.391,15.4,8.456,9.774,2.619,19.2,1.543,19.468-1.528.293-3.348-7.344-7.964-18.072-8.9-7.241-.634-13.494.255-16.8,1.975-.79.411-2.085,1.248-2.345,2.226l-.069.271c-.276,1.029.241,2.253,1.411,3.535,2.5,2.738,7.985,5.737,15.1,7.645,10.5,2.814,19.714,1.119,20-2.12.285-3.259-7.3-7.068-17.807-7.989-7.725-.677-14.37.47-17.295,2.465-2.86,1.951-1.369,4.176.876,6.054,2.64,2.208,7.238,4.493,13,6.037,8,2.146,15.138,2.012,17.534-.033a2.6,2.6,0,0,0,1.03-1.706c.251-2.878-6.327-6.276-15.638-7.092-7.552-.663-13.934.662-15.925,2.794-2.079,2.226,1.654,4.872,3.084,5.794a32.449,32.449,0,0,0,9,3.787c8.1,2.174,14.609,1.325,15.258-1.1,1.158-4.324-9.729-5.81-11.712-5.984-.35-.031-12.237-.635-12.608,3.617-.2,2.344,4.683,5.135,11.791,5.759a25.58,25.58,0,0,0,8.071-.469Z" transform="translate(-2383.948 -13508)" fill="#fff"/>
    <path id="Caminho_4370" data-name="Caminho 4370" d="M61.123,100.8V87.436a8.192,8.192,0,0,0-.155-1.768,2.23,2.23,0,0,0-.583-1.107A2.53,2.53,0,0,0,59.452,84a3.831,3.831,0,0,0-1.321-.213,5.827,5.827,0,0,0-2.895.855A9.685,9.685,0,0,0,52.5,87.048V100.8H49.467V76.945a13.028,13.028,0,0,0-.252-2.934l-.252-1.03,3.03-.583.253,1.185a17.378,17.378,0,0,1,.252,3.4v4.507q0,.932-.058,1.787t-.058.855a14.925,14.925,0,0,1,2.953-2.157,7.049,7.049,0,0,1,3.5-.913,5.913,5.913,0,0,1,3.147.855A3.974,3.974,0,0,1,63.8,84.134a5.346,5.346,0,0,1,.252,1.165q.059.583.058,1.632V100.8Z" transform="translate(-2141.485 -13556.03)" fill="#fff" fill-rule="evenodd"/>
    <path id="Caminho_4371" data-name="Caminho 4371" d="M13.909,115.517a9.188,9.188,0,0,1-2.72,1.962,7.811,7.811,0,0,1-3.186.6,6.962,6.962,0,0,1-6.161-2.914,9.854,9.854,0,0,1-1.4-3.051A14.877,14.877,0,0,1,0,108.29a13.01,13.01,0,0,1,.826-5.09,10.174,10.174,0,0,1,2.055-3.147A7.175,7.175,0,0,1,8.12,97.8a6.576,6.576,0,0,1,3.031.622A13.01,13.01,0,0,1,13.4,99.9L11.734,102a8,8,0,0,0-1.787-1.2,4.627,4.627,0,0,0-1.9-.35,4.107,4.107,0,0,0-2.118.583,4.033,4.033,0,0,0-1.535,1.593A13.967,13.967,0,0,0,3.3,108.95a8.572,8.572,0,0,0,1.224,5.013,4.1,4.1,0,0,0,3.555,1.709,5.26,5.26,0,0,0,4.157-2.1Z" transform="translate(-2109 -13572.882)" fill="#fff" fill-rule="evenodd"/>
    <path id="Caminho_4372" data-name="Caminho 4372" d="M108.055,108.484v.466a13.372,13.372,0,0,0,.194,2.409,4.986,4.986,0,0,0,.7,1.826,4.809,4.809,0,0,0,2.079,1.807,6.65,6.65,0,0,0,2.739.563,6.753,6.753,0,0,0,4.74-1.826l1.165,1.942a8.971,8.971,0,0,1-2.972,1.788,10.218,10.218,0,0,1-3.555.621,7.755,7.755,0,0,1-6.314-2.739q-2.273-2.739-2.273-7.557a13.636,13.636,0,0,1,.544-4.138,9.333,9.333,0,0,1,1.787-3.167,7.292,7.292,0,0,1,5.789-2.681,6.955,6.955,0,0,1,5.245,2.1,8.329,8.329,0,0,1,1.049,1.36,6.251,6.251,0,0,1,.68,1.632,13.071,13.071,0,0,1,.369,2.176q.117,1.243.117,2.992v.428Zm8.858-2.332a14.736,14.736,0,0,0-.252-2.6,5.416,5.416,0,0,0-.641-1.709,3.569,3.569,0,0,0-1.438-1.244,4.536,4.536,0,0,0-2.059-.466q-4.235,0-4.468,6.023Z" transform="translate(-2178.37 -13572.881)" fill="#fff" fill-rule="evenodd"/>
    <path id="Caminho_4373" data-name="Caminho 4373" d="M181.492,117.653v-14.3q0-2.836-2.486-2.836a4.24,4.24,0,0,0-2.467.8,25.654,25.654,0,0,0-2.662,2.2v14.143h-3.108V103.9a7.721,7.721,0,0,0-.117-1.477,2.538,2.538,0,0,0-.427-1.01,2.456,2.456,0,0,0-1.982-.777,4.853,4.853,0,0,0-2.273.6,13.847,13.847,0,0,0-2.662,1.962v14.454h-2.914v-15a10.2,10.2,0,0,0-.35-3.109q-.349-1.01-.35-1.01l2.957-.7a2.415,2.415,0,0,1,.194.427,8.861,8.861,0,0,1,.331,1.088,5.6,5.6,0,0,1,.175,1.36,8.15,8.15,0,0,1,1.129-1.069,9.575,9.575,0,0,1,1.421-.932,9.02,9.02,0,0,1,1.557-.661,5.086,5.086,0,0,1,1.537-.253,4.82,4.82,0,0,1,2.7.835,4.583,4.583,0,0,1,1.81,2.39,11.7,11.7,0,0,1,3.074-2.351,6.84,6.84,0,0,1,3.152-.874,4.564,4.564,0,0,1,3.522,1.457,5.372,5.372,0,0,1,1.342,3.788v14.61Z" transform="translate(-2214.949 -13572.881)" fill="#fff" fill-rule="evenodd"/>
    <path id="Caminho_4374" data-name="Caminho 4374" d="M247.472,117.807V98.534l3.108-.505v19.778Z" transform="translate(-2273.185 -13573.041)" fill="#fff" fill-rule="evenodd"/>
    <path id="Caminho_4375" data-name="Caminho 4375" d="M278.009,105.278a11.313,11.313,0,0,1-4.235.894,7.061,7.061,0,0,1-3.438-.8,3.9,3.9,0,0,1-1.923-2.118q-.116-.311-.194-.563a2.493,2.493,0,0,1-.1-.583q-.02-.33-.039-.777t-.019-1.146v-10.8h-1.982V85.811h1.982q0-1.476.019-2.525a18.524,18.524,0,0,1,.175-2.176l5.284-1.321q-.156,1.36-.234,2.933t-.077,3.089h4.662l-1.321,3.575H273.23v9.986a10.338,10.338,0,0,0,.1,1.554,2.411,2.411,0,0,0,.35.991,1.272,1.272,0,0,0,.68.5,3.827,3.827,0,0,0,1.127.136,3.274,3.274,0,0,0,.758-.1q.408-.1,1.108-.291Z" transform="translate(-2285.531 -13560.937)" fill="#fff" fill-rule="evenodd"/>
    <path id="Caminho_4376" data-name="Caminho 4376" d="M317.606,104.378a9.3,9.3,0,0,0-.136-1.787,3.514,3.514,0,0,0-.486-1.2,2.578,2.578,0,0,0-2.292-1.165,2.682,2.682,0,0,0-2.293,1.107,5.348,5.348,0,0,0-.816,3.205v.078h6.022Zm-6.1,4.2a5.256,5.256,0,0,0,1.091,3.575,3.93,3.93,0,0,0,3.12,1.243,7.9,7.9,0,0,0,5.068-1.981l2.027,3.108a11.722,11.722,0,0,1-7.516,2.759,9.9,9.9,0,0,1-3.914-.738,8.44,8.44,0,0,1-2.96-2.079,9.22,9.22,0,0,1-1.889-3.244,12.833,12.833,0,0,1-.662-4.235,15.364,15.364,0,0,1,.584-4.546,8.977,8.977,0,0,1,1.908-3.342,8.178,8.178,0,0,1,2.765-2.02,8.721,8.721,0,0,1,3.505-.661,9.635,9.635,0,0,1,3.271.544,6.381,6.381,0,0,1,2.492,1.554,8.47,8.47,0,0,1,2.006,3.478,17.984,17.984,0,0,1,.643,5.226v1.2h-11.54Z" transform="translate(-2311.93 -13571.967)" fill="#fff" fill-rule="evenodd"/>
    <path id="Caminho_4377" data-name="Caminho 4377" d="M369.33,112.776q-.116-.233-.35-.68t-.485-.913q-.253-.466-.486-.855a3.543,3.543,0,0,1-.233-.466q-.156.35-.661,1.438-.544,1.089-1.322,2.37l-1.671,2.759h-6.683l7.343-10.608-5.517-8.354,5.4-1.515q.545.932.933,1.574t.68,1.185q.292.544.544,1.03t.524,1.068q.156.311.33.68t.291.641q.077-.233.525-1.243t1.224-2.642q.234-.5.525-1.01t.408-.7h6.138l-5.905,9.17,7.149,10.724h-6.6Z" transform="translate(-2346.142 -13571.953)" fill="#fff" fill-rule="evenodd"/>
    <path id="Caminho_4378" data-name="Caminho 4378" d="M249.821,76.848a2.31,2.31,0,0,1-.672,1.69,2.341,2.341,0,0,1-4.01-1.651,2.376,2.376,0,0,1,.671-1.71,2.22,2.22,0,0,1,1.669-.7,2.252,2.252,0,0,1,1.67.68,2.31,2.31,0,0,1,.672,1.69" transform="translate(-2271.637 -13557.412)" fill="#fff" fill-rule="evenodd"/>
    <path id="Caminho_4379" data-name="Caminho 4379" d="M206.4,175.077h-.582l-.735,2.884h-.014l-.791-2.884h-.61l1.116,3.592-.139.542a.8.8,0,0,1-.168.36.287.287,0,0,1-.22.084.76.76,0,0,1-.172-.019.745.745,0,0,1-.146-.05l-.028.526a1.206,1.206,0,0,0,.185.031c.07.007.14.01.21.01a.74.74,0,0,0,.535-.183,1.349,1.349,0,0,0,.332-.635Z" transform="translate(-2244.119 -13624.153)" fill="#fff" fill-rule="evenodd"/>
    <path id="Caminho_4380" data-name="Caminho 4380" d="M214.73,177.227a.953.953,0,0,1-.223.63.784.784,0,0,1-.6.266.584.584,0,0,1-.449-.168.706.706,0,0,1,.1-.971,1.209,1.209,0,0,1,.764-.214c.081,0,.156,0,.226,0a1.665,1.665,0,0,1,.184.012Zm-1.63-1.456a1.079,1.079,0,0,1,.394-.267,1.365,1.365,0,0,1,.515-.1,1.055,1.055,0,0,1,.341.051.5.5,0,0,1,.248.171.606.606,0,0,1,.107.243,1.6,1.6,0,0,1,.025.327v.159h-.34a2.031,2.031,0,0,0-1.287.339,1.042,1.042,0,0,0-.377.854,1.006,1.006,0,0,0,.291.765,1.046,1.046,0,0,0,.728.254,1.2,1.2,0,0,0,.639-.162,1.029,1.029,0,0,0,.353-.364h.014l.034.478h.526c-.007-.064-.013-.144-.019-.239s-.008-.2-.008-.3v-1.844a1.438,1.438,0,0,0-.1-.564.927.927,0,0,0-.21-.3,1.061,1.061,0,0,0-.318-.207,1.528,1.528,0,0,0-.625-.124,1.87,1.87,0,0,0-.52.075,1.837,1.837,0,0,0-.478.215Z" transform="translate(-2250.13 -13624.056)" fill="#fff" fill-rule="evenodd"/>
    <path id="Caminho_4381" data-name="Caminho 4381" d="M222.729,178.517h.581v-1.872a1.506,1.506,0,0,1,.216-.868.652.652,0,0,1,.554-.29,1.152,1.152,0,0,1,.222.021v-.575a1.2,1.2,0,0,0-.628.14.949.949,0,0,0-.378.462h-.014l-.021-.554H222.7q.006.187.016.379t.012.384Z" transform="translate(-2256.751 -13624.058)" fill="#fff" fill-rule="evenodd"/>
    <path id="Caminho_4382" data-name="Caminho 4382" d="M228.806,178.517h.581v-2.129a1.117,1.117,0,0,1,.2-.718.672.672,0,0,1,.546-.239.508.508,0,0,1,.432.191,1.011,1.011,0,0,1,.151.613v2.281h.582v-2.455a1.183,1.183,0,0,0-.285-.856,1.006,1.006,0,0,0-.748-.273.972.972,0,0,0-.531.137.985.985,0,0,0-.364.438h-.014l-.021-.526h-.561c0,.125.01.252.017.379s.011.255.011.384Z" transform="translate(-2260.782 -13624.057)" fill="#fff" fill-rule="evenodd"/>
    <path id="Caminho_4383" data-name="Caminho 4383" d="M238.227,178.358a1.82,1.82,0,0,0,.436.153,2.418,2.418,0,0,0,.52.054,1.133,1.133,0,0,0,.873-.318,1.116,1.116,0,0,0,.264-.777.847.847,0,0,0-.189-.55,1.242,1.242,0,0,0-.511-.352l-.208-.084a1.387,1.387,0,0,1-.444-.249.475.475,0,0,1,0-.694.64.64,0,0,1,.435-.139,1.694,1.694,0,0,1,.693.153l.028-.5a1.861,1.861,0,0,0-.34-.091,2.37,2.37,0,0,0-.408-.034,1.194,1.194,0,0,0-.826.294.978.978,0,0,0-.31.731.83.83,0,0,0,.157.538,1.359,1.359,0,0,0,.536.371l.389.174a.911.911,0,0,1,.348.241.48.48,0,0,1,.1.314.442.442,0,0,1-.17.351.786.786,0,0,1-.5.148,1.341,1.341,0,0,1-.426-.072,2,2,0,0,1-.4-.192Z" transform="translate(-2267.049 -13624.056)" fill="#fff" fill-rule="evenodd"/>
    <path id="Caminho_4384" data-name="Caminho 4384" d="M252.853,177.227a.952.952,0,0,1-.223.63.784.784,0,0,1-.6.266.584.584,0,0,1-.449-.168.706.706,0,0,1,.1-.971,1.211,1.211,0,0,1,.764-.214c.08,0,.156,0,.226,0a1.655,1.655,0,0,1,.184.012Zm-1.63-1.456a1.082,1.082,0,0,1,.394-.267,1.363,1.363,0,0,1,.514-.1,1.055,1.055,0,0,1,.341.051.5.5,0,0,1,.248.171.614.614,0,0,1,.108.243,1.624,1.624,0,0,1,.024.327v.159h-.34a2.032,2.032,0,0,0-1.287.339,1.042,1.042,0,0,0-.377.854,1,1,0,0,0,.291.765,1.044,1.044,0,0,0,.728.254,1.2,1.2,0,0,0,.639-.162,1.031,1.031,0,0,0,.353-.364h.014l.035.478h.526c-.007-.064-.014-.144-.019-.239s-.008-.2-.009-.3v-1.844a1.438,1.438,0,0,0-.1-.564.934.934,0,0,0-.209-.3,1.073,1.073,0,0,0-.318-.207,1.532,1.532,0,0,0-.626-.124,1.87,1.87,0,0,0-.52.075,1.832,1.832,0,0,0-.478.215Z" transform="translate(-2275.423 -13624.056)" fill="#fff" fill-rule="evenodd"/>
    <path id="Caminho_4385" data-name="Caminho 4385" d="M260.852,178.517h.582v-2.129a1.116,1.116,0,0,1,.2-.718.672.672,0,0,1,.546-.239.509.509,0,0,1,.432.191,1.013,1.013,0,0,1,.151.613v2.281h.582v-2.455a1.181,1.181,0,0,0-.285-.856,1.007,1.007,0,0,0-.748-.273.972.972,0,0,0-.53.137.987.987,0,0,0-.365.438h-.014l-.021-.526h-.561c0,.125.01.252.016.379s.011.255.012.384Z" transform="translate(-2282.044 -13624.057)" fill="#fff" fill-rule="evenodd"/>
    <path id="Caminho_4386" data-name="Caminho 4386" d="M273.032,170.131h-.582v2.149h-.014a1.193,1.193,0,0,0-.388-.407.972.972,0,0,0-.514-.126,1.037,1.037,0,0,0-.884.45,2.943,2.943,0,0,0,0,2.733,1.038,1.038,0,0,0,.884.45,1,1,0,0,0,.6-.18,1.147,1.147,0,0,0,.329-.388h.014l.021.519h.561c0-.108-.01-.217-.017-.326s-.011-.218-.011-.326Zm-.582,3.433a2.1,2.1,0,0,1-.188,1.006.68.68,0,0,1-1.178,0,2.785,2.785,0,0,1,0-2.012.68.68,0,0,1,1.178,0,2.1,2.1,0,0,1,.188,1.006" transform="translate(-2288.339 -13620.872)" fill="#fff" fill-rule="evenodd"/>
    <path id="Caminho_4387" data-name="Caminho 4387" d="M285.324,175.168h.581V172.1h.638v-.471h-.638v-.743a.688.688,0,0,1,.089-.4.38.38,0,0,1,.334-.135.81.81,0,0,1,.193.021.366.366,0,0,1,.141.062v-.5a1.645,1.645,0,0,0-.219-.041,1.887,1.887,0,0,0-.239-.015.833.833,0,0,0-.671.262,1.048,1.048,0,0,0-.209.694v.791h-.562v.471h.562Z" transform="translate(-2297.925 -13620.706)" fill="#fff" fill-rule="evenodd"/>
    <path id="Caminho_4388" data-name="Caminho 4388" d="M292.921,177.227a.95.95,0,0,1-.223.63.784.784,0,0,1-.6.266.583.583,0,0,1-.449-.168.706.706,0,0,1,.1-.971,1.211,1.211,0,0,1,.764-.214c.08,0,.155,0,.226,0a1.649,1.649,0,0,1,.183.012Zm-1.63-1.456a1.082,1.082,0,0,1,.394-.267,1.362,1.362,0,0,1,.514-.1,1.054,1.054,0,0,1,.341.051.5.5,0,0,1,.248.171.6.6,0,0,1,.107.243,1.549,1.549,0,0,1,.024.327v.159h-.34a2.03,2.03,0,0,0-1.287.339,1.041,1.041,0,0,0-.377.854,1,1,0,0,0,.291.765,1.044,1.044,0,0,0,.727.254,1.2,1.2,0,0,0,.639-.162,1.029,1.029,0,0,0,.353-.364h.014l.035.478h.526c-.007-.064-.013-.144-.019-.239s-.009-.2-.009-.3v-1.844a1.435,1.435,0,0,0-.1-.564.931.931,0,0,0-.209-.3,1.074,1.074,0,0,0-.318-.207,1.53,1.53,0,0,0-.625-.124,1.872,1.872,0,0,0-.521.075,1.841,1.841,0,0,0-.478.215Z" transform="translate(-2302.007 -13624.056)" fill="#fff" fill-rule="evenodd"/>
    <path id="Caminho_4389" data-name="Caminho 4389" d="M300.755,174.679q0,.162-.011.326c-.006.109-.012.218-.016.326h.561l.021-.519h.014a1.155,1.155,0,0,0,.33.388,1,1,0,0,0,.6.18,1.036,1.036,0,0,0,.883-.45,2.939,2.939,0,0,0,0-2.733,1.035,1.035,0,0,0-.883-.45.972.972,0,0,0-.514.126,1.193,1.193,0,0,0-.388.407h-.014v-2.149h-.582Zm.582-1.116a2.1,2.1,0,0,1,.188-1.006.68.68,0,0,1,1.178,0,2.781,2.781,0,0,1,0,2.012.68.68,0,0,1-1.178,0,2.1,2.1,0,0,1-.188-1.006" transform="translate(-2308.516 -13620.872)" fill="#fff" fill-rule="evenodd"/>
    <path id="Caminho_4390" data-name="Caminho 4390" d="M310.844,178.517h.582v-1.872a1.507,1.507,0,0,1,.216-.868.653.653,0,0,1,.554-.29,1.144,1.144,0,0,1,.221.021v-.575a1.2,1.2,0,0,0-.627.14.949.949,0,0,0-.378.462H311.4l-.021-.554h-.56c0,.125.009.251.017.379s.01.256.011.384Z" transform="translate(-2315.21 -13624.058)" fill="#fff" fill-rule="evenodd"/>
    <path id="Caminho_4391" data-name="Caminho 4391" d="M317.057,171.442h.638v-.693h-.638Zm.028,4.3h.582v-3.536h-.582Z" transform="translate(-2319.349 -13621.282)" fill="#fff" fill-rule="evenodd"/>
    <path id="Caminho_4392" data-name="Caminho 4392" d="M323.3,175.071a1.4,1.4,0,0,0-.33-.1,2.011,2.011,0,0,0-.371-.035,1.459,1.459,0,0,0-1.159.5,2.049,2.049,0,0,0-.421,1.355,2.283,2.283,0,0,0,.171.905,1.433,1.433,0,0,0,.521.636,1.558,1.558,0,0,0,.874.24,1.979,1.979,0,0,0,.4-.047,1.889,1.889,0,0,0,.34-.1l-.027-.533a1.767,1.767,0,0,1-.329.133,1.391,1.391,0,0,1-.385.054.843.843,0,0,1-.692-.335,1.543,1.543,0,0,1-.265-.948,1.652,1.652,0,0,1,.272-1.035.845.845,0,0,1,.7-.318,1.443,1.443,0,0,1,.363.042,1.275,1.275,0,0,1,.31.125Z" transform="translate(-2321.979 -13624.056)" fill="#fff" fill-rule="evenodd"/>
    <path id="Caminho_4393" data-name="Caminho 4393" d="M329,178.358a1.818,1.818,0,0,0,.436.153,2.414,2.414,0,0,0,.52.054,1.136,1.136,0,0,0,.873-.318,1.118,1.118,0,0,0,.264-.777.848.848,0,0,0-.189-.55,1.244,1.244,0,0,0-.511-.352l-.209-.084a1.39,1.39,0,0,1-.444-.249.476.476,0,0,1-.005-.694.64.64,0,0,1,.435-.139,1.694,1.694,0,0,1,.693.153l.028-.5a1.867,1.867,0,0,0-.34-.091,2.374,2.374,0,0,0-.409-.034,1.194,1.194,0,0,0-.826.294.978.978,0,0,0-.31.731.833.833,0,0,0,.156.538,1.36,1.36,0,0,0,.536.371l.389.174a.9.9,0,0,1,.348.241.481.481,0,0,1,.1.314.442.442,0,0,1-.17.351.786.786,0,0,1-.5.148,1.34,1.34,0,0,1-.426-.072,2,2,0,0,1-.4-.192Z" transform="translate(-2327.272 -13624.056)" fill="#fff" fill-rule="evenodd"/>
    <path id="Caminho_4394" data-name="Caminho 4394" d="M341.581,178.358a1.818,1.818,0,0,0,.436.153,2.41,2.41,0,0,0,.52.054,1.133,1.133,0,0,0,.873-.318,1.117,1.117,0,0,0,.264-.777.846.846,0,0,0-.189-.55,1.24,1.24,0,0,0-.51-.352l-.209-.084a1.4,1.4,0,0,1-.444-.249.476.476,0,0,1,0-.694.639.639,0,0,1,.435-.139,1.694,1.694,0,0,1,.693.153l.028-.5a1.866,1.866,0,0,0-.34-.091,2.375,2.375,0,0,0-.408-.034,1.193,1.193,0,0,0-.826.294.979.979,0,0,0-.311.731.834.834,0,0,0,.156.538,1.364,1.364,0,0,0,.536.371l.388.174a.9.9,0,0,1,.348.241.48.48,0,0,1,.1.314.443.443,0,0,1-.17.351.788.788,0,0,1-.5.148,1.34,1.34,0,0,1-.426-.072,2.016,2.016,0,0,1-.405-.192Z" transform="translate(-2335.62 -13624.056)" fill="#fff" fill-rule="evenodd"/>
    <path id="Caminho_4395" data-name="Caminho 4395" d="M349.863,171.442h.637v-.693h-.637Zm.028,4.3h.582v-3.536h-.582Z" transform="translate(-2341.115 -13621.282)" fill="#fff" fill-rule="evenodd"/>
    <path id="Caminho_4396" data-name="Caminho 4396" d="M354.284,178.517h.582v-2.129a1.118,1.118,0,0,1,.2-.718.673.673,0,0,1,.547-.239.507.507,0,0,1,.432.191,1.011,1.011,0,0,1,.151.613v2.281h.581v-2.455a1.181,1.181,0,0,0-.285-.856,1.006,1.006,0,0,0-.748-.273.97.97,0,0,0-.53.137.987.987,0,0,0-.365.438h-.014l-.021-.526h-.561c0,.125.01.252.017.379s.011.255.011.384Z" transform="translate(-2344.03 -13624.057)" fill="#fff" fill-rule="evenodd"/>
    <path id="Caminho_4397" data-name="Caminho 4397" d="M366.027,175.071a1.4,1.4,0,0,0-.33-.1,2.006,2.006,0,0,0-.371-.035,1.46,1.46,0,0,0-1.16.5,2.053,2.053,0,0,0-.421,1.355,2.279,2.279,0,0,0,.172.905,1.429,1.429,0,0,0,.52.636,1.559,1.559,0,0,0,.875.24,1.985,1.985,0,0,0,.4-.047,1.9,1.9,0,0,0,.34-.1l-.028-.533a1.765,1.765,0,0,1-.329.133,1.4,1.4,0,0,1-.385.054.843.843,0,0,1-.692-.335,1.541,1.541,0,0,1-.265-.948,1.657,1.657,0,0,1,.272-1.035.846.846,0,0,1,.7-.318,1.445,1.445,0,0,1,.362.042,1.283,1.283,0,0,1,.31.125Z" transform="translate(-2350.324 -13624.056)" fill="#fff" fill-rule="evenodd"/>
    <path id="Caminho_4398" data-name="Caminho 4398" d="M372.378,176.479a1.449,1.449,0,0,1,.226-.862.6.6,0,0,1,.5-.242q.7,0,.694,1.1Zm2,.443v-.312a2.082,2.082,0,0,0-.321-1.229,1.082,1.082,0,0,0-.92-.448,1.2,1.2,0,0,0-1.013.492,2.23,2.23,0,0,0-.352,1.324,2.184,2.184,0,0,0,.359,1.325,1.262,1.262,0,0,0,1.062.492,2.586,2.586,0,0,0,.524-.054,2.128,2.128,0,0,0,.467-.153l-.028-.527a1.667,1.667,0,0,1-.371.2,1.242,1.242,0,0,1-.44.091.877.877,0,0,1-.724-.293,1.423,1.423,0,0,1-.24-.907Z" transform="translate(-2355.648 -13624.056)" fill="#fff" fill-rule="evenodd"/>
    <path id="Caminho_4399" data-name="Caminho 4399" d="M387.085,177.521h.515v-4.09h-.468l-.839.8.27.381.521-.586Z" transform="translate(-2365.285 -13623.062)" fill="#fff" fill-rule="evenodd"/>
    <path id="Caminho_4400" data-name="Caminho 4400" d="M394.3,177.364a1.717,1.717,0,0,0,.315.085,2.121,2.121,0,0,0,.364.032,1.281,1.281,0,0,0,1.141-.562,3.049,3.049,0,0,0,.376-1.688,2.89,2.89,0,0,0-.272-1.405.994.994,0,0,0-.928-.517,1.117,1.117,0,0,0-.837.338,1.436,1.436,0,0,0-.34,1.015,1.58,1.58,0,0,0,.122.617,1.141,1.141,0,0,0,.36.472.957.957,0,0,0,.584.188.916.916,0,0,0,.49-.133.827.827,0,0,0,.319-.37H396a2.233,2.233,0,0,1-.273,1.174.89.89,0,0,1-.783.449,1.21,1.21,0,0,1-.627-.176Zm.333-2.736a1.165,1.165,0,0,1,.16-.616.559.559,0,0,1,.485-.282.566.566,0,0,1,.491.282,1.166,1.166,0,0,1,.161.616,1.276,1.276,0,0,1-.071.424.8.8,0,0,1-.216.333.54.54,0,0,1-.365.134.529.529,0,0,1-.36-.134.792.792,0,0,1-.214-.333,1.264,1.264,0,0,1-.071-.424" transform="translate(-2370.475 -13622.983)" fill="#fff" fill-rule="evenodd"/>
    <path id="Caminho_4401" data-name="Caminho 4401" d="M403.115,177.521h.569l1.265-3.6v-.485h-2.156v.444h1.664Z" transform="translate(-2376.231 -13623.062)" fill="#fff" fill-rule="evenodd"/>
    <path id="Caminho_4402" data-name="Caminho 4402" d="M410.808,175.395a3.2,3.2,0,0,0,.307,1.555,1,1,0,0,0,1.766,0,4.106,4.106,0,0,0,0-3.11,1,1,0,0,0-1.766,0,3.193,3.193,0,0,0-.307,1.555m.515,0a3.6,3.6,0,0,1,.161-1.263.529.529,0,0,1,1.026,0,5.027,5.027,0,0,1,0,2.526.529.529,0,0,1-1.026,0,3.6,3.6,0,0,1-.161-1.263" transform="translate(-2381.547 -13622.983)" fill="#fff" fill-rule="evenodd"/>
  </g>
</svg>
