<svg id="Outline" xmlns="http://www.w3.org/2000/svg" width="61.017" height="60" viewBox="0 0 61.017 60">
  <path id="Caminho_60236" data-name="Caminho 60236" d="M202.541,278.555l-4.068-6.1a1.017,1.017,0,0,0-.846-.453H165.085a1.017,1.017,0,0,0-.846.453l-4.068,6.1a1.017,1.017,0,0,0,.846,1.581h3.051v18.305h-2.034v2.034h38.644v-2.034h-2.034V280.136H201.7a1.017,1.017,0,0,0,.846-1.581Zm-36.912-4.521h9.759l-2.712,4.068h-9.759Zm.473,6.1h7.119a1.017,1.017,0,0,0,.846-.453l2.2-3.307v22.065H166.1Zm30.508,18.305H178.305V276.376l2.2,3.307a1.017,1.017,0,0,0,.846.453H196.61ZM181.9,278.1l-2.712-4.068h17.895l2.712,4.068Z" transform="translate(-141.695 -240.475)" fill="#b70070"/>
  <path id="Caminho_60237" data-name="Caminho 60237" d="M416,448h2.034v2.034H416Z" transform="translate(-365.153 -394.102)" fill="#b70070"/>
  <path id="Caminho_60238" data-name="Caminho 60238" d="M384,448h2.034v2.034H384Z" transform="translate(-337.22 -394.102)" fill="#b70070"/>
  <path id="Caminho_60239" data-name="Caminho 60239" d="M320.355,75.077l7.119,6.1a1.017,1.017,0,0,0,1.324,0l7.119-6.1a1.017,1.017,0,0,0,.355-.772V71.254a1.017,1.017,0,0,0-1.017-1.017H332.2V56h-2.034V71.254a1.017,1.017,0,0,0,1.017,1.017h3.051v1.566l-6.1,5.23-6.1-5.23V72.271h3.051a1.017,1.017,0,0,0,1.017-1.017V56h-2.034V70.237h-3.051A1.017,1.017,0,0,0,320,71.254v3.051a1.017,1.017,0,0,0,.355.772Z" transform="translate(-281.356 -51.932)" fill="#b70070"/>
  <path id="Caminho_60240" data-name="Caminho 60240" d="M18.034,26.034H50.576V53.492H52.61V25.017A1.017,1.017,0,0,0,51.593,24H17.017A1.017,1.017,0,0,0,16,25.017v53.9a1.017,1.017,0,0,0,1.017,1.017H35.266V77.9H18.034Z" transform="translate(-16 -24)" fill="#b70070"/>
  <path id="Caminho_60241" data-name="Caminho 60241" d="M65.45,50.343,62.7,53.1h-5.68A1.017,1.017,0,0,0,56,54.113v6.1a1.017,1.017,0,0,0,1.017,1.017h6.1a1.017,1.017,0,0,0,1.017-1.017v-5.68l2.753-2.753ZM62.1,59.2H58.034V55.13h2.63l-1.315,1.315,1.438,1.438L62.1,56.568Z" transform="translate(-50.915 -46.994)" fill="#b70070"/>
  <path id="Caminho_60242" data-name="Caminho 60242" d="M152,80h2.034v2.034H152Z" transform="translate(-134.712 -72.881)" fill="#b70070"/>
  <path id="Caminho_60243" data-name="Caminho 60243" d="M184,80h10.17v2.034H184Z" transform="translate(-162.644 -72.881)" fill="#b70070"/>
  <path id="Caminho_60244" data-name="Caminho 60244" d="M152,112h14.237v2.034H152Z" transform="translate(-134.712 -100.814)" fill="#b70070"/>
  <path id="Caminho_60245" data-name="Caminho 60245" d="M65.45,146.343,62.7,149.1h-5.68A1.017,1.017,0,0,0,56,150.113v6.1a1.017,1.017,0,0,0,1.017,1.017h6.1a1.017,1.017,0,0,0,1.017-1.017v-5.68l2.753-2.753ZM62.1,155.2H58.034V151.13h2.63l-1.315,1.315,1.438,1.438,1.315-1.315Z" transform="translate(-50.915 -130.791)" fill="#b70070"/>
  <path id="Caminho_60246" data-name="Caminho 60246" d="M152,176h2.034v2.034H152Z" transform="translate(-134.712 -156.678)" fill="#b70070"/>
  <path id="Caminho_60247" data-name="Caminho 60247" d="M184,176h10.17v2.034H184Z" transform="translate(-162.644 -156.678)" fill="#b70070"/>
  <path id="Caminho_60248" data-name="Caminho 60248" d="M152,208h14.237v2.034H152Z" transform="translate(-134.712 -184.61)" fill="#b70070"/>
  <path id="Caminho_60249" data-name="Caminho 60249" d="M65.45,242.343,62.7,245.1h-5.68A1.017,1.017,0,0,0,56,246.113v6.1a1.017,1.017,0,0,0,1.017,1.017h6.1a1.017,1.017,0,0,0,1.017-1.017v-5.68l2.753-2.753ZM62.1,251.2H58.034V247.13h2.63l-1.315,1.315,1.438,1.438,1.315-1.315Z" transform="translate(-50.915 -214.588)" fill="#b70070"/>
  <path id="Caminho_60250" data-name="Caminho 60250" d="M152,272h2.034v2.034H152Z" transform="translate(-134.712 -240.475)" fill="#b70070"/>
  <path id="Caminho_60251" data-name="Caminho 60251" d="M57.017,341.1A1.017,1.017,0,0,0,56,342.113v6.1a1.017,1.017,0,0,0,1.017,1.017h6.1a1.017,1.017,0,0,0,1.017-1.017v-5.68l2.753-2.753-1.438-1.438L62.7,341.1Zm5.085,6.1H58.034V343.13h2.63l-1.315,1.315,1.438,1.438,1.315-1.315Z" transform="translate(-50.915 -298.384)" fill="#b70070"/>
  <path id="Caminho_60252" data-name="Caminho 60252" d="M152,368h2.034v2.034H152Z" transform="translate(-134.712 -324.271)" fill="#b70070"/>
  <path id="Caminho_60253" data-name="Caminho 60253" d="M152,400h3.051v2.034H152Z" transform="translate(-134.712 -352.203)" fill="#b70070"/>
</svg>
