<svg id="Outline" xmlns="http://www.w3.org/2000/svg" width="129.802" height="141.39" viewBox="0 0 129.802 141.39">
  <path id="Caminho_60384" data-name="Caminho 60384" d="M128,70.676a38.46,38.46,0,1,0,59.727-32.028l2.448-4.241,4.164,2.4,2.4-4.163-12.49-7.211-2.4,4.163,4.164,2.4-2.445,4.234a38.4,38.4,0,0,0-34.215,0L146.908,32l4.164-2.4-2.4-4.163-12.49,7.211,2.4,4.163,4.164-2.4,2.448,4.241A38.454,38.454,0,0,0,128,70.676Zm72.112,0A33.652,33.652,0,1,1,166.46,37.023a33.652,33.652,0,0,1,33.652,33.652Z" transform="translate(-101.559 -25.436)" fill="#b70070"/>
  <path id="Caminho_60385" data-name="Caminho 60385" d="M248,80h4.807v4.807H248Z" transform="translate(-185.503 -63.605)" fill="#b70070"/>
  <path id="Caminho_60386" data-name="Caminho 60386" d="M0,0H4.807V4.807H0Z" transform="matrix(0.866, -0.5, 0.5, 0.866, 48.395, 21.46)" fill="#b70070"/>
  <path id="Caminho_60387" data-name="Caminho 60387" d="M0,0H4.807V4.807H0Z" transform="matrix(0.5, -0.866, 0.866, 0.5, 38.718, 32.9)" fill="#b70070"/>
  <path id="Caminho_60388" data-name="Caminho 60388" d="M160,168h4.807v4.807H160Z" transform="translate(-123.944 -125.164)" fill="#b70070"/>
  <path id="Caminho_60389" data-name="Caminho 60389" d="M0,0H4.807V4.807H0Z" transform="matrix(0.866, -0.5, 0.5, 0.866, 38.717, 57.579)" fill="#b70070"/>
  <path id="Caminho_60390" data-name="Caminho 60390" d="M0,0H4.807V4.807H0Z" transform="matrix(0.5, -0.866, 0.866, 0.5, 48.395, 69.02)" fill="#b70070"/>
  <path id="Caminho_60391" data-name="Caminho 60391" d="M248,256h4.807v4.807H248Z" transform="translate(-185.503 -186.723)" fill="#b70070"/>
  <path id="Caminho_60392" data-name="Caminho 60392" d="M0,0H4.807V4.807H0Z" transform="matrix(0.866, -0.5, 0.5, 0.866, 74.836, 67.256)" fill="#b70070"/>
  <path id="Caminho_60393" data-name="Caminho 60393" d="M0,0H4.807V4.807H0Z" transform="matrix(0.5, -0.866, 0.866, 0.5, 84.515, 59.343)" fill="#b70070"/>
  <path id="Caminho_60394" data-name="Caminho 60394" d="M336,168h4.807v4.807H336Z" transform="translate(-247.062 -125.164)" fill="#b70070"/>
  <path id="Caminho_60395" data-name="Caminho 60395" d="M0,0H4.807V4.807H0Z" transform="matrix(0.866, -0.5, 0.5, 0.866, 84.514, 31.138)" fill="#b70070"/>
  <path id="Caminho_60396" data-name="Caminho 60396" d="M0,0H4.807V4.807H0Z" transform="matrix(0.5, -0.866, 0.866, 0.5, 74.838, 23.223)" fill="#b70070"/>
  <path id="Caminho_60397" data-name="Caminho 60397" d="M250.4,133.634h19.23v-4.807H252.807V112H248v19.23A2.4,2.4,0,0,0,250.4,133.634Z" transform="translate(-185.503 -85.99)" fill="#b70070"/>
  <path id="Caminho_60398" data-name="Caminho 60398" d="M168.105,186.579l-19.23-5.917-1.414,4.6,11.764,3.619-14.167,4.359,1.414,4.595,18.522-5.7V252L107.3,269.752V222.529H102.5v47.224L44.807,252V192.131l18.523,5.7,1.414-4.595-14.168-4.359,11.763-3.619-1.414-4.6L41.7,186.579a2.4,2.4,0,0,0-1.7,2.3v64.9a2.4,2.4,0,0,0,1.7,2.3l62.5,19.23a2.4,2.4,0,0,0,1.414,0l62.5-19.23a2.4,2.4,0,0,0,1.7-2.3v-64.9a2.4,2.4,0,0,0-1.7-2.3Z" transform="translate(-40 -134.022)" fill="#b70070"/>
  <path id="Caminho_60399" data-name="Caminho 60399" d="M124.056,297.95a2.4,2.4,0,0,0,2.4-2.4V283.527a2.4,2.4,0,0,0-1.7-2.3L91.111,270.875a2.4,2.4,0,0,0-3.111,2.3v12.019a2.4,2.4,0,0,0,1.7,2.3l33.652,10.355A2.4,2.4,0,0,0,124.056,297.95Zm-2.4-5.658-28.845-8.876v-6.989l28.845,8.876Z" transform="translate(-73.578 -197.054)" fill="#b70070"/>
  <path id="Caminho_60400" data-name="Caminho 60400" d="M333.484,271.239a2.4,2.4,0,0,0-2.135-.364L297.7,281.23a2.4,2.4,0,0,0-1.7,2.3v12.019a2.4,2.4,0,0,0,3.111,2.3l33.652-10.355a2.4,2.4,0,0,0,1.7-2.3V273.173A2.4,2.4,0,0,0,333.484,271.239Zm-3.832,12.177-28.845,8.876V285.3l28.845-8.876Z" transform="translate(-219.08 -197.054)" fill="#b70070"/>
  <path id="Caminho_60401" data-name="Caminho 60401" d="M0,0H5.03V4.807H0Z" transform="matrix(0.956, -0.294, 0.294, 0.956, 95.457, 117.493)" fill="#b70070"/>
  <path id="Caminho_60402" data-name="Caminho 60402" d="M0,0H5.03V4.807H0Z" transform="matrix(0.956, -0.294, 0.294, 0.956, 105.074, 114.534)" fill="#b70070"/>
  <path id="Caminho_60403" data-name="Caminho 60403" d="M0,0H5.03V4.807H0Z" transform="matrix(0.956, -0.294, 0.294, 0.956, 114.692, 111.576)" fill="#b70070"/>
  <path id="Caminho_60404" data-name="Caminho 60404" d="M0,0H4.807V5.03H0Z" transform="matrix(0.294, -0.956, 0.956, 0.294, 32.969, 122.036)" fill="#b70070"/>
  <path id="Caminho_60405" data-name="Caminho 60405" d="M0,0H4.807V5.03H0Z" transform="matrix(0.294, -0.956, 0.956, 0.294, 42.585, 124.992)" fill="#b70070"/>
  <path id="Caminho_60406" data-name="Caminho 60406" d="M0,0H4.807V5.03H0Z" transform="matrix(0.294, -0.956, 0.956, 0.294, 52.199, 127.946)" fill="#b70070"/>
</svg>
