<svg id="Outline" xmlns="http://www.w3.org/2000/svg" width="57.658" height="60" viewBox="0 0 57.658 60">
  <path id="Caminho_60220" data-name="Caminho 60220" d="M242.531,224.755a3,3,0,0,0-3.734-2.014l-26.825,8.026a1,1,0,0,0-.4.229l-3.259,3.063a1,1,0,0,0,.513,1.714l4.405.77a1,1,0,0,0,.459-.027L235.457,230l.094,2.059-6.916,2.069.573,1.916,7.664-2.293a1,1,0,0,0,.712-1l-.153-3.338,3.084-.923a3,3,0,0,0,2.014-3.734Zm-29.186,9.776-2.2-.385,1.63-1.531,4.564-1.365.573,1.916Zm6.48-1.939-.573-1.916,16.018-4.793.094,2.059Zm20.712-6.5a.994.994,0,0,1-.594.483l-2.605.779-.094-2.059,2.126-.636a1,1,0,0,1,1.167,1.433Z" transform="translate(-184.999 -196.787)" fill="#b70070"/>
  <path id="Caminho_60221" data-name="Caminho 60221" d="M61,240H44V225a1,1,0,0,0-1-1H25a1,1,0,0,0-1,1v32a1,1,0,0,0,1,1H61a1,1,0,0,0,1-1V241A1,1,0,0,0,61,240Zm-11,2h4v4H50ZM32,226h4v4H32Zm-6,0h4v5a1,1,0,0,0,1,1h6a1,1,0,0,0,1-1v-5h4v14H26Zm6,16h4v4H32Zm-6,0h4v5a1,1,0,0,0,1,1h6a1,1,0,0,0,1-1v-5h4v14H26Zm34,14H44V242h4v5a1,1,0,0,0,1,1h6a1,1,0,0,0,1-1v-5h4Z" transform="translate(-24 -198)" fill="#b70070"/>
  <path id="Caminho_60222" data-name="Caminho 60222" d="M280,448h2v2h-2Z" transform="translate(-248 -394)" fill="#b70070"/>
  <path id="Caminho_60223" data-name="Caminho 60223" d="M136,448h2v2h-2Z" transform="translate(-122 -394)" fill="#b70070"/>
  <path id="Caminho_60224" data-name="Caminho 60224" d="M136,320h2v2h-2Z" transform="translate(-122 -282)" fill="#b70070"/>
  <path id="Caminho_60225" data-name="Caminho 60225" d="M138,24a2,2,0,0,1,2-2h6v2h-5a1,1,0,0,0-1,1V40h2V26h24V42h2V25a1,1,0,0,0-1-1h-5V22h6a2,2,0,0,1,2,2V41h2V24a4,4,0,0,0-4-4h-9.719l.689-2.757A1,1,0,0,0,158,16h-8a1,1,0,0,0-.97,1.243L149.719,20H140a4,4,0,0,0-4,4V40h2Zm10-2h3a1,1,0,0,0,.97-1.243L151.281,18h5.439l-.689,2.757A1,1,0,0,0,157,22h3v2H148Z" transform="translate(-122 -16)" fill="#b70070"/>
  <path id="Caminho_60226" data-name="Caminho 60226" d="M352,345a2,2,0,0,1-2,2h-6v2h6a4,4,0,0,0,4-4v-9h-2Z" transform="translate(-304 -296)" fill="#b70070"/>
  <path id="Caminho_60227" data-name="Caminho 60227" d="M350,351v-7h-2v6h-4v2h5A1,1,0,0,0,350,351Z" transform="translate(-304 -303)" fill="#b70070"/>
  <path id="Caminho_60228" data-name="Caminho 60228" d="M206,113a1,1,0,0,0-1-1h-4a1,1,0,0,0-1,1v4a1,1,0,0,0,1,1h4a1,1,0,0,0,1-1Zm-2,3h-2v-2h2Z" transform="translate(-178 -100)" fill="#b70070"/>
  <path id="Caminho_60229" data-name="Caminho 60229" d="M205,184h-4a1,1,0,0,0-1,1v4a1,1,0,0,0,1,1h4a1,1,0,0,0,1-1v-4A1,1,0,0,0,205,184Zm-1,4h-2v-2h2Z" transform="translate(-178 -163)" fill="#b70070"/>
  <path id="Caminho_60230" data-name="Caminho 60230" d="M264,112h2v2h-2Z" transform="translate(-234 -100)" fill="#b70070"/>
  <path id="Caminho_60231" data-name="Caminho 60231" d="M264,144h12v2H264Z" transform="translate(-234 -128)" fill="#b70070"/>
  <path id="Caminho_60232" data-name="Caminho 60232" d="M296,112h8v2h-8Z" transform="translate(-262 -100)" fill="#b70070"/>
  <path id="Caminho_60233" data-name="Caminho 60233" d="M264,184h2v2h-2Z" transform="translate(-234 -163)" fill="#b70070"/>
  <path id="Caminho_60234" data-name="Caminho 60234" d="M264,216h12v2H264Z" transform="translate(-234 -191)" fill="#b70070"/>
  <path id="Caminho_60235" data-name="Caminho 60235" d="M296,184h8v2h-8Z" transform="translate(-262 -163)" fill="#b70070"/>
</svg>
