<svg xmlns="http://www.w3.org/2000/svg" width="829.947" height="829.948" viewBox="0 0 829.947 829.948">
  <path id="Caminho_60099" data-name="Caminho 60099" d="M543.857,882.455c-289.778,0-324.812-117.521-326.182-122.53l-.239-1.78a109.281,109.281,0,0,1,.537-10.925C170.327,717.039,139.5,682,139.5,643.822a73.675,73.675,0,0,1,6.8-31.387c-27.818-25.261-46.572-53.72-46.572-84.594,0-22.666,8.765-42.343,26.029-58.429C108.341,447.622,105,429.454,105,418.348c0-22.152,7.871-51.155,44.455-76.476-6.529-12.253-9.959-23.933-9.959-34.677,0-46.96,40.579-72.281,83.424-85.892a87.119,87.119,0,0,1-.745-10.714c0-3.29.179-6.489.477-9.6.387-23.54,8.945-43.519,25.552-59.424a113.348,113.348,0,0,1,27.132-18.923c18.1-11.2,39.118-19.225,59.93-24.989,48.957-41.165,158.917-45.149,199.079-45.149,2.176,0,196.724,2.837,236.616,94.131,72.572,42.523,79.638,91.9,80.294,98.387A58.426,58.426,0,0,1,852,253.2c59.094,52,61.33,96.153,61.33,102.038.269,3.8,1.282,27.584-19.827,51.547-1.4,1.569-2.8,3.079-4.264,4.557.239.272.418.513.656.754,25.94,22.092,39.774,45.029,39.774,67.452a60.439,60.439,0,0,1-8.706,31.629c-6.142,14.939-17.382,26.076-30.74,34.254C904.835,561.22,913.332,578,913.332,595.5c0,41.286-37.835,64.4-79.816,77.321,6.649,12.646,8.528,21.277,8.885,22.756.15.543,5.456,21.91-11.21,43.881q-18.919,24.853-63,36.427c.208,2.112.328,4.255.328,6.428,0,53.539-79.25,69.655-116.52,74.242l3.369,12.8c-47.973,12.947-108.886,13.1-111.51,13.1m-313.124-125.4c3.489,9.657,46.751,111.907,313.124,111.907.656,0,60.317-.151,106.322-12.193-9.362,1.117-15.713,1.479-16.816,1.509-112.554.03-293.773-40.019-402.57-103.246,0,.664-.06,1.358-.06,2.022m1.67-16.689c26.387,15.844,58.826,31.055,96.841,45.089,96.155,35.491,218.22,59.364,303.762,59.364.924-.06,122.184-6.791,122.184-62.5,0-1.117-.06-2.294-.119-3.41-22.66,4.587-49.613,6.911-80.652,6.911-94.575,0-237.212-30.753-355.044-76.536-15.057-5.855-32.022-12.887-49.673-20.945a106.955,106.955,0,0,0-11.837,8.9c-13.685,11.951-22.123,26.2-25.463,43.127m51.909-60.179q19.008,8.375,39.864,16.508c116.43,45.24,257.16,75.631,350.244,75.631,32.082,0,57.634-2.535,77.789-6.64-13.119-36.125-67.354-62.835-121.2-80.007-63.746-4.95-121.588-15-173.557-28.43-50.895-2.505-123.824-.785-173.139,22.937m392.612,8.178c41.622,17.867,77.67,42.343,88.344,74.273,30.65-8.179,46.691-20.221,55.1-31.055,12.851-16.629,9.214-32.292,9.035-32.956-.06-.392-2.147-8.993-9.6-21.971-46.513,11.83-93.74,12.494-97.646,12.555q-23.032,0-45.231-.845M156.88,621.519a60.9,60.9,0,0,0-4.055,22.3c0,29.546,23.763,60.239,67.652,89.061,4.562-17.806,14.162-33.168,28.712-45.874,2.087-1.81,4.264-3.561,6.47-5.251-34.407-16.539-70.186-36.85-98.779-60.239M633.3,672.342c28.175,2.173,57.842,3.38,88.82,3.38.866-.031,45.589-.634,89.984-11.076-18.4-25.924-55.279-61.6-127.73-88.518-71.5-2.234-146.871-15.3-219.949-37.664-12.821-.423-26.148-.664-39.893-.664-1.4-.03-94.813-1.267-171.857,20.1,2.624,1.6,5.307,3.2,7.991,4.8,47.168,27.826,112.911,58.549,198.452,80.942,31.4,1.63,54.324,4.859,58.588,5.463,16.13.181,65.117,7.425,115.6,23.239M163.351,609.357c25.909,21.7,61.449,43.278,105.457,63.8,38.135-21.85,91.475-29.033,139.06-30.271-69.5-22.333-126.9-50.551-172.632-79.675-25.045,8.481-47.288,19.768-62.4,34.828a74.658,74.658,0,0,0-9.481,11.317M721.856,576.31c58.588,27.4,89.029,60.239,104.743,84.564C865.3,649.647,900,629.97,900,595.5c0-14.909-7.9-29.667-21.557-43.791-18.9,8.662-40.013,12.495-56.322,13.309-39.059,8.541-78.862,10.775-100.27,11.287M134.4,479.673c-14.371,13.551-21.348,29.3-21.348,48.168,0,23.45,13.924,48.046,40.191,72.612a93.006,93.006,0,0,1,10.227-12.042c14.61-14.516,34.825-25.743,57.693-34.465-37.9-25.592-66.7-51.487-86.763-74.273m554.749,83.116c5.694.121,11.42.181,17.055.181.477.03,15.981.181,38.373-1.268C613.864,549.117,489,502.912,386.848,428.428c-.417-.332-.924-.694-1.371-1.026-47.705-.272-87.151,2.143-119.62,6.217,17.68,11.378,37.031,22.575,57.753,33.288a874.708,874.708,0,0,0,142.906,58.126c96.9,3.32,169.055,18.138,222.633,37.755M535.6,543.323a831.278,831.278,0,0,0,89.625,15.029A717.891,717.891,0,0,0,535.6,543.323M409.09,427.7c116.251,80.1,260.5,124.009,408.086,124.009.388,0,1.371-.03,3.011-.121a262.359,262.359,0,0,0,43.59-13.158C822.186,505.145,750.33,476.112,677.46,457.4c-41.951-2.988-86.972-10.5-131.9-21.79-51.313-4.557-96.633-7.062-136.466-7.907M144.775,471.193c20.334,22.756,50.776,49.888,92.667,77.08,74.271-23.51,166.639-24.114,184.41-23.993a871.566,871.566,0,0,1-104.3-45.361,698.557,698.557,0,0,1-71.736-42.4c-50.687,8.239-81.874,21.156-101.045,34.676m583.789-12.4c58.439,18.953,113.479,44.244,148.094,73.7a100.411,100.411,0,0,0,24-16.962,63.422,63.422,0,0,0,8.557-10.654,57.8,57.8,0,0,0,3.518-20.492c0-15.392-10.853-37.544-31.9-62.472l-1.878-1.539c-31.306,24.265-81.784,37.151-150.39,38.419M155.956,352.767c-31.455,22-37.6,46.568-37.6,65.581,0,7.847,2.057,23.118,17.681,42.554q32.648-23.722,94.1-35.492c-33.453-24.536-58.916-49.465-74.181-72.643M676.8,443.85c13.745,1.026,27.311,1.57,40.519,1.57,81.188,0,125.911-16.177,150.449-33.56-33.811-24.174-83.155-46.839-141.3-65.46a472.964,472.964,0,0,1-55.338,2.988c-82.8,0-160.527-20.4-222.394-50.914q-16.905-.589-33.692-.6c-46.363,0-86.137,2.867-120.1,7.787,59.184,48.8,155.19,91.717,253.85,116.736,1.938.151,3.847.332,5.695.513,35.063,2.414,78.177,9.718,122.3,20.945M166.958,345.645c15.862,23.9,44.246,50.491,81.785,76.567q50.895-7.787,118.934-8.36c-41.384-32.625-76.09-68.418-101.134-103.306-43.739,8.692-76.09,21.156-99.584,35.1M389.71,413.881q43.247.362,92.756,3.41a806.848,806.848,0,0,1-87.3-34.5c-42.04-19.647-77.222-40.924-104.623-63.016,24.389,30.6,57.305,62.925,99.167,94.1M793.2,330.011c36.375,23.57,65.505,48.107,87.091,71.315,1.014-1.026,2.028-2.083,2.892-3.109,18.724-21.005,16.936-41.105,16.846-41.95l-.03-.845c0-.362-.447-38.208-49.792-85.137a71.642,71.642,0,0,1-13.745,28.279q-15.3,19.42-43.263,31.447m-37.6,11.649c2.117.755,4.2,1.509,6.351,2.294a603.365,603.365,0,0,1,69.023,29.908A531.346,531.346,0,0,0,777.4,335.9c-6.8,2.173-14.1,4.1-21.8,5.764m-272.1-41.316C536.522,321.863,600.447,335.9,671.139,335.9q9.795,0,18.874-.332a1079.928,1079.928,0,0,0-206.5-35.22M225.724,234.7c-37.985,12.283-72.9,34.043-72.9,72.492,0,8.45,2.654,17.716,7.722,27.555,23.763-14.215,55.755-26.89,97.885-35.945a274.947,274.947,0,0,1-20.99-37.393A114.359,114.359,0,0,1,225.724,234.7m224.213,50.34c93.412,3.441,193.324,20.492,278.477,47.473a279.8,279.8,0,0,0,33.1-6.187,712.443,712.443,0,0,0-97.586-46.87c-60.854,13.279-124.153,10.5-128.267,10.322l.626-13.46c.864.03,50.269,2.173,102.953-6.066-73.138-25.895-165.715-46.688-278.865-50.642,21.467,23.419,51.938,46.266,89.566,65.43m236.05-11.167a708.251,708.251,0,0,1,83.186,41.377c3.28,1.9,6.5,3.833,9.719,5.764,24.42-8.752,38.672-20.13,46.871-30.542a56.992,56.992,0,0,0,12.7-30.693c-16.459-14-38.432-29.365-67.622-45.028a81.621,81.621,0,0,1-17.293,23.722c-17.054,16.448-41.324,27.705-67.562,35.4m-435.1-15.995c7.782,12.313,18.277,24.506,31.1,36.427,37.091-6.278,81.1-9.929,133.067-9.929,2.475,0,4.98,0,7.484.03-33.424-19.5-60.853-41.95-80.114-65.279-7.007-.151-14.1-.181-21.259-.181-.745,0-40.281.966-80.83,11.529a183.033,183.033,0,0,0,10.555,27.4m97.885-52.091c131.486,3.169,236.348,28.792,316.075,59.575,31.008-7.062,60.586-18.41,79.458-36.669a67,67,0,0,0,14.729-20.1c-70.127-35.492-177.97-71.707-343.357-96.032-.328,0-39.416-2.445-81.039,5.191a45.193,45.193,0,0,0-10.018,28.4c0,18.41,8.468,38.992,24.151,59.635m426.84-4.165a426.9,426.9,0,0,1,61.092,38.962c-3.4-12.585-15.892-43.338-59.661-73.216a95.469,95.469,0,0,1,1.072,14.215,78.821,78.821,0,0,1-2.5,20.039m-539.662.392v2.022a84.153,84.153,0,0,0,1.282,13.128c41.146-10.684,80.383-11.649,83.812-11.74,3.727,0,7.454.03,11.121.06-13.506-19.858-20.841-40.049-20.841-59.334a58.681,58.681,0,0,1,5.128-24.416,182.244,182.244,0,0,0-30.173,10.533c-26.834,15.543-47.228,37.786-50.329,69.746M406.556,98.743c5.963.151,9.749.392,10.525.452,163.27,23.963,272.843,59.3,346.309,96.123a62.577,62.577,0,0,0,1.371-13.732,74.506,74.506,0,0,0-3.935-24.325C704.831,125.09,608.319,96.54,442.066,96.54c-.537,0-14.759.091-35.51,2.2m35.51-15.693c150.956,0,246.277,23,306.415,51.668-52.3-66.516-212.2-68.75-214.136-68.75-13.775,0-96.125.936-153.431,22.152a444.205,444.205,0,0,1,61.152-5.07" transform="translate(-99.724 -52.507)" fill="#e9ecef"/>
</svg>
