<svg xmlns="http://www.w3.org/2000/svg" width="48.25" height="48.25" viewBox="0 0 48.25 48.25">
  <path id="Caminho_60263" data-name="Caminho 60263" d="M125.41,100.507c-16.759,0-18.785-6.8-18.865-7.087l-.014-.1c0-.215.01-.426.031-.632-2.756-1.745-4.539-3.772-4.539-5.98a4.261,4.261,0,0,1,.393-1.815c-1.609-1.461-2.693-3.107-2.693-4.892a4.475,4.475,0,0,1,1.505-3.379,4.739,4.739,0,0,1-1.2-2.953,5.207,5.207,0,0,1,2.571-4.423,4.327,4.327,0,0,1-.576-2.006c0-2.716,2.347-4.18,4.825-4.968a5.039,5.039,0,0,1-.043-.62c0-.19.01-.375.028-.555a4.7,4.7,0,0,1,1.478-3.437,6.556,6.556,0,0,1,1.569-1.094,13.482,13.482,0,0,1,3.466-1.445c2.831-2.381,9.191-2.611,11.514-2.611.126,0,11.378.164,13.685,5.444,4.2,2.459,4.606,5.315,4.644,5.69a3.378,3.378,0,0,1,.043.473c3.418,3.007,3.547,5.561,3.547,5.9A4.2,4.2,0,0,1,145.632,73c-.081.091-.162.178-.247.264.014.016.024.03.038.044,1.5,1.278,2.3,2.6,2.3,3.9a3.5,3.5,0,0,1-.5,1.829,4.238,4.238,0,0,1-1.778,1.981,4.328,4.328,0,0,1,1.336,2.9c0,2.388-2.188,3.725-4.616,4.472a5.447,5.447,0,0,1,.514,1.316,3.151,3.151,0,0,1-.648,2.538,6.473,6.473,0,0,1-3.644,2.107c.012.122.019.246.019.372,0,3.1-4.583,4.029-6.739,4.294l.195.74a29.106,29.106,0,0,1-6.449.758M107.3,93.255c.2.559,2.7,6.472,18.11,6.472a29.137,29.137,0,0,0,6.149-.705c-.541.065-.909.086-.973.087-6.51,0-16.99-2.315-23.283-5.971,0,.038,0,.079,0,.117m.1-.965A33.5,33.5,0,0,0,113,94.9a56.569,56.569,0,0,0,17.568,3.433c.053,0,7.067-.393,7.067-3.615,0-.065,0-.133-.007-.2a23.826,23.826,0,0,1-4.665.4c-5.47,0-13.719-1.779-20.534-4.426-.871-.339-1.852-.745-2.873-1.211a6.186,6.186,0,0,0-.685.515,4.35,4.35,0,0,0-1.473,2.494m3-3.48q1.1.484,2.306.955c6.734,2.616,14.873,4.374,20.256,4.374a22.8,22.8,0,0,0,4.5-.384c-.759-2.089-3.9-3.634-7.01-4.627a58.048,58.048,0,0,1-10.038-1.644c-2.944-.145-7.161-.045-10.014,1.327m22.707.473c2.407,1.033,4.492,2.449,5.109,4.3a5.716,5.716,0,0,0,3.187-1.8,2.362,2.362,0,0,0,.523-1.906,5.1,5.1,0,0,0-.555-1.271,26.7,26.7,0,0,1-5.647.726q-1.332,0-2.616-.049M103.03,85.416a3.522,3.522,0,0,0-.235,1.29c0,1.709,1.374,3.484,3.913,5.151a5.174,5.174,0,0,1,1.661-2.653c.121-.1.247-.206.374-.3a29.168,29.168,0,0,1-5.713-3.484m27.554,2.939c1.63.126,3.345.2,5.137.2a27.391,27.391,0,0,0,5.2-.641c-1.064-1.5-3.2-3.562-7.387-5.119a49.243,49.243,0,0,1-12.721-2.178c-.741-.024-1.512-.038-2.307-.038a41.231,41.231,0,0,0-9.939,1.162c.152.093.307.185.462.278A44.956,44.956,0,0,0,120.51,86.7c1.816.094,3.142.281,3.388.316a29.714,29.714,0,0,1,6.685,1.344M103.4,84.712a28.112,28.112,0,0,0,6.1,3.69c2.206-1.264,5.29-1.679,8.043-1.751a43.163,43.163,0,0,1-9.984-4.608,9.388,9.388,0,0,0-3.609,2.014,4.318,4.318,0,0,0-.548.655m32.3-1.911a13.974,13.974,0,0,1,6.058,4.891c2.238-.649,4.245-1.787,4.245-3.781a3.76,3.76,0,0,0-1.247-2.533,9.22,9.22,0,0,1-3.257.77,32.149,32.149,0,0,1-5.8.653m-33.976-5.589A3.665,3.665,0,0,0,100.495,80c0,1.356.805,2.779,2.324,4.2a5.376,5.376,0,0,1,.591-.7,9.534,9.534,0,0,1,3.337-1.993,26.409,26.409,0,0,1-5.018-4.3m32.084,4.807c.329.007.66.01.986.01.028,0,.924.01,2.219-.073a42.063,42.063,0,0,1-20.689-7.708c-.024-.019-.053-.04-.079-.059a53.485,53.485,0,0,0-6.918.36c1.023.658,2.142,1.306,3.34,1.925a50.589,50.589,0,0,0,8.265,3.362,41.686,41.686,0,0,1,12.876,2.184m-8.881-1.126a48.081,48.081,0,0,0,5.184.869,41.514,41.514,0,0,0-5.184-.869m-7.317-6.687a41.823,41.823,0,0,0,23.6,7.172c.022,0,.079,0,.174-.007a15.176,15.176,0,0,0,2.521-.761c-2.406-1.925-6.561-3.6-10.776-4.687a44.792,44.792,0,0,1-7.629-1.26c-2.968-.264-5.589-.408-7.893-.457M102.33,76.722a26.719,26.719,0,0,0,5.359,4.458,39.149,39.149,0,0,1,10.665-1.388,50.408,50.408,0,0,1-6.032-2.623,40.406,40.406,0,0,1-4.149-2.452,14.067,14.067,0,0,0-5.844,2.006M136.093,76a26.424,26.424,0,0,1,8.565,4.262,5.807,5.807,0,0,0,1.388-.981,3.67,3.67,0,0,0,.495-.616,3.343,3.343,0,0,0,.2-1.185,6.505,6.505,0,0,0-1.845-3.613l-.109-.089c-1.811,1.4-4.73,2.149-8.7,2.222m-33.117-6.132a4.427,4.427,0,0,0-2.174,3.793,3.923,3.923,0,0,0,1.023,2.461,13.705,13.705,0,0,1,5.442-2.053,17.628,17.628,0,0,1-4.29-4.2M133.1,75.14c.795.059,1.58.091,2.343.091,4.7,0,7.282-.936,8.7-1.941a30.516,30.516,0,0,0-8.172-3.786,27.35,27.35,0,0,1-3.2.173,29.476,29.476,0,0,1-12.862-2.945q-.978-.034-1.949-.035a48.673,48.673,0,0,0-6.946.45c3.423,2.822,8.975,5.3,14.681,6.751.112.009.222.019.329.03A41.392,41.392,0,0,1,133.1,75.14m-29.487-5.68a18.194,18.194,0,0,0,4.73,4.428,48.606,48.606,0,0,1,6.879-.483,30.456,30.456,0,0,1-5.849-5.975,18.249,18.249,0,0,0-5.759,2.03M116.5,73.407q2.5.021,5.365.2a46.666,46.666,0,0,1-5.049-2,29.77,29.77,0,0,1-6.051-3.645,31,31,0,0,0,5.735,5.442m23.336-4.851a26.811,26.811,0,0,1,5.037,4.125c.059-.059.117-.12.167-.18a3.393,3.393,0,0,0,.974-2.426l0-.049c0-.021-.026-2.21-2.88-4.924a4.142,4.142,0,0,1-.795,1.635,6.247,6.247,0,0,1-2.5,1.819m-2.174.674.367.133a34.9,34.9,0,0,1,3.992,1.73,30.733,30.733,0,0,0-3.1-2.2c-.393.126-.816.237-1.26.333m-15.737-2.39A28.962,28.962,0,0,0,132.772,68.9q.566,0,1.092-.019a62.457,62.457,0,0,0-11.943-2.037m-14.909-3.8c-2.2.71-4.216,1.969-4.216,4.193a3.535,3.535,0,0,0,.447,1.594,18.649,18.649,0,0,1,5.661-2.079,15.908,15.908,0,0,1-1.214-2.163,6.613,6.613,0,0,1-.678-1.545m12.967,2.911A62.816,62.816,0,0,1,136.084,68.7,16.182,16.182,0,0,0,138,68.344a41.2,41.2,0,0,0-5.644-2.711,32.065,32.065,0,0,1-7.418.6l.036-.778a33.778,33.778,0,0,0,5.954-.351A53.732,53.732,0,0,0,114.8,62.172a18.337,18.337,0,0,0,5.18,3.784m13.652-.646a40.962,40.962,0,0,1,4.811,2.393c.19.11.376.222.562.333a5.836,5.836,0,0,0,2.711-1.766,3.3,3.3,0,0,0,.735-1.775,22.232,22.232,0,0,0-3.911-2.6,4.721,4.721,0,0,1-1,1.372,9.451,9.451,0,0,1-3.907,2.047m-25.164-.925a10.843,10.843,0,0,0,1.8,2.107,46.368,46.368,0,0,1,7.7-.574c.143,0,.288,0,.433,0a17.339,17.339,0,0,1-4.633-3.775c-.405-.009-.816-.01-1.229-.01a22.89,22.89,0,0,0-4.675.667,10.586,10.586,0,0,0,.61,1.585m5.661-3.013a54.1,54.1,0,0,1,18.28,3.446A9.818,9.818,0,0,0,137,62.7a3.874,3.874,0,0,0,.852-1.162C133.8,59.482,127.562,57.387,118,55.98a21.813,21.813,0,0,0-4.687.3,2.614,2.614,0,0,0-.579,1.642,5.927,5.927,0,0,0,1.4,3.449m24.686-.241a24.689,24.689,0,0,1,3.533,2.253,7.9,7.9,0,0,0-3.45-4.234,5.524,5.524,0,0,1,.062.822,4.56,4.56,0,0,1-.145,1.159m-31.211.023v.117a4.864,4.864,0,0,0,.074.759,23.222,23.222,0,0,1,4.847-.679c.216,0,.431,0,.643,0a6.189,6.189,0,0,1-1.205-3.432,3.394,3.394,0,0,1,.3-1.412,10.539,10.539,0,0,0-1.745.609,5.256,5.256,0,0,0-2.911,4.034m9.867-5.973c.345.009.564.023.609.026,9.443,1.386,15.78,3.43,20.029,5.559a3.62,3.62,0,0,0,.079-.794,4.309,4.309,0,0,0-.228-1.407c-3.238-1.861-8.82-3.512-18.435-3.512-.031,0-.854.005-2.054.127m2.054-.908c8.731,0,14.243,1.33,17.722,2.988-3.025-3.847-12.272-3.976-12.385-3.976a29.966,29.966,0,0,0-8.874,1.281,25.69,25.69,0,0,1,3.537-.293" transform="translate(-99.599 -52.382)" fill="#b70070" stroke="#b70070" stroke-width="0.25"/>
</svg>
