<?xml version="1.0" encoding="utf-8"?>
<!-- Generator: Adobe Illustrator 26.0.1, SVG Export Plug-In . SVG Version: 6.00 Build 0)  -->
<svg version="1.1" id="Camada_1" xmlns="http://www.w3.org/2000/svg" xmlns:xlink="http://www.w3.org/1999/xlink" x="0px" y="0px"
	 viewBox="0 0 500 268" style="enable-background:new 0 0 500 268;" xml:space="preserve">
<style type="text/css">
	.st0{fill:#FFFFFF;}
	.st1{opacity:0.2;}
	.st2{fill:url(#SVGID_1_);}
	.st3{opacity:0.35;}
	.st4{fill:url(#SVGID_00000010288019504534741960000001228334109083248294_);}
	.st5{opacity:0.55;}
	.st6{fill:url(#SVGID_00000072238955937721807980000018315071254133843634_);}
	.st7{opacity:0.75;}
	.st8{fill:url(#SVGID_00000126291909385532153240000014830221987658548387_);}
	.st9{fill:url(#SVGID_00000021825461808894396550000008008977984463211662_);}
</style>
<g>
	<g>
		<g>
			<path class="st0" d="M276,137v12.5h-32.5v90.7h-14.5v-90.7h-32.5v-5.6c0-3.8,3.1-6.9,6.9-6.9H276z"/>
		</g>
		<g>
			<path class="st0" d="M439.5,226c-1-2.4-2.3-5.4-4-9.1c-1.6-3.7-3.4-7.6-5.3-11.9c-1.9-4.3-3.9-8.7-6-13.2
				c-2.1-4.5-4.2-8.8-6-12.8c-1.9-4-3.7-7.6-5.3-10.8c-1.6-3.2-3-5.6-4-7.3c-1.1,11.7-2,24.4-2.7,38.1c-0.7,13.7-1.3,27.4-1.8,41.3
				h-6.9c-3.9,0-7.1-3.3-6.9-7.2c0.3-6.6,0.6-13.2,1-19.8c0.5-9.1,1.1-18,1.7-26.8c0.6-8.8,1.3-17.4,2.1-25.7
				c0.7-8.3,1.6-16.2,2.5-23.7h12.7c2.7,4.4,5.6,9.5,8.6,15.5c3.1,6,6.2,12.2,9.2,18.7c3.1,6.5,6.1,13,8.9,19.5
				c2.9,6.5,5.5,12.4,7.9,17.8c2.4-5.4,5-11.3,7.9-17.8c2.9-6.5,5.9-13,8.9-19.5c3.1-6.5,6.2-12.7,9.2-18.7c3.1-6,6-11.1,8.6-15.5
				h12.7c3.1,31,5.6,63,7.2,96c0.2,3.9-3,7.3-6.9,7.3h-6.9c-0.5-13.9-1.1-27.7-1.8-41.3c-0.7-13.7-1.6-26.3-2.7-38.1
				c-1,1.7-2.3,4.1-4,7.3c-1.6,3.2-3.4,6.8-5.3,10.8c-1.9,4-3.9,8.3-6,12.8c-2.1,4.5-4.2,8.9-6,13.2c-1.9,4.3-3.7,8.2-5.3,11.9
				c-1.6,3.7-3,6.7-4,9.1H439.5z"/>
		</g>
		<g>
			<path class="st0" d="M371.5,165.2c-2.8-6.6-6.7-12.1-11.8-16.4c-5.1-4.3-11.1-7.5-18.2-9.7c-7.1-2.1-14.8-3.2-23.3-3.2
				c-4.2,0-8.8,0.2-13.8,0.5c-5,0.3-9.6,1-13.6,2v66.8l14.5,0.8v-56.9c0.9-0.1,2.5-0.2,4.7-0.3c2.2-0.1,5.4-0.1,9.5-0.1
				c13.7,0,24,3.5,30.7,10.5c6.8,7,10.1,16.8,10.1,29.4c0,12.6-3.4,22.4-10.1,29.4c-6.8,7-17,10.5-30.7,10.5c-4.1,0-7.2,0-9.5-0.1
				c-2.2-0.1-3.8-0.2-4.7-0.3v0l-14.5-1.1v11.7c4.1,1,8.6,1.7,13.6,2c5,0.3,9.6,0.5,13.8,0.5c8.4,0,16.2-1.1,23.3-3.2
				c7.1-2.1,13.1-5.4,18.2-9.7c5.1-4.3,9-9.8,11.8-16.4c2.8-6.6,4.2-14.4,4.2-23.3C375.6,179.6,374.2,171.9,371.5,165.2z"/>
		</g>
	</g>
	<g>
		<g class="st1">
			<linearGradient id="SVGID_1_" gradientUnits="userSpaceOnUse" x1="95.7741" y1="25.5379" x2="20.469" y2="155.9702">
				<stop  offset="0" style="stop-color:#32BFC9"/>
				<stop  offset="0.2814" style="stop-color:#29BEC7"/>
				<stop  offset="0.7389" style="stop-color:#11BCC2"/>
				<stop  offset="1" style="stop-color:#00BABE"/>
			</linearGradient>
			<path class="st2" d="M1.1,80.8C1,70.6,1,60.5,0.8,50.3c0-2.6-0.3-8.9-0.1-11.4c0.1-6.5,2-12.8,5.1-18.5C15.6,2.8,38.8-5,57.1,3.4
				c19.1,10.2,37.2,22.2,56,32.8c8.6,5.4,18.2,9.4,25.7,16.6c7.2,7.5,11.4,17.6,11.6,28c0.3,16.2-9.3,30.5-23.6,37.7
				c0,0-13.1,7.7-13.1,7.7c-17.6,10.2-35,20.6-52.8,30.5c-4.6,2.5-9.8,4.1-15,4.8c-21.4,2.6-42.3-13.5-44.8-35
				c-0.6-4.4-0.2-10.8-0.2-15.3C1,101.1,1,90.9,1.1,80.8L1.1,80.8z M1.4,80.8c0,10.1,0.1,20.3,0.3,30.4c0.1,2.5,0,8.9,0.4,11.4
				c0.3,6.2,2.5,12.2,5.6,17.5c10.6,17,33.9,23.6,51.4,13.6c15.3-8.6,37.3-21.5,52.9-30.2c7.4-4.5,19.3-10,25.4-16
				c6.9-7.1,10.9-16.7,11.1-26.7c0-10-3.7-19.9-10.6-27.2c-7.2-7.1-16.8-11.2-25.4-16.4C97.2,28.4,74.9,16.3,59.3,7.6
				C41.7-2.4,18.2,4.4,7.6,21.4C4.5,26.7,2.3,32.7,2,39c-0.3,2.4-0.3,8.8-0.4,11.4C1.4,60.5,1.4,70.6,1.4,80.8L1.4,80.8z"/>
		</g>
		<g class="st3">
			
				<linearGradient id="SVGID_00000078045464970568258750000006192072548413445036_" gradientUnits="userSpaceOnUse" x1="95.9773" y1="50.5092" x2="20.3453" y2="181.5077">
				<stop  offset="0" style="stop-color:#32BFC9"/>
				<stop  offset="0.2814" style="stop-color:#29BEC7"/>
				<stop  offset="0.7389" style="stop-color:#11BCC2"/>
				<stop  offset="1" style="stop-color:#00BABE"/>
			</linearGradient>
			<path style="fill:url(#SVGID_00000078045464970568258750000006192072548413445036_);" d="M1,106c0-10.1-0.1-20.3-0.3-30.4
				c0-2.5-0.3-8.9-0.1-11.5c0.1-6.5,2-12.9,5.1-18.6c10.7-19.1,36-26.4,55-15.3c17.6,10.3,34.8,21,52.4,31.3
				c7.6,4.8,19.3,10.1,25.7,16.5c11.1,11.3,14.6,28.7,9,43.4c-2.4,6.1-6.3,11.7-11.3,16c-2.7,2.5-6.5,4.7-9.7,6.6
				C105,156.7,83,169.8,60.9,182.2c-19.2,10.8-44.6,3.6-55.3-15.7c-3.8-6.9-5.4-14.7-5.1-22.5c0,0,0.2-7.6,0.2-7.6
				C0.9,126.3,1,116.1,1,106L1,106z M1.4,106c0,10.1,0.1,20.3,0.3,30.4c0.1,2.5,0.1,8.9,0.4,11.4c0.3,6.2,2.5,12.2,5.7,17.4
				c10.5,16.8,33.8,23.3,51.1,13.3c0,0,52.9-30.2,52.9-30.2c7.4-4.5,19.3-10,25.3-16c6.9-7.1,10.9-16.6,11.1-26.5
				c0.2-15.6-8.8-29-22.7-35.9c0,0-13.2-7.6-13.2-7.6C94.8,52.6,76.9,42.7,59.1,33c-17.5-9.8-40.9-3.1-51.4,13.7
				C4.6,52,2.5,58,2.1,64.2C1.9,66.6,1.8,73,1.7,75.6C1.5,85.7,1.4,95.8,1.4,106L1.4,106z"/>
		</g>
		<g class="st5">
			
				<linearGradient id="SVGID_00000160913201800385458170000006549439513542317953_" gradientUnits="userSpaceOnUse" x1="96.1195" y1="76.1198" x2="20.2203" y2="207.581">
				<stop  offset="0" style="stop-color:#32BFC9"/>
				<stop  offset="0.2814" style="stop-color:#29BEC7"/>
				<stop  offset="0.7389" style="stop-color:#11BCC2"/>
				<stop  offset="1" style="stop-color:#00BABE"/>
			</linearGradient>
			<path style="fill:url(#SVGID_00000160913201800385458170000006549439513542317953_);" d="M1,131.8c0-10.1-0.1-20.3-0.4-30.4
				c0-2.5-0.4-8.9-0.2-11.5c0.1-6.5,2-12.9,5-18.7c10.7-19.3,36.2-26.6,55.3-15.4c17.6,10.4,34.7,21.1,52.3,31.4
				c8.7,5.4,18.2,9.4,25.7,16.5c11.1,11.3,14.7,28.7,9.1,43.6c-2.4,6.1-6.3,11.8-11.3,16.1c-2.8,2.6-6.5,4.7-9.7,6.6
				c-21.8,12.8-43.8,25.9-65.9,38.4c-19.4,10.9-44.9,3.6-55.6-15.9c-3.8-7-5.4-14.8-5.1-22.6c0,0,0.2-7.6,0.2-7.6
				C0.9,152.1,0.9,142,1,131.8L1,131.8z M1.4,131.8c0,10.1,0.1,20.3,0.4,30.4c0.1,2.5,0.1,8.9,0.5,11.4c0.4,6.2,2.6,12.1,5.7,17.3
				c10.5,16.6,33.6,23.1,50.8,13.1c9.8-5.6,57.4-32.7,66.2-37.6c3.1-1.7,6.7-3.7,9.3-6c4.7-3.8,8.4-8.9,10.8-14.4
				c5.8-13.7,3-30.5-7.4-41.3c-7.2-7-16.8-11.2-25.3-16.4C94.7,78.5,76.8,68.7,59,59.1C41.7,49.4,18.5,56,8,72.6
				C4.8,77.9,2.6,83.8,2.3,90c-0.3,2.4-0.4,8.8-0.5,11.4C1.5,111.5,1.5,121.7,1.4,131.8L1.4,131.8z"/>
		</g>
		<g class="st7">
			
				<linearGradient id="SVGID_00000150801910955190542590000009709051878585967498_" gradientUnits="userSpaceOnUse" x1="96.2614" y1="102.2577" x2="20.095" y2="234.1817">
				<stop  offset="0" style="stop-color:#32BFC9"/>
				<stop  offset="0.2814" style="stop-color:#29BEC7"/>
				<stop  offset="0.7389" style="stop-color:#11BCC2"/>
				<stop  offset="1" style="stop-color:#00BABE"/>
			</linearGradient>
			<path style="fill:url(#SVGID_00000150801910955190542590000009709051878585967498_);" d="M1,158.2c0-10.1-0.1-20.3-0.4-30.4
				c0-2.6-0.4-8.9-0.2-11.5c0-6.6,1.9-13,5-18.8C16,78,41.8,70.6,61,81.9c17.6,10.4,34.7,21.2,52.2,31.5
				c7.6,4.9,19.3,10.1,25.7,16.6c11.2,11.3,14.8,28.8,9.2,43.7c-2.4,6.1-6.3,11.9-11.4,16.2c-2.8,2.6-6.5,4.7-9.7,6.7
				c-21.8,12.8-43.8,26-65.8,38.4c-19.5,10.9-45.2,3.6-56-16c-3.8-7-5.4-14.9-5-22.7c0,0,0.2-7.6,0.2-7.6
				C0.8,178.5,0.9,168.3,1,158.2L1,158.2z M1.5,158.2c0.1,10.1,0.1,20.3,0.5,30.4c0.1,2.5,0.1,8.9,0.5,11.4
				c0.4,6.1,2.6,12.1,5.8,17.2c10.5,16.4,33.4,22.8,50.4,13c19-11,47.1-26.8,66.2-37.6c3-1.7,6.6-3.7,9.3-5.9
				c4.7-3.8,8.3-8.8,10.8-14.3c8.1-19.4-0.5-40.8-19.3-50c-12.8-7.4-26.9-15.3-39.9-22.3c0,0-26.7-14.5-26.7-14.5
				c-4.3-2.3-8.9-3.6-13.6-4.3c-14.5-1.6-29.2,5.5-37.1,17.7c-3.2,5.2-5.4,11.1-5.7,17.3c-0.3,2.4-0.4,8.8-0.5,11.4
				C1.6,137.9,1.5,148,1.5,158.2L1.5,158.2z"/>
		</g>
		
			<linearGradient id="SVGID_00000006668389228792572280000015369496617044150429_" gradientUnits="userSpaceOnUse" x1="96.5934" y1="128.9525" x2="19.8004" y2="261.962">
			<stop  offset="0" style="stop-color:#32BFC9"/>
			<stop  offset="0.2814" style="stop-color:#29BEC7"/>
			<stop  offset="0.7389" style="stop-color:#11BCC2"/>
			<stop  offset="1" style="stop-color:#00BABE"/>
		</linearGradient>
		<path style="fill:url(#SVGID_00000006668389228792572280000015369496617044150429_);" d="M0.9,185.4c0-10.1-0.1-20.3-0.5-30.4
			c-0.7-10.2-0.7-21.2,4.6-30.5c10.7-19.8,36.8-27.4,56.3-15.9c17.5,10.5,34.5,21.5,52,31.9c8.7,5.5,18.2,9.5,25.8,16.6
			c11.3,11.3,15.1,29,9.5,44c-2.6,6.9-7.1,13.1-12.9,17.8c-2.5,1.8-5.6,3.9-8.3,5.4c-21.8,12.9-43.7,26.1-65.8,38.6
			c-19.9,11.1-45.9,3.6-56.7-16.5c-5.3-9.4-5.2-20.3-4.6-30.6C0.7,205.7,0.8,195.5,0.9,185.4L0.9,185.4z M1.5,185.4
			c0.1,10.1,0.2,20.3,0.6,30.4c0.1,2.5,0.2,8.9,0.6,11.3c0.5,6.1,2.7,12,5.9,17c10.4,15.9,33,22.3,49.6,12.5
			c19-11,47.2-26.7,66.2-37.4c3-1.7,6.6-3.6,9.2-5.9c4.7-3.7,8.3-8.6,10.8-14c5.9-13.5,3.2-30.1-7-40.8
			c-7.1-7.1-16.7-11.2-25.3-16.3c-15.3-8.7-37.9-20.4-53.6-28.9c-17.1-9.3-39.6-3-50.1,13.2c-3.2,5.1-5.4,11-5.9,17.1
			c-0.4,2.3-0.5,8.8-0.6,11.3C1.7,165.1,1.6,175.2,1.5,185.4L1.5,185.4z"/>
	</g>
</g>
</svg>
